<?xml version="1.0" standalone="no"?>
<!DOCTYPE svg PUBLIC "-//W3C//DTD SVG 1.1//EN" "http://www.w3.org/Graphics/SVG/1.1/DTD/svg11.dtd" >
<svg xmlns="http://www.w3.org/2000/svg" xmlns:xlink="http://www.w3.org/1999/xlink" version="1.1">
<metadata></metadata>
<defs>
<font id="isobareregular" horiz-adv-x="575" >
<font-face units-per-em="1000" ascent="800" descent="-200" />
<missing-glyph horiz-adv-x="300" />
<glyph horiz-adv-x="0" />
<glyph horiz-adv-x="333" />
<glyph unicode=" "  horiz-adv-x="300" />
<glyph unicode="&#x09;" horiz-adv-x="300" />
<glyph unicode="&#xa0;" horiz-adv-x="300" />
<glyph unicode="!" horiz-adv-x="253" d="M205 89q4 -5 0.5 -14.5t-18.5 -3.5q-17 7 -37.5 22.5t-25.5 26.5q-2 5 -14.5 7t-26.5 12t-21 34q-9 31 -4 66t1.5 70t-24.5 45t-24 46.5t5.5 70t18.5 49.5q2 3 7.5 13t7.5 13t6.5 11.5t5.5 13t4 13t3 15t0.5 16t-1 19.5t-3.5 22q-4 17 -2.5 42.5t8.5 36.5q5 8 6.5 18 t1 24t-0.5 18q0 7 3 9t6.5 1t8.5 -2.5t8 -0.5l45 -25q21 -12 21.5 -34t-11 -43.5t-25.5 -51t-16 -49.5t7.5 -28.5t23 -9.5t26.5 -11.5t17 -34.5q3 -19 -15.5 -30.5t-42.5 -15.5t-42 -13.5t-15 -25.5q5 -22 24.5 -29.5t40.5 -6.5t39.5 -13.5t20.5 -49.5q1 -22 22 -86.5 t18 -75.5q-4 -13 -13.5 -25t-17 -18t-11 -16.5t4.5 -20.5zM186 -105l-8 6q-13 8 -39 8q-15 0 -25.5 9t-9.5 19q0 2 2.5 12.5t1.5 19.5q-1 12 5.5 27.5t15.5 20.5q5 1 7.5 2t7.5 -2.5t8 -6.5l9 -9t11 -10q7 -6 12.5 -16t8 -17t5 -17t2.5 -11q1 -4 5.5 -11t7 -13t0.5 -10 q-3 -4 -7.5 -4t-11 1.5t-8.5 1.5z" />
<glyph unicode="&#x22;" horiz-adv-x="347" d="M147 662q-36 63 -119 18q-18 -9 -17.5 -34t10.5 -49t24 -46q11 -17 13 -36.5t1.5 -30.5t5.5 -13q8 -5 15 -2t11.5 3.5t8 7.5t5 10.5t3 13t2 13.5t1 12.5t0.5 10.5q2 17 13.5 33t20.5 25t12.5 26.5t-10.5 37.5zM326 662q-36 63 -119 18q-18 -9 -17.5 -34t10.5 -49t24 -46 q11 -17 13 -36.5t1.5 -30.5t5.5 -13q8 -5 15 -2t11.5 3.5t8 7.5t5 10.5t3 13t2 13.5t1 12.5t0.5 10.5q2 17 13.5 33t20.5 25t12.5 26.5t-10.5 37.5z" />
<glyph unicode="#" horiz-adv-x="762" d="M708 382l2 -14q4 -22 -4 -24.5t-29.5 2.5t-55.5 -5q-2 -30 -16 -44q-23 -23 -49 -72.5t-31 -90.5q22 0 29 8q14 16 61.5 21t60.5 -20q2 -5 2.5 -8.5t0 -6.5t-0.5 -5t-2.5 -4t-3.5 -3.5t-5.5 -3.5t-6.5 -3t-9 -4t-10 -4q-12 -5 -21 -7t-15.5 0t-10 4.5t-10 9t-10.5 9.5 q-7 5 -48 -15q2 -8 4 -12q14 -29 -1.5 -61t-35.5 -56.5t-16 -34.5q14 -39 -3 -59q-11 -13 -24 3l-19 23q-20 22 -16.5 49t15.5 47t28 35q11 10 21 48q-40 -13 -62 0q-23 16 -73 29t-83 6q-12 -49 -48 -88q-19 -19 5 -99q8 -23 -28 -39q-35 -16 -55 -4t7 49q25 35 36 73.5 t6 61.5q-1 3 -3 28q-12 4 -29.5 12t-28.5 12t-16 1q-31 -19 -49 -7q-11 7 -1 19l15 20q14 18 36.5 21t40.5 -3.5t33 -17.5q0 25 -5 50q-6 25 17 56t24 46v18q-68 -2 -95 15q-13 5 -17 3t-12 -11.5t-13 -12.5q-21 -12 -29 13q-8 27 7 43q5 5 12 6q20 3 45.5 -6t38.5 -13t33 8 q15 15 35 18q10 33 46 58q25 18 29 46.5t-3.5 52t-2.5 44.5t32 26q11 0 14.5 -14t1 -39.5t-7 -50.5t-11 -57t-8.5 -49q20 6 49 1.5t43 4.5q14 7 28.5 0t34.5 -23t37 -23q12 -4 19 -4q25 17 41 56.5t5 53.5q-9 11 -11 44.5t8 65.5t31 34q14 -5 19.5 0t11 -6t6 -13t3.5 -21 q1 -3 1.5 -5.5t0.5 -4.5q1 -18 3 -27t-3.5 -17.5t-9 -11.5t-12 -9.5t-13.5 -10.5q-3 -13 -2 -21t7.5 -38.5t8.5 -47.5q22 9 33 12.5t25.5 6t21.5 -3t9 -18.5zM452 165q11 -13 37 -23q7 72 -4 90q-12 21 -2 64q-40 2 -53 21q-8 10 -43 18.5t-67 10.5q24 -75 19 -98 q-5 -14 -37.5 -49.5t-35.5 -48.5q62 4 79 19q16 15 55.5 13t51.5 -17z" />
<glyph unicode="%" horiz-adv-x="702" d="M492 448q-27 -131 -69 -133q-23 -1 -53.5 -31t-47.5 -57q-48 -73 -120 -98q-36 -13 -47 -111q-4 -28 -51 -27q-43 2 -61 23q-20 25 32 53q46 24 78.5 59.5t37.5 64.5q4 15 32 68.5t35 82.5q6 24 26 37.5t42.5 25.5t31.5 28q2 3 15 30.5t22 40.5t34 29.5t59 21.5 q30 5 48 26t25 45.5t13.5 47t21 34t40.5 4.5q23 -12 -11 -66.5t-82 -117.5t-51 -80zM128 395q-14 9 -25 5.5t-21.5 0t-16.5 20.5q-14 37 -23.5 66t-12 36.5t-5.5 12.5t-10 10q-10 8 5 43.5t25 41.5q6 3 18 21.5t26.5 29.5t31.5 4q6 -6 22 0t34 13t50 -8.5t67 -59.5l2 -3 q6 -7 6 -23q-1 -21 -7 -42t-10.5 -32.5t-4 -24.5t10.5 -25q14 -21 12.5 -35t-10.5 -21t-25.5 -8t-22.5 -6q-7 -8 -18.5 -17.5t-13.5 -11.5q-5 -5 -21.5 -12.5t-20.5 -6.5q-6 0 -10.5 3.5t-13 12.5t-18.5 16zM88 551q-4 -10 6 -56t29 -47q15 -2 28.5 6t17.5 8q3 0 15 14 t20 15q11 2 26 19.5t19 35.5l-4 40q-1 1 -1 3q-1 15 -6.5 26.5t-13 17.5t-18.5 10.5t-18.5 5.5t-16 2t-9.5 1q-17 3 -32 -11t-23.5 -34.5t-13 -35t-5.5 -20.5zM239 648v-2v2zM680 115q14 -21 12 -35t-11 -22q-9 -7 -25 -7.5t-22 -6.5q-7 -7 -18.5 -16.5t-13.5 -12.5 q-5 -5 -22 -12t-20 -6q-6 0 -10.5 3.5t-13 12t-18.5 15.5q-14 9 -25 6t-21.5 0.5t-16.5 20.5q-15 38 -24.5 66.5t-11.5 36t-5 12.5t-10 10q-10 7 5 43t25 41q5 4 17.5 22.5t27 29.5t31.5 4q6 -6 22 0t34 12.5t50 -9t67 -59.5q0 -1 1 -1q7 -9 7 -24q-1 -21 -7 -42 t-10.5 -32.5t-4 -24.5t10.5 -25zM639 180l-4 40q-1 1 -1 3q-1 10 -3.5 18.5t-7 14.5t-9.5 10.5t-12 7.5t-12.5 5t-12.5 3l-10.5 1.5t-8.5 0.5l-6 1q-17 3 -32 -11t-23.5 -34.5t-13 -35t-5.5 -20.5q-4 -9 5.5 -55t28.5 -48q16 -1 29.5 6.5t17.5 7.5q3 0 14.5 14t19.5 15 q12 3 27 21t19 35zM629 283q-1 -3 0 -4v4z" />
<glyph unicode="&#x26;" horiz-adv-x="537" d="M526 11q6 -16 -27 -35.5t-70 -17.5t-42 35q-6 37 -32 50q-25 11 -35 -19q-7 -22 -24.5 -28t-38 -3t-53.5 0.5t-62 -15.5q-12 -5 -19 2.5t-14 25.5q-16 16 -22 24q-1 0 -1 -0.5t-1 -0.5l1 1q-34 39 -51 71.5t-16.5 49t2.5 32t5 21.5t-8 16q-14 16 -6.5 36.5t20.5 34.5 t29.5 30.5t19.5 24.5q4 12 25 34.5t41 27.5q-25 12 -40.5 34.5t-5.5 43.5q4 8 4.5 14t-2 15.5t-6.5 20.5t-10 32.5t-11 47.5q-4 19 4 26t21.5 6.5t29 3t22.5 15.5q24 40 92 3q4 -2 28.5 -1.5t34.5 -7.5q14 -11 -14 -42l5 5q16 19 46 13q27 -5 19 -28l-3 -7q-8 -16 -12 -29 t-1.5 -27t5 -22.5t10 -27.5t11.5 -29q6 -18 3 -31q3 -43 -15.5 -62.5t-52.5 -25.5q3 -5 6.5 -33t15.5 -41q15 -15 18.5 -23.5t-3.5 -30.5q-12 -22 11 -30q31 -12 68 19l3 3q12 11 14.5 24.5t-10.5 21.5q-23 10 -11 30q13 19 42 21q18 1 32.5 -13.5t13.5 -50.5 q-1 -24 -20.5 -49t-36.5 -24q-22 1 -35 -22.5t-5 -42.5q1 -2 -1 -20t3.5 -30.5t22.5 -10.5q10 1 28 6.5t25 5t17 -11t19 -35.5zM161 605q-11 -3 -10.5 -10.5t9 -16.5t17 -21t12 -24t-4.5 -25q-26 -38 13 -75.5t75 -47.5q17 -6 27.5 -4t16.5 18v2q19 61 -5 97q-4 9 -5.5 20 t-1.5 18.5v14.5t-2.5 10.5t-8.5 2.5q-14 -1 -35.5 16t-25.5 17q-1 0 -27.5 8.5t-43.5 -0.5zM213 46q19 7 46.5 26t45 38.5t8.5 25.5q-11 7 -14 17.5t-1.5 24t1.5 15.5q0 8 -9.5 22t-15.5 37q-8 33 -54.5 62.5t-63.5 14.5l-5 -5q-5 -4 -9.5 -8.5t-12 -12.5t-13.5 -16 t-13.5 -18.5t-13.5 -20.5t-10.5 -22t-7 -23t-2.5 -23.5t4 -23.5q30 -112 92 -115q45 4 48 5z" />
<glyph unicode="'" horiz-adv-x="173" d="M12 643q-5 -23 6 -36.5t29 -18t38 -15t27 -26.5q2 -5 3 -12.5t2 -16.5t1.5 -13t1.5 -10.5t3 -9t5.5 -4.5t8 -0.5t11.5 6.5q14 9 15 73q3 129 -43 137q-93 16 -108 -54z" />
<glyph unicode="(" horiz-adv-x="231" d="M165 617q-4 -7 -13 -16t-13 -14.5t-6.5 -17t7.5 -22.5q9 -14 12 -34.5t-3.5 -49.5t-26.5 -55q-20 -29 -17.5 -76t22.5 -67q17 -17 17.5 -39.5t-4.5 -34.5t-18 -39q-33 -42 -2 -84q19 -23 4 -90q-3 -18 9.5 -31.5t29 -19t27 -14.5t4.5 -21q-21 -35 -48.5 -27t-33.5 39 q-1 4 -30.5 15t-39.5 32q-13 28 -10 50.5t13 32.5t14 23.5t-6 24.5q-22 24 -30.5 50t-7 41t8 39.5t7.5 31.5q3 17 -12 55t-2 64q11 26 8.5 53.5t-1.5 55.5t13 36q27 19 39.5 50t13 56t10 44t31.5 20q11 0 26 7.5t25 14t20 5.5t16 -14q7 -16 1.5 -26t-14.5 -13t-21.5 -12 t-18.5 -23z" />
<glyph unicode=")" horiz-adv-x="246" d="M108 -50q3 7 10.5 16.5t12.5 16t4.5 17t-9.5 22.5q-10 13 -15.5 33.5t-1.5 50t22 56.5q18 31 10.5 78t-28.5 64q-18 15 -21 37.5t1 35.5t15 40q29 45 -6 84q-21 21 -12 89q1 19 -12.5 31t-30.5 16t-28.5 12t-6.5 21q11 25 29 30.5t33.5 -5.5t20.5 -30q2 -4 32 -12t42 -28 q16 -27 15 -49.5t-10 -33.5t-12 -25t8 -24q24 -22 35 -47t10.5 -40.5t-4.5 -40t-4 -31.5q-2 -17 17 -53.5t8 -63.5q-7 -19 -3.5 -54t6.5 -55.5t-10 -37.5q-25 -22 -34.5 -53.5t-8 -56.5t-6 -44.5t-29.5 -22.5q-11 -1 -25 -10t-23.5 -16.5t-19.5 -7.5t-17 13q-9 15 -4.5 25.5 t13 14.5t20.5 14t17 24z" />
<glyph unicode="*" horiz-adv-x="305" d="M231 540q-2 -9 18.5 -19.5t33 -20.5t-2.5 -38q-6 -12 -12 -10.5t-9 8.5t-11.5 14t-19.5 6q-12 -2 -19.5 2.5t-10.5 9.5t-7 17l-5 15v-1l-1 -1q-1 -2 -3 -3.5t-2 -2.5q-5 -26 5 -33q9 -6 16 -26t-1 -39t-37 -19q-16 0 -16 7.5t6 19.5t-5 26q-18 22 -2 50 q-6 -5 -11.5 -11.5t-7.5 -8t-7 -3.5t-9 2q-12 8 -25 6t-15 -17q-2 -12 -15.5 -11.5t-16.5 12.5q-6 22 1.5 30.5t20 11.5t14.5 10q2 6 13.5 8t27 2.5t21.5 4.5q1 0 2 1t2 1q-12 2 -17 11q-9 12 -30.5 15.5t-31.5 -0.5q-11 -1 -27.5 6t-23 18.5t14.5 27.5q12 9 20.5 0.5 t17.5 0.5q18 14 34 -11q3 -4 12 -3t25 -9q4 -3 14 -9q1 26 -24 51q-16 19 -3 37q14 18 25.5 14t11.5 -19q0 -10 12.5 -20.5t9.5 -17.5q-2 -5 3.5 -8t11.5 -10t6 -20q0 -2 -0.5 -4t-0.5 -4q26 0 40 23q10 17 25.5 24.5t26.5 -6.5q8 -21 -13.5 -42.5t-44.5 -21.5q-8 0 -21 -9 q9 -3 13.5 -6t3.5 -8z" />
<glyph unicode="+" horiz-adv-x="454" d="M395 307q47 19 49 -11q2 -24 -19 -43q-9 -8 -18 -8q-6 -1 -25.5 12.5t-29.5 6.5q-4 -3 -10.5 -13.5t-17.5 -16.5t-31 -6h-8q-2 -11 1 -23t0 -22q-3 -7 -3.5 -35t-11.5 -70q-10 -42 -33 -40q-17 1 -23 20q-4 12 1 22q1 2 5.5 11.5t7.5 16.5t7 18.5t3.5 17.5t-3.5 13 q-2 3 -9.5 9t-9.5 15t-2 29q0 6 3 15q-13 2 -42 15.5t-32 14.5q-16 5 -39.5 2t-50.5 -0.5t-35 14.5q-21 29 4 50q23 19 47 7q13 -6 19 -21q5 -15 34.5 -13t47.5 22q12 13 37 20q-4 18 0 29q3 9 -0.5 41t-1.5 57.5t17 26.5q13 -1 19.5 -2.5t9.5 -4t2.5 -8.5t-2.5 -12.5 t-4.5 -20t-3.5 -27.5q-1 -11 1.5 -23.5t5 -19.5t8 -20t6.5 -16q1 0 3 -1t3 -1q17 -6 30.5 -15t23.5 -12q4 -1 10.5 -4.5t10 -4.5t10.5 -1.5t16.5 2t22.5 8.5z" />
<glyph unicode="," horiz-adv-x="174" d="M20 70q-16 -20 -8.5 -38t22 -29t30 -29t16.5 -36q0 -7 -3.5 -19t-6.5 -21.5t-3.5 -18.5t5.5 -13t20 -1q11 2 19.5 15.5t23.5 49.5q53 125 11 150q-85 53 -126 -10z" />
<glyph unicode="-" horiz-adv-x="369" d="M50 281q8 24 40 12q5 -2 8 1.5t5.5 9t10.5 10t20 4.5q22 -1 53 -16q7 -3 24.5 4t29.5 12t20 -4q9 -14 31 -6.5t44.5 2t22.5 -37.5q1 -15 -4.5 -17.5t-14 2.5t-20 5.5t-22.5 -7.5q-13 -11 -26.5 -16t-20 -6t-21.5 1l-16 1q-15 1 -62 20q-30 10 -69 -26q-10 -9 -30 -14 t-34.5 4t-4.5 36q6 16 19.5 14t16.5 12z" />
<glyph unicode="." horiz-adv-x="193" d="M155 44l12 -5q1 -2 6.5 -7.5t8 -10.5t0.5 -9t-10.5 -5t-17 0t-15.5 -1q-1 0 -12.5 -3.5t-19.5 -5.5t-21.5 -2t-23.5 4q-8 3 -17.5 6t-15 4.5t-11 4t-7.5 6t-1 8.5q2 12 13.5 27.5t23.5 20.5q10 4 18 12t12 11q9 6 24 0.5t24 -20.5q13 -22 30 -35z" />
<glyph unicode="/" horiz-adv-x="407" d="M115 -15q3 -24 -33 -34q-39 -11 -63 4q-26 17 15 54q35 32 56 70.5t19 65.5q0 15 13 68t12 80q0 22 14 38t31.5 31.5t21.5 31.5q1 5 6.5 31t10.5 40t23 34t47 32q31 14 41.5 44t8 57.5t7.5 48.5t40 20q14 -6 12 -27.5t-15 -58t-28 -70t-27 -65t-11 -42.5q0 -7 4 -43 t3.5 -59.5t-7.5 -36.5q-8 -15 -51.5 -47.5t-48.5 -46.5q-27 -76 -85 -112q-27 -19 -16 -108z" />
<glyph unicode="0" horiz-adv-x="529" d="M440 606q24 -14 48 -53t-1 -78q-10 -15 -12 -59.5t-1.5 -94t-15.5 -114.5t-49 -116q-16 -24 -31 -28.5t-33.5 -4t-34.5 -9.5q-16 -11 -29 -24t-20 -18.5t-16 -5.5q-5 -2 -31 10t-33 19q-2 2 -21 17t-31 27q-9 9 -33.5 10t-39.5 13q-7 6 -12.5 17.5t-3.5 31.5t18 38 q15 18 10 48t-19 71t-18.5 107t11.5 155q5 27 19 44q1 12 9 18q21 15 43 28v1v-1q47 28 83.5 40t54 8.5t33 -8t20.5 -8.5t18 6q26 12 48.5 -5.5t42 -47t27.5 -34.5zM316 122q26 2 59.5 66.5t41.5 145.5t-42 155q-6 8 -22 58t-41 85t-63 30q-1 0 -11.5 -1.5t-18.5 -3 t-21.5 -5t-25 -9t-24.5 -14t-24.5 -21t-20.5 -28.5q-12 -89 -4 -100q28 -38 44 -81t19.5 -76.5t4 -62.5t1 -45t7.5 -17q15 -2 35 -26.5t25 -25.5q4 0 28.5 -13t52.5 -11zM113 647q1 2 1 7q0 -4 -1 -7z" />
<glyph unicode="1" horiz-adv-x="446" d="M282 623q-31 12 -84.5 -32.5t-50.5 -97.5q2 -27 -2 -50t-8 -32.5t-0.5 -20.5t19.5 -24q23 -19 17 -55.5t-31 -44.5q-31 -11 -63 -7.5t-40 18.5q-22 41 11 121q8 18 12.5 62.5t15.5 63.5q10 17 40.5 39.5t32.5 30.5q9 40 65.5 77.5t106.5 20.5q36 -12 48 -36.5t5.5 -47.5 t-12.5 -47t-2 -33q6 -12 21 -31.5t27 -43.5t-3 -60.5t-13 -52.5q1 -5 7 -30t7 -39t-6.5 -38.5t-26.5 -46.5q-17 -20 -17.5 -47t9 -50t18 -44t4 -33t-28.5 -12h-63q-14 0 -16 23t5 56.5t14.5 70.5t12.5 64t-1 39q-4 7 -21.5 37t-26 50.5t-8.5 34.5q1 48 -4 95q-4 29 10 46.5 t35 29t25 18.5q11 18 -4 34.5t-36 24.5z" />
<glyph unicode="2" horiz-adv-x="532" d="M377 470q0 8 -0.5 14.5t-1.5 12t-5 10.5t-6.5 8t-10 7t-11 6t-14.5 6t-16.5 5.5t-20.5 6t-23 7.5q-28 10 -64 3t-52 -28q-19 -26 -54 -36q-31 -10 -30 13q0 3 1 6q1 5 -8.5 29.5t-7.5 50.5t29 45q26 19 55.5 16t54 -12.5t65.5 1.5q66 24 98 19.5t40 -52.5 q4 -21 10.5 -38.5t11.5 -25t16.5 -21t15.5 -18.5q13 -16 5 -52.5t3 -56.5q10 -16 11.5 -25.5t-5.5 -16t-15.5 -11t-24.5 -12t-28 -15.5l-40 -28q-7 -5 -46.5 5.5t-78 7t-51.5 -41.5q-7 -20 -18.5 -39t-20.5 -29t-16.5 -23.5t-7 -22.5t8.5 -27q42 -69 104 -37q37 19 89 21 t68 16q20 17 35.5 19t24 -6t11.5 -20q3 -13 11 -18t15.5 -5t13 -6t5.5 -19v-30q0 -8 -26 -20.5t-58 -14.5t-60 22q-20 19 -64.5 21.5t-71 -2.5t-50.5 -11q-4 -1 -23 -7.5t-35 -11t-34 -7.5t-27 1.5t-7 16.5q2 14 7.5 29.5t6.5 23.5t-3.5 27t-18.5 50q-14 28 -6 82t37 64 q19 6 27.5 21t11 24t21.5 12.5t59 -11.5q9 -3 14 -4.5l10 -3t9 0t7.5 1.5t9 4.5t9 7.5t13 10.5t16.5 13.5q12 10 31.5 12.5t32.5 3.5t24 20.5t13 61.5z" />
<glyph unicode="3" horiz-adv-x="508" d="M422 307q21 -14 44 -46t4 -44q-12 -7 -17 -10.5t-10.5 -11t-7.5 -12t-9.5 -21t-14.5 -31.5q-13 -29 -28.5 -37.5t-35.5 -12t-35 -17.5q-28 -27 -64.5 -47t-55.5 -21q-48 -3 -63.5 9.5t-39.5 67.5q-1 4 -2 6l-3 6t-3 7q-2 6 2.5 33.5t-3.5 33.5q-11 12 -2 28q10 16 24 -8 q2 -3 4 -7q3 -1 14.5 -7.5t16 -9.5t12 -9.5t11 -15t5.5 -19.5q1 -8 5.5 -15.5t15 -13.5t26 -6.5t40.5 8t55 27.5q27 17 35 61t5 66q-1 9 -8 27.5t-21 44t-40.5 42t-58.5 13.5q-3 0 -20.5 -4t-28.5 -4.5t-26 7.5t-25 27q-7 12 1.5 25t22 15t24.5 -12q9 -13 31 -20h4 q61 5 99 47.5t10 72.5q-12 12 -22 46.5t-27 52t-54 8.5q-8 -2 -18.5 -4.5t-16.5 -3.5t-14 -3t-12 -3.5t-10 -3.5t-7.5 -3.5t-5 -4t-2.5 -4.5t0 -6q4 -17 -1.5 -24t-13 -5.5t-9.5 -3.5t10 -17q14 -18 11 -22t-11.5 -2t-18.5 8q-65 36 -58 87q6 22 14.5 36t23 20t25.5 7.5 t33.5 2.5t34.5 2q7 1 27 14.5t35 19t39 -5.5q14 -9 22 -16.5t12 -12.5t14 -21.5t19 -29.5q19 -27 45 -45t34 -34q28 -58 -7 -90q-1 -1 -20 -23t-33 -34q18 -13 41 -50.5t32 -43.5z" />
<glyph unicode="4" horiz-adv-x="597" d="M536 317q19 -2 26 -19.5t5 -33.5t-7 -18q-3 -1 -3.5 -20t-7 -27.5t-39.5 1.5q-15 6 -45.5 22t-45.5 21q0 -1 1 -3q7 -19 4.5 -37t-9.5 -31.5t-3 -27t25 -24.5q11 -6 12.5 -20.5t-5.5 -30.5t-18 -30.5t-25 -23t-26 -5.5q-35 20 -45.5 32t-15.5 42q-4 20 1 31t16.5 21.5 t17.5 21.5q13 24 3 74q-37 -26 -67 -38.5t-49 -13t-34.5 2t-31.5 1.5t-32 -11q-21 -9 -37 -9t-30.5 11t-21 18t-9.5 12q-25 48 13 141q9 21 14 72t18 73q12 21 47 46.5t37 34.5q7 31 24 51t60 36.5t116 26.5q31 4 40.5 -7t11 -36t8.5 -37q35 -66 30 -94.5t-18 -56t-4 -46.5 q3 -6 4.5 -13t1.5 -16t-0.5 -15t-3.5 -16.5t-4 -15t-5 -17t-5 -15.5q8 -15 23 -28q12 -11 25.5 0.5t30 28.5t32.5 15zM242 223q10 -2 23 5t22.5 15.5t26.5 26t24 24.5q-10 37 -14 57t-3 43.5t12 34.5q4 4 16 14.5t16 14.5t11 13t6.5 14.5t-2 14.5t-9.5 18t-22 20q-8 7 -8 15 t5 14.5t0 17t-25 21.5q-26 15 -44.5 -7t-47.5 -69.5t-64 -73.5q-28 -21 -38 -41.5t-3 -40.5t19 -35t32 -34q18 -16 22 -31t1 -22.5t6 -15t38 -13.5z" />
<glyph unicode="5" horiz-adv-x="544" d="M409 190q2 52 -10 85t-27.5 44t-39 24.5t-34.5 24.5q-11 12 -16 17t-12.5 9t-10 5t-10 -2.5t-11.5 -7t-16.5 -14t-21.5 -17.5q-31 -25 -48 -25t-22.5 13.5t-17.5 32.5t-31 25q-29 10 -37 64t6 82q14 31 18.5 50t3.5 27t-6.5 23.5t-7.5 29.5q-2 12 7 16.5t27 1.5t34 -7.5 t35 -11t23 -7.5q24 -6 50.5 -11t71 -2.5t64.5 21.5q28 24 60 22t58 -14.5t26 -20.5v-30q0 -21 -20 -25.5t-25 -22.5q-3 -12 -11.5 -20t-24 -6t-35.5 19q-16 14 -68 16t-89 21q-62 32 -104 -37q-9 -15 -9 -23t7 -13.5t16 -11.5t20 -20t18 -35q13 -38 54.5 -43.5t84 3 t49.5 3.5l40 -28q12 -8 28 -15.5t24.5 -12t15.5 -11t5.5 -16t-11.5 -25.5q-11 -18 2 -90.5t0 -88.5q-3 -4 -19.5 -22.5t-26 -35.5t-18.5 -45q-11 -33 -55.5 -48.5t-98 -6.5t-88.5 40q-36 33 -57.5 48.5t-28.5 16t-11 -1t-10 1.5t-20 19q-17 19 -17.5 40.5t7.5 36t17 29 t9 19.5q1 26 33 17q30 -8 42 -32q6 -11 2 -21q-18 -42 12.5 -69t72 -34t64.5 0q82 23 97 34q21 14 22 49z" />
<glyph unicode="6" horiz-adv-x="505" d="M449 269q17 -12 24.5 -33.5t-5.5 -65t-54 -96.5q-23 -30 -52 -30t-43 -10q-16 -10 -28 -22.5t-18.5 -17.5t-15.5 -5q-4 -2 -29 9t-32 18q-4 4 -24 1.5t-31 8.5q-8 8 -10 36.5t-17 40.5q-91 74 -59 112q16 19 20.5 29.5t2.5 17.5t-7.5 30t-6.5 53q-1 34 -7.5 53.5 t-15.5 31.5t-11 19q-1 4 5 19.5t18.5 43.5t19.5 45q4 10 -1 21.5t-11.5 20t-5 19t16.5 18.5q18 10 31.5 6.5t21.5 2.5t8 31q0 18 50 33t103 13t59 -25q4 -17 15.5 -24.5t24 -7.5t29.5 -3.5t29 -13.5q-21 -38 -39 -53.5t-30.5 -12t-24.5 18.5q-20 25 -59 32.5t-72.5 1.5 t-47.5 -17q-13 -11 -9.5 -49t-18.5 -54q-33 -26 -38 -102q66 44 110 62t59 16t32.5 -12.5t25.5 -11.5q28 -8 46 -28t30 -46t17 -32q19 -22 16.5 -54.5t8.5 -37.5zM325 104q29 3 45 76t11 92q-48 176 -120 165q-1 0 -9 -1t-14 -2t-16.5 -3.5t-19.5 -6t-20 -8.5t-20.5 -12.5 t-19 -17t-17 -23t-13.5 -28.5q-1 -4 -5 -6q5 -39 11 -65q7 -29 31 -57.5t42 -30.5q14 -2 33 -25t24 -24q4 0 27.5 -12.5t49.5 -10.5z" />
<glyph unicode="7" horiz-adv-x="502" d="M382 621q-20 16 -34.5 16.5t-58.5 -11.5q-10 -3 -16 -4q-41 -11 -62.5 -7t-35 0.5t-25.5 -26.5q-14 -25 -51 -26t-50 22q-16 29 -18.5 60.5t10.5 42.5q37 29 121 12q20 -5 66 -1t63 -4q19 -7 39 9.5t37 16.5q29 0 38 -2.5t18 -18t19 -26.5q26 -28 29 -56t-8.5 -46 t-23 -37t-10.5 -29q2 -13 10.5 -36t12.5 -50t-22 -57t-28 -46q-1 -7 -2 -24.5t-3 -30t-7.5 -29t-19 -31t-33.5 -26.5q-27 -16 -33.5 -47t0 -57.5t-0.5 -47t-37 -20.5l-8 -2q-7 -1 -15 -2t-18.5 0.5t-19 6t-15.5 15t-8 26.5q-1 14 10.5 27.5t29 28.5t34.5 33.5t29.5 50.5 t12.5 71q0 9 22 74q25 70 -2 71q-12 0 -36 -12q-47 -25 -73 5q-18 22 -7 40q2 4 5 6q3 3 14.5 16t23 19t25.5 2q6 -2 24.5 -12t28 -13t25.5 0q10 6 13.5 21t11.5 36.5t29 39.5q13 10 9.5 24t-11 25t-18.5 20z" />
<glyph unicode="8" horiz-adv-x="551" d="M513 220q-11 -10 -8 -16t5 -21.5t2 -32t-17 -49t-51 -71.5l2 -1l-1 1h-1q-14 -16 -33 -36q-2 -2 -6 -4q-21 -20 -56 -12q-26 5 -49.5 15.5t-38 19t-29.5 15.5t-29.5 6.5t-31.5 -10.5q-21 -13 -38.5 -11t-28 8.5t-14.5 14.5q-9 16 -6 39.5t-5 31.5q-11 19 -32 57 q-6 7 -12.5 33.5t-4.5 30.5q1 8 7 13.5t20.5 16t28.5 24.5q12 13 15 46.5t11 39.5l-10 9q-20 18 -32 31q-2 2 -4 8q-17 20 -9 51q5 21 14 52.5t11.5 43.5t0 31t-12.5 38q-15 27 13 34q28 8 47 -10l2 -2q10 -13 18 -9.5t11.5 11t9.5 19.5t12 16q11 8 34.5 7.5t28.5 1.5 q68 37 92 -3q7 -12 22.5 -15.5t29 -3t21.5 -6.5t4 -26q-6 -29 -14 -57.5t-10.5 -37.5t-4.5 -30t4 -35q12 -46 7 -94q47 -31 53 -46q3 -8 19.5 -24.5t29.5 -30.5t20.5 -34.5t-6.5 -36.5zM198 594q-16 2 -42 -19.5t-36 -46.5l-9 -96q4 -10 9.5 -19t12.5 -16t13.5 -13t14.5 -11 t13.5 -8t13.5 -6t11.5 -4.5t9.5 -3.5t7 -2q52 -17 91 39t20 108q-8 22 -6.5 41t7 35.5t11 29t4 21.5t-12.5 12q-17 9 -43.5 0.5t-27.5 -8.5q-4 0 -25.5 -17t-35.5 -16zM472 156q2 14 2 25.5t-8.5 24t-17 22t-22 20t-24.5 18t-25 14.5l-22 11t-17 8l-8 4q-3 1 -20 3 q-15 -6 -31 1q-115 5 -124 -32q-6 -25 2 -50t8 -29q0 -5 20 -28t19 -38q-1 -18 23 -46t51 -38q1 0 16.5 -1.5t43 -3t46.5 -3.5q66 30 88 118z" />
<glyph unicode="9" horiz-adv-x="505" d="M432 143q-4 -10 1 -21.5t11.5 -20t5 -19t-16.5 -18.5q-18 -10 -31.5 -6.5t-21.5 -2.5t-8 -31q0 -18 -50 -33t-103 -13t-59 25q-4 17 -15.5 24.5t-24 7.5t-29.5 3.5t-29 13.5q21 38 39 53.5t30.5 12t24.5 -18.5q20 -25 59 -32.5t72.5 -1.5t47.5 17q13 11 9.5 49t18.5 54 q33 26 38 102q-66 -44 -110 -62t-59 -16t-32.5 12.5t-25.5 11.5q-28 8 -46 28t-30 46t-17 32q-19 22 -16.5 54.5t-8.5 37.5q-17 12 -24.5 33.5t5.5 65t54 96.5q23 30 52 30t43 10q16 10 28 22.5t18.5 17.5t15.5 5q4 2 29 -9t32 -18q4 -4 24 -1.5t31 -8.5q8 -8 10 -36.5 t17 -40.5q91 -74 59 -112q-16 -19 -20.5 -29.5t-2.5 -17.5t7.5 -30t6.5 -53q1 -34 7.5 -53.5t15.5 -31.5t11 -19q1 -4 -5 -19.5t-18.5 -43.5t-19.5 -45zM393 365q1 4 5 6q-4 39 -11 65q-7 29 -31 57.5t-42 30.5q-14 2 -33 25t-24 24q-4 0 -27.5 12.5t-49.5 10.5 q-29 -3 -45 -76t-11 -92q48 -176 120 -165q1 0 9 1t14 2t16.5 3.5t19.5 6t20 8.5t20.5 12.5t19 17t17 23t13.5 28.5z" />
<glyph unicode=":" horiz-adv-x="280" d="M202 391l12 -6q1 -2 6.5 -7.5t8 -11t0.5 -9.5t-10.5 -5.5t-18 -1t-16.5 -0.5l-19 -6q-19 -5 -29 -5t-32 4q-10 4 -27 8.5t-22.5 8.5t-4.5 13q1 13 13 29.5t25 21.5q11 5 19 13t12 11q10 6 26 0.5t25 -21.5q16 -27 32 -36zM202 61l12 -6q1 -2 6 -7.5t8 -11t1 -9.5 t-10.5 -5.5t-18 -1t-16.5 -0.5q-1 0 -19 -5.5t-28.5 -6t-32.5 4.5q-10 4 -27 8.5t-22 8.5t-5 13q1 13 13 29.5t25 21.5q11 4 18.5 13t12.5 11q10 6 26 0.5t25 -21.5q16 -27 32 -36z" />
<glyph unicode=";" horiz-adv-x="200" d="M162 391l12 -6q1 -2 6.5 -7.5t8 -11t0.5 -9.5t-10.5 -5.5t-18 -1t-16.5 -0.5l-19 -6q-19 -5 -29 -5t-32 4q-10 4 -27 8.5t-22.5 8.5t-4.5 13q1 13 13 29.5t25 21.5q11 5 19 13t12 11q10 6 26 0.5t25 -21.5q16 -27 32 -36zM37 80q-16 -18 -9.5 -36t20.5 -29t28 -28.5 t14 -34.5q0 -6 -3.5 -17.5t-6.5 -21t-4.5 -18t4.5 -12.5t19 -1q10 2 18.5 14.5t24.5 46.5q53 119 15 143q-79 52 -120 -6z" />
<glyph unicode="&#x3c;" horiz-adv-x="471" d="M99 366q17 0 27 5.5t13 11.5t6 17q5 14 29 31t20 42q-4 33 19.5 52t74.5 5q18 -5 43.5 12.5t47.5 29t65 -7.5q32 -18 7 -44q-24 -25 -61 -24q-12 1 -21 5q-15 7 -25.5 -3.5t-15 -35t-6 -38.5t-2.5 -32q1 -27 -34.5 -49t-52.5 -10q-15 10 -39 0.5t-48.5 -28.5t-25.5 -19 q-39 -20 -26.5 -48t61.5 -28q30 0 87.5 -31t54.5 -54t20.5 -38.5t61.5 2.5q13 8 33 -7t30.5 -39.5t-0.5 -40.5q-10 -17 -37 -27t-34 9q-9 31 -18.5 38t-29.5 1.5t-32 -3.5q-25 2 -31 60q-5 26 -52 47.5t-81 3.5q-15 -8 -35 3t-35 34q-7 12 -6.5 24t4.5 21.5t2 15.5t-15 7 q-24 2 -30 26t2 43q5 19 37 44q34 17 48 17z" />
<glyph unicode="=" horiz-adv-x="456" d="M71 360q9 30 47 14q7 -3 11 4.5t14 16.5t29 9q27 -2 64 -18q8 -4 30 4.5t36.5 14.5t23.5 -5q6 -9 25.5 -9t40.5 5t37.5 -5.5t16.5 -41.5q1 -22 -10.5 -21.5t-28.5 8.5t-36 -8q-12 -11 -23.5 -17t-24 -8t-18.5 -2t-20 1.5t-15 1.5q-13 1 -23.5 4t-27 10t-25.5 10 q-37 13 -84 -31q-12 -11 -36.5 -17t-41.5 4.5t-5 43.5q7 20 23 17.5t21 14.5zM385 190q-9 -30 -47 -14q-7 3 -18 -8t-36 -10t-64 -4q-9 -1 -23.5 4t-35 14.5t-26.5 12.5q-8 3 -23 2t-33.5 -2t-34.5 -1.5t-26 3.5t-8 14q6 18 13 19.5t14.5 -6.5t19.5 -8t28 16q13 14 29.5 21 t24.5 7.5t27 -2.5l20 -2q12 -1 35.5 11.5t40.5 6.5t30.5 -15t23.5 -12q6 -2 22 4t31 11.5t32 -0.5t28 -30q11 -23 8 -28.5t-14 0t-22 6.5t-16 -10z" />
<glyph unicode="&#x3e;" horiz-adv-x="471" d="M372 184q-17 0 -27 -5.5t-13 -11.5t-6 -17q-5 -14 -29 -31t-20 -42q4 -33 -19.5 -52t-74.5 -5q-18 5 -43.5 -12.5t-47.5 -29t-65 7.5q-32 18 -7 44q24 25 61 24q12 -1 21 -5q15 -7 25.5 3.5t15 35t6 38.5t2.5 32q-1 27 34.5 49t52.5 10q15 -10 39 -0.5t48.5 28.5t25.5 19 q39 20 26.5 48t-61.5 28q-30 0 -87.5 31t-54.5 54t-20.5 38.5t-61.5 -2.5q-13 -8 -33 7t-30.5 39.5t0.5 40.5q10 17 37 27t34 -9q9 -31 18.5 -38t29.5 -1.5t32 3.5q25 -2 31 -60q5 -26 52 -47.5t81 -3.5q15 8 35 -3t35 -34q7 -12 6.5 -24t-4.5 -21.5t-2 -15.5t15 -7 q24 -2 30 -26t-2 -43q-5 -19 -37 -44q-34 -17 -48 -17z" />
<glyph unicode="?" horiz-adv-x="448" d="M383 643q0 15 -3.5 25t-8 15t-14 8t-15.5 3h-19h-18q-16 1 -33 -1t-31 -5t-15 -3q-10 0 -26 9.5t-36.5 24t-33.5 20.5q-26 13 -68 -26.5t-51 -63.5q-3 -11 8.5 -45.5t11.5 -57.5q0 -20 12.5 -30.5t28.5 -14t18 -5.5q15 -16 21 12q4 20 -1 35t3.5 35.5t23.5 33.5 q18 13 31 21t26 13.5t20.5 2.5t9.5 -14q1 -6 10.5 -11.5t29 -14t32.5 -16.5q6 -4 21.5 -22.5t24.5 -20.5l11 -2q21 -4 17 -42q-5 -37 -24 -43q-6 -2 -13 2q-40 20 -91.5 10t-67.5 -38q-14 -25 26 -67q13 -12 -2 -36t-36 -49t-21 -34q1 -19 9.5 -29t17.5 -14t10 -9 q1 -9 13.5 -24.5t25.5 -24.5q11 -5 14 -1t3 11q-6 16 15.5 28.5t27.5 24.5q7 13 8.5 58.5t-6.5 72.5q-17 53 -4 62t72 -18q24 -10 55.5 48.5t35.5 98.5q3 30 -26 58t-29 50zM227 -9l-5 6q-8 9 -27 13q-12 4 -18 12.5t-4 15.5q10 22 10 24q1 10 9 20t16 12q4 0 6 0.5t5 -3.5 t4.5 -6.5t5 -9t6.5 -10.5q10 -14 10 -51q0 -2 2 -9t2.5 -11t-2.5 -8q-4 -2 -6.5 -1.5t-7 3t-6.5 3.5z" />
<glyph unicode="@" horiz-adv-x="984" d="M816 318q27 -21 32.5 -90.5t-20.5 -130.5q-15 -35 -56.5 -64.5t-81.5 -36.5t-67 16q-34 38 -55 22q-39 -32 -64 -31q-30 1 -98 29q-17 6 -43 26t-33 39q-11 29 7 78q4 9 38 52q5 7 2 15.5t5.5 22t32.5 24.5q15 7 48.5 0t60.5 -15t31 -3q9 7 5 34.5t-21 44.5q-6 5 -22 4.5 t-33 -4t-36.5 8.5t-32.5 42q-6 14 -37 -36q-20 -32 -21 -43q0 -5 3 -14t-0.5 -13.5t-18.5 -8.5q-4 -1 -5 4t-3 20q-1 5 -1 7.5t-0.5 7.5t-1.5 9q-6 42 1.5 71t21.5 42t36.5 17.5t41.5 2.5t43 -9t33 -10.5t18 -7.5q2 -1 17 -7t27 -11.5t25.5 -12.5t19.5 -13t3 -11 q-10 -14 -10 -90q0 -3 -4 -10.5t-4.5 -13t3.5 -18.5l8 -19q4 -9 0 -31t0 -26q5 -7 6 -15.5t0 -24.5t-1 -20q0 -26 12 -48t24 -20l31 3q27 1 64 42.5t18 93.5q-5 14 -14.5 37t-18.5 43t-18 44t-13.5 44t-3.5 40t9 34q24 45 23.5 85.5t-20.5 49.5q-16 6 -64.5 10.5t-69.5 19.5 q-15 11 -40.5 18t-52.5 8.5t-51 -1t-38.5 -12t-13.5 -22.5q4 -34 -33 -56t-71 -14q-25 6 -37.5 -4.5t-12.5 -34.5t4.5 -49t14.5 -58q5 -20 -4 -38t-24 -30.5t-32 -30.5t-23 -34q-27 -56 -24 -112t47 -60q45 -3 103.5 -53.5t65.5 -77.5q4 -14 24 -29t33 -15q34 0 42 -9 q4 -3 -5 -7q-19 -7 -48 -12q-11 -1 -55 17t-69 10q-22 -6 -39.5 4.5t-28.5 27.5t-28.5 36t-35.5 26q-47 17 -68.5 69t-18 102.5t20.5 78.5q1 2 8.5 13t13 19.5t15 25t14 29.5t11 33t6 35t-1.5 37q-9 57 -9 99t12 76t44.5 46.5t84.5 1.5q35 -7 76.5 1.5t88 25t65.5 20.5 q45 13 125 2.5t115 -41.5q35 -30 41.5 -106t8 -146t22.5 -86zM444 241q-14 -1 -21.5 -6.5t-16 -18.5t-12.5 -18q-6 -14 -2.5 -23t13.5 -27t12 -25t0.5 -14l-3 -14t-3 -12t1 -8t8.5 -2q12 1 36.5 -12t31.5 -14q15 -1 38 8.5t30 24.5q5 9 -9 31.5t-14 28.5q0 5 -8.5 21t-10 27 t9.5 29q12 15 -41 21q-22 3 -40 3z" />
<glyph unicode="A" d="M529 281q-5 -12 -1.5 -29t9.5 -55t4 -64q-2 -19 -40 -59.5t-65 -50.5q-40 -16 -65 -18q-14 -2 -10 6q7 15 40 35q1 1 3 2q16 10 29 40.5t7 50.5q-10 32 -4 53.5t19 32.5t21 21.5t1 20.5q-5 7 -20 18.5t-20.5 25.5t0.5 40q1 2 6 14t6 19.5t-5.5 21t-24.5 27.5 q-12 12 -2 20q17 14 16.5 23.5t3.5 31.5q5 15 -1.5 35.5t-26.5 55.5t-24 43q-16 31 -29.5 40t-38.5 11q-19 1 -37 -20.5t-23 -39.5q-1 -8 -20 -32t-25 -40q-1 -4 -3.5 -10.5t-3.5 -9t-2.5 -8t-2 -10.5t-1 -14t-0.5 -21q1 -28 19 -51.5t41 -25.5q42 -4 116 14q5 3 9 4t7 -1 t2 -9q-1 -11 -43 -43t-58 -37q-10 -2 -35.5 15.5t-42.5 10.5q-32 -17 -42 -58q-1 -12 3.5 -39t4.5 -33q0 -5 -2.5 -21.5t-0.5 -25.5q1 -7 19 -29t24 -35q11 -21 27 -65q8 -21 2 -60q-1 -7 -5.5 -13.5t-9.5 -6.5q-13 0 -34 47q-9 22 -21 33t-28.5 19t-24.5 15q-6 6 -22.5 54 t-34.5 56q-26 11 -41.5 33.5t-16.5 37.5q0 2 -0.5 11.5t0 14.5t3 13.5t8.5 16.5t37.5 22.5t41.5 22.5q11 8 16.5 24.5t6.5 30.5l2 13q1 5 4.5 10t4.5 9l3 18q4 17 8.5 36t10.5 32q3 6 23.5 55.5t32.5 63.5q20 19 57 41t62 20q45 -2 94 -47q1 -1 7 -6.5t10 -10t9 -11t8 -14.5 t3 -16q0 -16 10 -29.5t21.5 -25t14.5 -18.5q4 -10 7.5 -42.5t12 -58t26.5 -35.5q17 -12 6.5 -62.5t-32.5 -70.5z" />
<glyph unicode="B" horiz-adv-x="621" d="M229 791q10 0 18 -5.5t22 -17.5t32 -22q24 -12 38 -8.5t32 -1t37 -27.5q7 -9 16 -19.5t12 -14.5t8.5 -10t7.5 -7.5t8 -5t10.5 -5l13.5 -4.5q16 -4 11 -25t-15 -40t-18 -28q-11 -13 -27 -41.5t-23 -35.5q-6 -7 8 -17.5t38 -23t31 -18.5q3 -3 17.5 -20t31 -27t38.5 -12 q32 -5 35 -35q2 -18 -5 -45t-18 -39q-9 -9 -33 -38.5t-29 -34.5q-2 -2 -24.5 -40t-37.5 -48q-60 -45 -89 -53q-10 -3 -41.5 -7.5t-71.5 -8.5t-51 -6q-16 -3 -25.5 10t-17.5 36.5t-16 33.5q-9 12 -30 30t-38 42q-18 24 -17 48.5t-4 47.5q-6 17 -30 51t-23 50q1 22 9 94.5 t13 96.5q6 29 26.5 73t39.5 61q15 14 25 14.5t19 10.5q11 12 14.5 33t7.5 25q7 8 34 22t31 12zM231 638q-6 0 -17 15t-25 13q-24 -4 -59 -36t-39 -63q-5 -32 15.5 -92.5t42.5 -86.5q5 -6 18.5 -21.5t22 -25.5t19.5 -24.5t17.5 -26.5t8.5 -22q4 -19 -9.5 -53.5t-11.5 -47.5 q5 -25 23 -67.5t37 -42.5q31 0 59 15.5t43.5 33.5t33 41t23.5 29q2 2 10 9t10 9t8 8.5t7.5 9.5l4.5 9t3.5 11t0.5 11.5t-1 13.5q-5 29 -43 91t-61 77q-29 17 -85.5 5.5t-62.5 -31.5q-7 -23 -30.5 -14t-19.5 29q4 19 16 28t23 9t26.5 -2t20.5 -1q31 5 56 26.5t37 47.5t18 46 t5 27q-1 11 -5.5 26t-19.5 32t-38 17q-29 0 -53.5 -15.5t-28.5 -16.5z" />
<glyph unicode="C" horiz-adv-x="624" d="M504 547q2 -6 2.5 -11.5t1.5 -9t5 -7.5q6 -7 11 8q3 11 -1 23q-4 8 2.5 22t3.5 27q-2 12 -12 20.5t-29 21.5t-34 28q-24 26 -68.5 27t-94.5 -8q-34 -3 -55.5 -10.5t-28.5 -14.5t-13 -13.5t-11 -7.5t-23 4.5t-48 2.5q-25 -3 -40 -13t-21.5 -20t-24.5 -43 q-15 -29 -16 -69.5t7 -93t8 -56.5q3 -55 17.5 -102.5t28.5 -53.5q23 -10 46.5 -37.5t25.5 -44.5q0 -3 5 -25.5t5.5 -26.5t-0.5 -19q-1 -2 -18.5 -19.5t-12.5 -28.5q6 -14 30 -24.5t45 -6.5q22 4 37 21.5t21 17.5q87 0 143 36q9 6 35.5 28.5t50 41t30.5 19.5q20 3 36 -2.5 t27 -13t16 -8.5q17 -2 20.5 22.5t-8.5 37.5q-13 17 -41 76t-24 68q5 8 -7 18t-19 3q-12 -16 2 -32q14 -15 -3 -49.5t-38 -34.5q-12 0 -62.5 -10t-61.5 -17q-8 -4 -12 -27t-15 -50.5t-36 -41.5q-23 -16 -50.5 -12t-40.5 36q-3 7 -16 36.5t-15 36.5q-1 3 -9 34.5t-13 40.5 q-3 17 -3.5 19t7 18.5t12.5 31.5q23 70 6 136q-4 16 2.5 31t17.5 20q9 3 41.5 3.5t52.5 19.5q4 4 13.5 39.5t17.5 39.5q17 9 34.5 24.5t29 24t21.5 6.5q23 -3 47 -25t34 -37.5t27 -44.5z" />
<glyph unicode="D" horiz-adv-x="521" d="M58 674q-3 0 -15 5t-23 1q-9 -3 -9.5 -15.5t4.5 -16.5q8 -9 17 -68q2 -17 17 -61q2 -4 13.5 -22.5t26.5 -41.5t19 -29q7 -4 6 -39.5t0 -38.5q2 -9 -15 -43.5t-15 -57.5v-3q-1 -3 -1 -7.5t-0.5 -11.5t-0.5 -15t0.5 -17.5t2 -20.5t3.5 -21.5t5.5 -23t7.5 -23.5 q10 -25 12.5 -38.5t1.5 -18.5t-8 -14t-11 -17q-6 -11 6 -27.5t25 -3.5q21 21 80.5 17.5t71.5 7.5q6 6 11.5 16t11 15.5t14.5 7.5q5 1 32 4t46.5 7t23.5 10q5 7 10.5 45t17.5 45q37 22 47 50t-5 88q0 2 -2.5 10t-2.5 11v9t3.5 10t9.5 8q18 9 14.5 44.5t-15.5 75t-36.5 73.5 t-50.5 40q-48 12 -80 32t-46.5 36.5t-45.5 31.5t-80 19q-13 2 -50 -11.5t-48 -12.5zM112 604q14 8 17.5 9t22.5 0q9 -1 17.5 0t19.5 -2t19 -12t18.5 -39.5t21.5 -37.5q20 -14 64 -30t66 -7q19 6 48.5 -17t41 -52t-7.5 -51q-7 -6 -10 -16.5t-2.5 -19.5t1.5 -21t1 -14 q0 -24 -10 -40.5t-24.5 -26t-29 -18.5t-24 -25t-8.5 -39q1 -24 -38 -56t-87 -30q-21 1 -30 24t-10.5 55.5t-2.5 35.5q-15 56 16 78q3 2 5 9.5t2 17.5v19.5t-0.5 21t-0.5 16.5q0 20 -11.5 43.5t-21.5 36.5t-34.5 39.5t-27.5 29.5q-22 25 -26 68q-2 28 25 51z" />
<glyph unicode="E" horiz-adv-x="616" d="M586 679q7 3 13 -2t6.5 -13.5t-4.5 -18.5q-5 -8 -11 -9.5t-20.5 -2.5t-31.5 -7q-16 -5 -41 -29t-49 -19q-22 5 -47 21.5t-43 18.5q-2 0 -21.5 5t-37 8.5t-39 0t-33.5 -15.5q-7 -9 -15.5 -26.5t-15.5 -24.5q-18 -25 -14 -36t13.5 -27.5t5.5 -30.5q-5 -14 -18 -23 q74 2 97 27q38 39 69 -6q16 -26 -29 -52.5t-71 -20.5q-19 6 -46 6.5t-35 5.5q-6 -30 2 -49q15 -33 17 -100q0 -11 -8 -27t-14.5 -30.5t-8 -31t14.5 -34.5t50 -34q14 -6 26 -13t15.5 -9.5t13 -4t18.5 4.5q4 2 27 25.5t51 44.5t50 21q61 0 101 -5q1 0 4 -1l4.5 -1.5t4 -1.5 t3.5 -2t2 -2.5t1 -4t-1 -4.5q0 -1 -20 -16t-14 -33q5 -15 -12 -37t-40 -30.5t-44 5.5q-16 10 -24.5 7t-23 -12.5t-23.5 -9.5q-11 -1 -32.5 -10t-40.5 -8t-40 19q-17 12 -31 9.5t-23 -11.5l-9 -10q-18 -25 -29 -28.5t-40 1.5q-18 2 -33 11t-20 14t-16 20q-36 46 11 84 q3 7 11.5 18t14.5 18t9 16.5t-5 14.5q-39 35 -29 119q1 4 -0.5 9.5t-1.5 8.5l-4 10q-3 11 -5.5 22t0 21.5t11.5 13.5q51 16 72.5 35t21 41t-5.5 44t1 51.5t32 56.5l1 1v1l1 1q16 17 22 28t5.5 15t-8.5 12t-10 12q-6 12 -3.5 17.5t11.5 8t18.5 2.5t18 1t10.5 4q9 20 33.5 14 t47.5 -21.5t50.5 -31t40.5 -13.5q7 1 27 9t43 13.5t42 2.5q17 -2 36.5 -6.5t23.5 -5t17 1.5z" />
<glyph unicode="F" horiz-adv-x="567" d="M532 689q-6 -7 7 -17.5t18 -20.5t-26 -32q-16 -10 -33.5 -7t-29.5 9.5t-16 10.5q-9 12 -26 18.5t-37.5 8t-37 1t-33.5 -2t-19 -1.5q-22 0 -54.5 -12.5t-60.5 -13.5q-18 0 -29 6q-10 3 -2 -10q3 -6 10 -14q8 -10 30 -29.5t28 -26.5q13 -16 13 -30.5t-8 -24t-18 -23 t-12 -24.5q-2 -13 -16 -26q45 10 65 35q11 13 39 14.5t55.5 -7.5t43.5 -29.5t4 -46.5q-16 -16 -36.5 -13.5t-47.5 7.5t-35 0q-62 -40 -98 -10q0 -23 12 -39q15 -20 -5.5 -74t-17.5 -66q3 -13 18 -27.5t29 -26t22 -37.5t0 -61q-15 -70 -125 -47q-33 7 -59.5 29t-9.5 49 q8 13 48 39q27 18 18 26q-2 2 -5 4q-59 30 -59 112q0 5 -5 17l-4 6q-4 7 -8 15t-7 17t-1 17t10 11q48 20 74 41t30.5 39t2 38.5t-10.5 40t-7.5 42.5t10.5 46q18 33 -12 93q-12 8 -19 11q-18 7 -35 10.5t-24 6.5t-12 12q-7 14 3 26t21 5q8 -5 18.5 -5.5t33 1t41.5 1.5 q23 0 48.5 -9t49 -20.5t30.5 -13.5q15 -4 49 6t64 22.5t60.5 14.5t37.5 -19q2 -4 37 -11q30 -7 30 -17q0 -6 -9 -14z" />
<glyph unicode="G" horiz-adv-x="631" d="M562 587q2 -6 2.5 -11.5t2 -9t5.5 -7.5q8 -7 13 8q3 11 -2 23q-4 8 3.5 22t4.5 27q-3 12 -15 20.5t-33.5 21t-37.5 28.5q-23 21 -52 33t-66 10t-70 -24q-16 -10 -26 -22.5t-13 -21.5t-8 -16t-12 -8q-6 -1 -26 4.5t-55 2.5q-30 -3 -47.5 -13.5t-23.5 -19t-28 -43.5 q-31 -50 -51 -107t-17 -90q4 -54 20.5 -102t31.5 -54q27 -10 54 -37.5t30 -44.5q2 -10 6.5 -39.5t6.5 -36.5q9 -24 81 -50t132 -26q29 0 43 12.5t16.5 28.5t16 35t40.5 29q14 10 11.5 30.5t-9 48.5t-3.5 33q9 22 39 45t58.5 40t32.5 22q13 16 -8.5 36.5t-35.5 6.5 q-16 -16 -97.5 -21.5t-113.5 10.5q-11 6 -30.5 -4t-15.5 -34q6 -35 41 -25q32 9 74 -5q33 -11 24 -27q-1 -1 -32 -30.5t-32 -44.5q-6 -76 -78 -81q-9 -1 -24.5 -3.5t-24.5 -3t-20.5 1t-20 9t-14.5 20.5q-35 70 -36 73q-2 5 -11 35.5t-14 39.5t9 27t25.5 38t0.5 36 q-23 35 -22.5 55.5t8.5 35.5t4 29q-5 17 2.5 32t20.5 19q10 3 47.5 3.5t60.5 19.5q5 4 15.5 31.5t19.5 31.5q20 9 40.5 24.5t33.5 24t24 6.5q27 -3 54 -24.5t40 -38.5t31 -44z" />
<glyph unicode="H" horiz-adv-x="586" d="M206 284q15 6 31 4.5t29 -6t31 7t37 42.5q11 19 37 -14q25 -32 27 -61q1 -22 -2 -36t-10 -27.5t-9 -20.5q-1 -4 -7 -21.5t-9 -29t-5.5 -27.5t-0.5 -29.5t9 -22.5q16 -21 37.5 -32.5t37.5 -10.5t20 12t-4.5 33.5t-20 41.5t-16.5 38t7 24q21 10 33 25t16 27.5t2 31t-4.5 28 t-8.5 25.5q-7 21 -8.5 30t6 25t29.5 35q9 7 39.5 23t36.5 24t8 17t2.5 14t-1 14.5t-1.5 10.5q-1 15 -16.5 37t-42.5 33q-19 7 -37.5 54t-25.5 52q-9 7 -25.5 14t-29 17.5t-22.5 30.5q-22 47 -37 47q-4 0 -9 -7t-5 -14q-2 -40 5 -60q6 -16 30 -64q6 -13 25.5 -33.5 t20.5 -27.5q3 -2 1 -23t-2 -24q0 -5 6.5 -32t4.5 -39q-5 -41 -39 -60q-16 -8 -42.5 8t-36.5 13q-7 -2 -23 -21t-31 -33t-23 -6l-2 3q-1 1 -8.5 26t-17.5 56t-17 43q-2 3 -5.5 10l-4.5 9t-3.5 7.5t-3 8.5t-1.5 8t-0.5 9.5t1.5 10t3 12.5q3 12 12 32q9 21 2 21q-3 0 -12 -3 q-11 -5 -20.5 -20.5t-14 -30.5t-10 -37.5t-7.5 -27.5q-5 -16 1.5 -62t10 -76.5t-12.5 -50.5q-2 -2 -22.5 -16.5t-29.5 -23.5t-23.5 -25t-20 -35t-4.5 -40q1 -14 27.5 -51t46.5 -68t8 -39q-32 -22 -34 -48q-2 -23 30 -23q22 0 39.5 8.5t25.5 29t-15 54.5q-9 14 -0.5 20.5 t26 18.5t24.5 33q6 16 -4 40.5t-23 43t-17.5 37t12.5 24.5q26 11 31.5 29.5t18.5 25.5z" />
<glyph unicode="I" horiz-adv-x="287" d="M50 908l8 -7q13 -8 41 -8q16 0 27 -9.5t10 -19.5q0 -3 -3 -13.5t-2 -20.5q2 -13 -5 -29t-17 -21q-6 -1 -8 -2.5t-7.5 2.5t-8.5 7t-9.5 9t-11.5 11q-6 5 -11 12.5t-8 15.5t-4.5 14t-3.5 13.5t-2 8.5q-1 3 -6 11t-7.5 14.5t-0.5 10.5q3 4 8 4t11.5 -1.5t9.5 -1.5zM85 699 q0 5 2 9.5t7 7.5t15 -7q14 -13 28 -35.5t16 -34.5q1 -12 0.5 -13.5t-2.5 -19.5t-3 -42q-2 -43 12.5 -63.5t54.5 -40.5q56 -27 62 -82q2 -11 -5.5 -39t-20.5 -68t-16 -50q-7 -27 -36.5 -69.5t-50.5 -65.5q-44 -49 -64 -53q-10 -2 -18 -7t-20 -18l-13 -13q-9 -5 -11.5 -3.5 t-5.5 9t-6 9.5l58 175q6 18 6.5 34.5t-1 25.5t-9.5 20t-9.5 12.5t-10.5 9.5q-28 30 -25 43q1 4 3 6t7.5 3t9 1.5t13.5 0.5h15q8 0 12 0.5t7.5 2t4 3t4 6t5.5 7.5q7 9 -2.5 27t-17.5 21q-13 4 -51 28q-15 9 9 19l7 2q36 12 54 27q7 6 9.5 25t1.5 37.5t0 32.5q1 8 -1.5 24 t-6 29t-9.5 35.5t-8 31.5z" />
<glyph unicode="J" horiz-adv-x="467" d="M41 209q14 3 29.5 -5t24.5 -23q6 -10 9.5 -15t8.5 -8.5t7 -4.5t10 -3.5t12 -3.5q10 -3 14 -7.5t12 -12.5t23 -17q11 -6 19 -7t14 3.5t9.5 9t8 12.5t6.5 11q13 20 -2 53q-4 7 -13 53q-10 52 0 85q3 9 15.5 61t18.5 68q6 17 -1.5 73t-6.5 64q3 15 17.5 45.5t22.5 40.5 q9 10 39 23.5t41 9.5q6 -2 10 -2.5t6 0.5t6.5 3.5t8.5 4.5q11 5 14 -4.5t-1 -20.5q-2 -6 -3 -8.5t-4 -4.5t-5.5 -3t-10.5 -4q-7 -3 -10.5 -23.5t-7.5 -47t-11 -38.5q-2 -3 -13 -16t-15 -22t-10.5 -32t0.5 -46q4 -24 -19.5 -54t-28.5 -45q-8 -28 2.5 -47.5t30.5 -27.5 q29 -12 84 -14q15 0 23 -15t14 -39t13 -35q4 -11 4.5 -19t-7 -18t-13.5 -16t-13.5 -12.5t-9.5 -8.5q-7 -7 -36.5 -17t-31.5 -11q-74 -42 -96 -56q-32 -20 -64 -4q-5 2 -36 21.5t-43 21.5q-7 1 -14 4.5t-11 6.5t-15 10.5t-15 10.5q-33 22 -40 71q-3 23 1.5 34.5t9.5 13.5 t19 4z" />
<glyph unicode="K" horiz-adv-x="573" d="M219 248q-94 83 -49 106q24 14 36.5 9t16 -16t3.5 -35q0 -21 17 -32.5t35.5 -16.5t20.5 -10q5 -22 35 -71q4 -6 11 -43t26 -67q23 -38 77.5 -46t83.5 15q28 19 30.5 69t-9.5 91.5t-22 51.5q-10 9 -21.5 -12.5t-23.5 -46t-35 -27.5t-55 42q-1 2 -10.5 18.5t-19 31.5 t-26 32t-33.5 25q-14 7 -19 15.5t-8 30.5l-7 37q-3 19 8.5 29t33 19.5t32.5 19.5q13 13 14.5 37.5t9.5 28.5q6 3 42.5 14t49.5 22q7 7 27.5 24t31.5 28q16 18 33 60q2 5 0 14.5t-8 11.5q-13 6 -57 -31q-24 -22 -72 -29t-50 -8q-4 -2 -20.5 -6.5t-28 -9t-24.5 -12t-18.5 -19 t-2.5 -25.5q4 -12 -20 -70t-34 -65q-62 -57 -86 -26q-18 22 -4 58q7 21 22 29q9 4 6 49t-14 66q-4 6 -15 17.5t-18 20.5t-5 14q3 14 4.5 21.5t-4.5 14t-10.5 9t-12.5 6t-11 5.5t-6 2.5t-5.5 -1t-4 -3t-3.5 -5t-3 -5t-3 -6t-3 -5.5q-4 -18 -12.5 -71.5t-13.5 -67.5 q-14 -39 -5.5 -73t25 -54.5t32 -41.5t14.5 -35q-1 -32 6 -53t16.5 -29.5t20 -20t13.5 -23.5q10 -28 0 -57t-34 -29q-40 0 -50 -32t1 -64.5t21 -34.5q60 -14 88 3q9 6 27.5 16t30 18t17.5 15q4 5 10 13.5t8 11t6 9t4.5 9t2 8t0.5 9.5t-2.5 11t-4 13.5t-6.5 16.5 q-13 31 -25 56.5t-15 31.5z" />
<glyph unicode="L" horiz-adv-x="615" d="M586 120q1 -1 4 -2.5t4.5 -2.5t4 -2.5t3.5 -3t2 -3.5t0.5 -4.5t-2.5 -4.5q-2 -4 -15.5 -8.5t-23.5 -13t-8 -23.5q0 -8 1 -13.5t-2 -10.5t-3.5 -7t-5 -5l-6 -4t-6 -3t-6.5 -3q-18 -7 -50 -6.5t-42 6.5q-4 3 -16.5 17t-24.5 24q-23 21 -71 28q-50 6 -91 -9 q-5 -2 -25.5 -16.5t-45.5 -23.5q-13 -5 -25 -10.5t-17 -7.5t-14 -1.5t-25 4.5q-20 6 -34.5 19.5t-18 20t-12.5 24.5q-10 21 1 70q13 38 29 61q12 61 13 73q1 14 7.5 33.5t12.5 35.5t7 18q1 4 1.5 7t0 6t0.5 7l-1 12q-1 11 -1.5 23.5t4.5 24t15 12.5q8 1 11 5.5t1.5 11 t-4.5 13t-6.5 14.5t-4.5 13q-1 10 1 18.5t4.5 13.5t8 11.5t6.5 8.5q9 15 34 28.5t52 3.5q26 -9 30.5 13t-2.5 49q-1 8 -1.5 11.5t-1 9.5t-0.5 9t0.5 6.5t2 5.5t3.5 2q11 1 29 -1.5t33.5 0.5t34.5 16q43 29 55 23q5 -3 6 -12.5t-4 -13.5q-18 -36 -34 -49q-9 -8 -22 -25 t-22 -24q-23 -17 -22.5 -36t9 -33t-0.5 -34q-8 -14 -21.5 -20t-16.5 -15q-2 -5 -7 -36t-14 -44q-12 -19 -21 -29t-16 -15t-26 -19t-41 -32q-11 -10 -18 -17t-11 -14t-5 -10.5t-2.5 -12t-2.5 -13.5q-2 -11 -2 -33q0 -1 3.5 -9.5t6.5 -14.5t8 -16.5t11.5 -17.5t14.5 -16 t18.5 -14t23 -8.5t28 -3t32.5 5.5q10 3 32 9.5t37.5 10.5t24.5 3q5 -1 57.5 8.5t83.5 3.5q70 -14 109 -27z" />
<glyph unicode="M" horiz-adv-x="648" d="M609 263q-3 -48 -1 -61q6 -33 -7.5 -47t-13.5 -39q1 -40 -43 -53q-37 -12 -57 6q-8 6 -8 15q-1 21 16.5 28t37.5 11.5t23 16.5q6 19 -7 41.5t-24 46.5t-2 47t10.5 41t-4.5 37t-15 35.5t-26 41.5q-9 13 5.5 53.5t0.5 56.5q-16 19 -33.5 -9t-32.5 -73l-14 -46 q-33 -65 -62 -85q-20 -13 -26 11q3 16 -15 28.5t-45.5 32t-40.5 45.5q0 1 -11.5 49.5t-27 81.5t-30.5 14q-6 -7 -14.5 -26t-18 -52.5t-5.5 -83t25 -100.5q8 -19 2 -36.5t-16 -26t-13.5 -20t10.5 -19.5q19 -14 21 -38.5t-7 -63.5t-10 -51q-1 -21 -22 -59q-8 -16 -23 -12 q-15 5 -13 61q0 24 -7 39.5t-20 30t-18 23.5q-21 45 -16 79q2 13 11 30t8 26q0 1 -1.5 11.5t-1 15.5t3 14.5t8.5 17.5q13 20 34 40q8 8 8 21t-4.5 25t-10.5 28.5t-7 27.5q-8 52 26 107l2 4q6 14 12 51t19 49q16 11 24 0.5t19 -24t21 -7.5q19 10 45.5 -8.5t50.5 -48.5l25 -29 q8 -7 21.5 -65t13.5 -76q5 -51 35 -12q16 20 30 55q5 13 13 120q8 114 29 114q3 0 6 -2q10 -5 18.5 -25t18 -34t25.5 -11q45 8 57.5 -9t3 -47t-12 -61t12.5 -50q12 -11 34.5 -64t25.5 -57q6 -16 1 -33t-15.5 -39t-10.5 -26z" />
<glyph unicode="N" horiz-adv-x="627" d="M90 21q-8 -16 -22 -12q-14 5 -13 58q0 23 -6 37.5t-18.5 28.5t-17.5 23q-6 13 5.5 40t12.5 35q2 15 -7 45t-9 34q0 1 -1.5 11t-1 15t2.5 14t8 17q18 24 32 37q17 15 21 30t0 41q-7 49 25 102l3 4q5 11 10.5 47t18.5 48q15 11 22 0.5t17.5 -23.5t20.5 -7q18 10 41.5 -14 t43.5 -58t22 -35q5 -4 19.5 -27.5t21.5 -28.5q19 -15 24.5 -46t2 -61t0.5 -64.5t21 -55.5q18 -22 24.5 -47t4.5 -41t3.5 -27.5t24.5 -12.5q11 -1 16 6t5 17.5t3.5 22.5t11.5 18q19 18 11.5 68t-20.5 61q-15 15 -17.5 53.5t-8.5 50.5q-22 53 -15.5 77.5t19 56.5t7.5 55 q-6 24 9 41.5t36.5 25t40.5 16.5t19 17q1 27 20 59q13 22 18 4q0 -2 5 -12.5t8 -26t3 -37.5q0 -15 -17.5 -31t-27.5 -35.5t0 -78.5q16 -68 9 -106.5t-40 -74.5q-7 -8 -8.5 -22t-1.5 -40t-3 -47q-2 -18 2.5 -48.5t6 -47.5t-9.5 -42q-23 -38 -27 -73q-3 -34 -8 -39 q-14 -14 -59.5 -10t-56.5 20q-23 34 -66 54q-2 1 -10.5 3.5t-14 5.5t-13.5 9.5t-15 18.5t-14 30q-2 5 13.5 56t21.5 59q3 4 -0.5 44.5t1.5 63.5q18 63 -18 128q-2 5 -6.5 12.5t-12.5 20t-17.5 22.5t-19 17.5t-19.5 7t-18 -9.5q-13 -16 -27.5 -78.5t-23.5 -75.5 q-14 -20 -16 -31t3 -15.5t15.5 -17.5t17.5 -31q11 -26 4.5 -51.5t-1.5 -45.5q4 -16 -11.5 -70.5t-16.5 -74.5q-2 -18 -22 -56z" />
<glyph unicode="O" horiz-adv-x="515" d="M226 12q-3 -2 -24.5 9.5t-28.5 18.5q-3 3 -6 21t-12 28q-8 8 -34 16t-38 18q-16 15 -33 52t-21 60q-4 18 -11 78t-8 79q0 19 7 56.5t15 60.5q3 8 6 15.5t5.5 12t7.5 12t7.5 11t10 13.5t11.5 15q14 20 32 42t24 30q13 18 47 31t57 10q17 -3 41 -20t30 -19q32 -11 74 -44 q11 -8 29.5 -39t20.5 -33q6 -5 26 -29.5t25 -30.5q9 -11 15 -34t4 -37q-1 -20 -28 -27q-13 -4 -39 -18t-37 -24q-63 -51 -52 -62q2 -3 8.5 -9t9.5 -10t8 -14.5t8 -24.5q1 -4 6.5 -19.5t9.5 -30.5t2 -27q-1 -4 -1.5 -10t-1 -8t-1.5 -7t-3 -8l-6 -9t-9 -12.5t-13 -15.5 q-17 -20 -24.5 -25.5t-18.5 -8.5t-24 -10q-44 -24 -73 -23zM196 154q5 -1 19 -13.5t37 -12.5q28 0 45.5 25t14.5 36q-3 29 -47 39q-4 1 -13.5 2t-14 2.5t-10.5 10.5t-9 25q-2 11 4 23t15.5 21.5t25.5 21.5t26.5 18t26 15t17.5 10q18 12 37.5 40t24.5 52q3 15 -2.5 27.5 t-10.5 17t-23 21.5q-6 5 -9.5 18.5t-8.5 27t-14 26.5t-31.5 20t-55.5 6q-16 -1 -36.5 -38t-24.5 -54q-3 -11 8.5 -39t8.5 -43q-2 -10 -11 -24.5t-17.5 -25t-23 -27t-19.5 -22.5q-18 -21 -32.5 -65.5t-10.5 -70.5q4 -28 23.5 -59t35.5 -34q11 -2 27.5 10.5t27.5 12.5z" />
<glyph unicode="P" horiz-adv-x="544" d="M203 52q3 -23 -0.5 -35t-12.5 -13.5t-18 0.5t-23.5 7t-22.5 6q-16 3 -21 18.5t-5 40t-5 36.5t-20 36.5t-24 52.5q-6 19 2 47.5t8.5 52.5t-24.5 43q-23 18 -26.5 56t6.5 56q3 8 12.5 38t18.5 55.5t16 38.5q13 25 46.5 61.5t57.5 47.5q17 8 27.5 5t21.5 5q14 8 24 27t15 22 q10 5 39.5 10.5t32.5 1.5q10 -2 15.5 -9t16 -23.5t24.5 -31.5q14 -14 32 -18.5t32.5 -13t25.5 -36.5q5 -12 10.5 -27t8 -19.5t5.5 -11.5t7 -10t8.5 -7t14.5 -11q17 -12 -6.5 -41t-43.5 -42q-9 -5 -29 -35.5t-44 -49t-51 -6.5q-30 24 -72 19t-55 -23q-15 -19 -34.5 -3.5 t-9.5 33.5q13 23 30 25.5t38 -7.5t25 -11q31 -4 57.5 12t42 43t23 44.5t10.5 27.5q0 9 2 26t-8 37.5t-31 27.5q-24 10 -55 2.5t-34 -7.5q-5 1 -10.5 19t-21.5 20q-24 3 -66.5 -17t-56.5 -47q-14 -32 -13 -94.5t14 -95.5q7 -16 55 -69t46 -72q-3 -18 -26 -47t-24 -43 q-3 -25 1.5 -71.5t21.5 -52.5z" />
<glyph unicode="Q" horiz-adv-x="614" d="M215 738q4 -4 43.5 -8t51.5 -13q15 -9 36 -4t51 1t47 -25q4 -5 26.5 -34.5t36.5 -49.5t19 -33q8 -22 25.5 -89.5t21.5 -88.5q4 -18 3 -63.5t-7 -75.5t-13 -46.5t-28 -49.5q-5 -9 -20 -20.5t-25 -20t-16.5 -23.5t4.5 -31q3 -5 13.5 -26.5t16.5 -31.5t20.5 -23t31.5 -18 q46 -11 50 -27q2 -5 -4 -8q-42 -24 -64 -28t-27.5 4.5t-15.5 26t-24 26.5q-11 7 -16 38.5t-20 40.5q-13 8 -27.5 -1t-26 -22t-15.5 -13q-20 0 -50.5 15.5t-37.5 16.5q-22 4 -91 37q-15 8 -42 40.5t-30 34.5q-5 4 -32 28.5t-36 31.5q-13 10 -23 35t-11 42q0 10 3.5 17t9 11 t16.5 9q13 6 40 26t39 33q13 15 14 62t-13 79l-11 20q-12 19 -18 35.5t-6 30.5v15t0.5 12t3 13t8.5 18t16 28q24 38 37.5 46t32 2t33.5 -2zM320 636q-6 0 -24.5 12.5t-45.5 7.5q-31 -5 -46.5 -36t-10.5 -45q11 -30 18.5 -112.5t-8.5 -106.5q-20 -17 -38 -52.5t-19 -61.5 q0 -6 0.5 -11.5t2.5 -10.5t3 -8.5t5.5 -8t6 -6.5t8 -7t8 -6t10 -6.5t9.5 -6.5q6 -4 17.5 -18t23 -28.5t26.5 -29t29 -23.5t29 -7.5t27 15.5q3 3 -2.5 21t-19.5 34t-30 15q-12 -1 -23 7.5t-13 17.5t4 15q34 17 52 7t34 -30.5t19 -20.5q4 0 13.5 -2t11.5 0.5t5.5 13.5t4.5 36 q1 13 -17.5 43.5t-17.5 48.5q1 12 8.5 30t15.5 31.5t22 35t18 28.5q17 28 26.5 81t0.5 83q-10 31 -37.5 63.5t-46.5 32.5q-13 0 -29 -17t-30 -18z" />
<glyph unicode="R" horiz-adv-x="540" d="M17 52q-12 -14 -2.5 -31.5t25.5 -22.5q12 -4 38 1t37 11q29 12 33 17q8 9 8 32q0 6 2.5 16t1.5 16t-8 12t-7 9q0 4 12 14.5t22 16.5q9 6 18.5 19t8.5 19t7.5 14.5t15.5 11.5q4 2 13 -2.5t11 -2.5q11 9 32 0q15 -6 63 -81q6 -9 9.5 -22.5t15.5 -32t42 -45.5q34 -30 59 -39 q12 -4 29 7t32.5 26.5t17.5 16.5q5 2 6.5 5.5t-2 7t-10.5 4.5q-8 2 -25 10.5t-26 10.5q-10 4 -57 37q-20 12 -22 36t-5 26q-5 4 -10 11t-11 18t-8 14q-3 4 -9 8t-9 7t-2 7q1 6 -1 9.5t-7.5 5t-6.5 2.5q-3 2 3 14t13 18l8 8q8 8 11 12.5t6.5 13t2.5 17.5q-5 39 13 93 q5 16 5.5 26.5t-0.5 23t-1 19.5q0 18 -11 42.5t-25 36.5q-12 10 -26 48.5t-13 56.5q1 34 -31 86q-13 21 -47.5 24.5t-39.5 -3.5q-4 -2 -8 -12.5t-8.5 -24.5t-7.5 -20q-4 -7 -17 -14.5t-30 -15t-21 -10.5q-12 -6 -40.5 -32.5t-47.5 -50.5q-21 -24 -22 -81.5t20 -96.5 q15 -27 55 -122q6 -13 7.5 -32.5t0.5 -42t-1 -27.5q1 -22 -6.5 -58.5t-20.5 -38.5q-17 -2 -23.5 -9.5t-12.5 -22t-16 -24.5zM186 262q-4 1 -7 5.5t-4 8l-3 10.5t-2 8q-5 16 -2 22t7.5 25.5t4.5 25.5q0 14 -21 28q-11 5 -24 34q-14 25 -15 38q0 4 2 12t6 20t6 17q6 24 58 35 q20 5 49.5 -18t30.5 -23q8 -1 26.5 -16.5t19.5 -19.5q0 -2 10.5 -11t10.5 -16q0 -22 -12 -36t-1 -53q4 -7 1.5 -16.5t-3.5 -12t-7 -10t-8 -10.5q-4 -6 -18.5 -13.5t-31.5 -14t-21 -8.5q-11 -7 -27.5 -10t-24.5 -1z" />
<glyph unicode="S" horiz-adv-x="648" d="M12 99q9 -27 24.5 -35.5t34 7t31.5 55.5q5 16 12.5 18.5t19.5 -4.5t27 -17.5t41.5 -20t56.5 -11.5q23 -1 42 -16t33.5 -33.5t20.5 -22.5q11 -7 26 -13t41 -10t59.5 7t66.5 38q34 27 42 48.5t-1 46t-9 26.5q-2 13 19.5 28.5t33 28.5t-5.5 47q-9 14 -15 37t-12 35 q-5 9 -17 17.5t-19.5 12t-29 10.5t-24.5 8q-9 3 -20 8.5t-16.5 7.5t-19 3.5t-26.5 -2.5q-18 -4 -49.5 0t-51.5 11q-4 2 -48 32t-65 29q-20 -1 -27.5 -12.5t-17.5 -7.5q-18 7 -31.5 40t-11.5 54q2 25 14 33t25.5 3.5t30 -10.5t24.5 -5q8 2 14 11t9.5 19t13 17t24.5 5 q23 -2 40 3t20 5q19 1 56.5 -8.5t61.5 -9.5q20 0 31 7.5t23 22.5t27 24q8 5 13 8t9.5 5.5t7 5.5t4.5 4t3.5 4t2 4.5t2.5 6t3 6.5q4 10 0.5 19.5t-10 12.5t-13.5 -1q-6 -4 -17 -4.5t-26 0.5t-38 -1q-35 -2 -80 -10t-60 -14q-43 -18 -69.5 -21t-38 5.5t-18.5 18.5t-17.5 17 t-28.5 2q-24 -6 -31.5 -18.5t-6 -26t-10.5 -34t-42 -38.5q-17 -17 -14 -55.5t18 -73.5q11 -27 26 -37.5t40 -18.5q22 -7 36 -32t14 -45q0 -27 41 -45t81 -2q68 29 142 -56q22 -29 17.5 -69.5t-30.5 -77.5q-14 -20 -40.5 -28t-56.5 4q-14 7 -40 29t-46.5 35t-30.5 6 q-11 -8 -21 2.5t-17.5 27t-22.5 26t-38 -1.5q-1 -1 -15.5 -7.5t-24 -11.5t-25.5 -14t-26 -17t-20 -17.5t-13.5 -19.5t-0.5 -19z" />
<glyph unicode="T" horiz-adv-x="528" d="M583 762q6 5 13.5 1t10 -12.5t-0.5 -19.5q-7 -17 -12 -22t-34 -22q-15 -9 -27 -24t-22.5 -22.5t-31.5 -7.5q-23 0 -61 9.5t-56 8.5h-31q-8 -18 -9 -24q-2 -7 -19 -31t-21 -40q-1 -4 -3.5 -10.5t-3.5 -9.5t-2 -8.5t0 -11t3.5 -13.5t6.5 -19q9 -25 18 -45.5t12.5 -28.5 t6.5 -21t5 -34q1 -15 -9.5 -42.5t-11.5 -31.5q-1 -9 6.5 -21t7.5 -27t-15.5 -29t-23.5 -23.5t3 -39.5q4 -9 6.5 -29.5t6.5 -31.5q8 -19 6 -57q0 -7 -4.5 -13.5t-9.5 -6.5q-14 0 -35 44q-9 20 -21 29.5t-28 16.5t-24 14q-5 4 1.5 14.5t17 23.5t19 26t6.5 23.5t-20 13.5 q-26 5 -41 27.5t-16 38.5l-1 10q-1 10 -1 14.5t2 13.5t7 16q3 4 9.5 8.5t12.5 8.5t11 8.5t4.5 9.5t-6.5 10q-9 6 -6.5 18t7.5 21.5t12 18.5l7 9q1 4 4 9t4 9q6 55 18 83q4 9 18.5 50.5t24.5 56.5q-16 -2 -24 -4q-6 -3 -71.5 -3t-89.5 6q-22 5 -42.5 -6.5t-29.5 -2.5 q-24 26 51 52q22 7 89 24q35 9 110.5 10.5t95.5 8.5q18 6 62.5 14t77.5 10q23 2 38 1t26 -0.5t17 4.5z" />
<glyph unicode="U" d="M529 559q-9 14 -42 16.5t-38 -18.5q-3 -18 10.5 -62t12.5 -53q0 -4 -12 -58.5t-11 -62.5q2 -27 -19.5 -71t-46.5 -74q-23 -27 -83.5 -40.5t-98.5 4.5q-20 10 -30.5 35.5t-2.5 52.5q3 12 13.5 23.5t20.5 20t17 29.5t5 53q-1 14 13.5 35t31 41.5t25 54.5t-4.5 74 q-4 13 -12 66.5t-12 72.5q-2 3 -6 10t-6 9.5t-7.5 5.5t-10.5 -2q-3 -2 -11 -5.5t-12 -6t-10.5 -9t-5 -14t4.5 -21.5q3 -5 -4 -14.5t-18 -21t-15 -17.5q-11 -20 -13 -62t5 -53q4 -8 20.5 -25t26.5 -30q12 -16 -5 -38.5t-15 -37.5q2 -22 -19 -46t-46.5 -43t-28.5 -26 q-14 -30 -40 -90q-16 -36 -14 -49.5t24 -40.5q5 -6 8 -9q8 -11 75 -49q30 -19 88 -5q33 10 89 43q15 9 54.5 7.5t42.5 3.5q10 11 32 -1t33 -4q7 5 12 12.5t8.5 18.5t5 18.5t4.5 22t4 19.5q7 31 7.5 36t-1.5 43q-2 16 -19.5 65.5t-11.5 61.5q6 17 13.5 33.5t8.5 19t3 12.5 t-2 14q-3 14 7 39t16 43t-7 44z" />
<glyph unicode="V" horiz-adv-x="659" d="M48 725q5 -7 5.5 -13t-3.5 -13t-6 -9.5t-9 -10.5q-27 -33 -24.5 -93.5t18 -118t32.5 -82.5q3 -5 8 -58.5t29 -96.5q14 -25 30.5 -37.5t32 -17t20.5 -9.5q8 -7 10.5 -25.5t5.5 -26.5q4 -11 19 -16.5t29 -8t24 -18.5t7 -46q-3 -27 32 -29q40 -3 70 19q15 12 15 24 q0 13 -10.5 25t-9.5 24t26 34q9 8 17.5 17.5t15 18.5t12.5 18t10.5 17.5t8 16t6 13.5t4.5 10.5t3 7.5l1 3q6 12 -2 31t-18.5 34t-9 29.5t24.5 22.5q18 6 35.5 15t38 24.5t29.5 38t2 48.5q-9 30 -7 57.5t7 44.5t10 22q14 20 25 59q18 58 25 64q3 4 7 17t5.5 29.5t-9 29 t-32.5 12.5q-14 0 -17.5 -11.5t-1.5 -24.5t-4 -23.5t-24 -9.5q-70 6 -69 -20q1 -17 25 -26q10 -4 19 -4q3 0 8.5 -7.5t9.5 -21t1 -25.5q-10 -43 -35 -65q-11 -11 -26 -12.5t-26.5 -1.5t-29 -19.5t-35.5 -63.5q-14 -33 -29 -97.5t-1 -90.5q19 -34 -21 -77q-2 -3 -10.5 -15 t-15.5 -22t-18.5 -20.5t-21 -11t-22.5 6.5q-25 19 -57 106t-35 148q-1 20 -18.5 40t-38 33t-37.5 33.5t-18 42t20 57.5q30 48 26 65.5t-13 27t-3 15.5q28 30 0 46q-21 12 -41 0q-22 -16 -1 -49z" />
<glyph unicode="W" horiz-adv-x="779" d="M749 676q-2 -3 11 -39.5t8 -48.5q-6 -27 -23 -56q-3 -3 -11 -21t-18 -41t-13 -29q-23 -45 -27.5 -97t1 -76.5t-5.5 -45.5q-9 -11 -33.5 -18t-53.5 -33q-17 -16 -18 -34.5t6.5 -32t7.5 -27.5t-17 -23q-13 -7 -17 -17t-2.5 -17t-1 -12t-12.5 -5q-16 0 -22.5 5.5t-9 14.5 t-15.5 31t-36 47q-7 9 -7 26.5t-8 23.5q-5 4 -21.5 8t-25.5 8q-58 -25 -86 -42t-28.5 -22.5t-6 -9.5t-27.5 -8q-41 -5 -46.5 -1.5t-17.5 31.5q-2 5 -4.5 23.5t-10.5 25.5q-5 4 -20 9t-31 16.5t-29 34.5q-18 39 -8.5 66t23 51t9.5 31q-128 189 -76 245q11 13 21.5 40t1.5 40 q-26 39 1 49q26 8 56 -14q18 -14 23 -33q2 -10 -6.5 -29t-20.5 -39t-13 -21q-30 -61 -15.5 -96.5t43 -47t59 -27.5t31.5 -39q1 -16 2 -52.5t2 -61.5t3.5 -54.5t8 -48t14.5 -25.5q15 -12 48.5 10t63.5 61q-9 33 -24 71.5t-27 64t-20.5 48.5t-6.5 35t16 14q3 1 14 10 q36 24 39 7q-2 -5 -2.5 -10.5t1 -12t3 -12.5t6 -14.5t7.5 -14t9 -15t9 -14.5t10 -14.5t9 -13.5q2 14 11 20t20 6.5t26.5 5t27.5 15.5l30 28q21 18 20 -12q-2 -45 -29 -99l-2 -6q-3 -6 -7 -16t-9.5 -22t-13.5 -26.5t-17 -26.5q32 -56 62 -81q11 -7 15.5 -6.5t7 9.5t3.5 19 t5 21t11 16q44 30 20 74q-5 10 -7 65.5t4 71.5q23 54 36.5 72.5t29 22.5t26.5 14q3 3 25.5 15t26.5 30q7 29 0 67t-11 56.5t11 40.5q9 8 22.5 -2.5t18 -26t-5.5 -27.5z" />
<glyph unicode="X" horiz-adv-x="550" d="M512 749q25 -19 27.5 -64t-8 -82t-20.5 -46q-9 -7 -19.5 12t-20.5 40.5t-30.5 24.5t-50.5 -37q-2 -2 -10.5 -17t-17 -29t-23.5 -29t-31 -22q-13 -6 -17.5 -14t-6.5 -27q-3 16 -26 57q3 3 15.5 12.5t19 16t7.5 12.5q8 26 33 65q4 5 10.5 38.5t22.5 61.5q21 34 71 41 t75 -14zM284 459q13 -32 13 -40q2 -38 7.5 -64.5t14 -41t14 -21t15.5 -11.5l11 -5q4 -3 1.5 -18.5t4.5 -20.5q5 -4 35 -22t39 -31q3 -4 18 -24.5t22 -33.5q10 -19 16 -60q0 -20 -13 -21q-10 -5 -42 40q-17 25 -58.5 41.5t-42.5 17.5q-22 16 -44.5 51.5t-15.5 65.5 q4 11 -18 69.5t-31 64.5q-5 -34 -22 -49.5t-34.5 -20.5t-20.5 -9q-5 -7 1.5 -49.5t-4.5 -49.5q-11 -10 -12 -22t4.5 -23t12 -31t7.5 -40q1 -10 -19 -30.5t-22 -34.5q-4 -26 -19 -55q-1 -6 -9 -11.5t-12 -3.5q-13 8 -14 58q-1 24 -8 38t-20 26.5t-19 22.5q-11 14 -10 52.5 t19 53.5q16 12 22 25.5t6.5 26.5t2.5 16q0 1 3.5 13.5t9.5 21t17 14.5q5 2 21.5 5t24 8.5t1.5 16.5q-3 5 -2 10.5t3 9.5t7 9l9 9t10 7.5t9.5 6t7.5 4.5l4 2q14 13 26 28q-2 32 -14 39q-3 1 -21.5 -6t-32.5 -9t-24 14q-10 26 -24 38.5t-25 13t-21.5 3.5t-14.5 12 q-11 24 -6 63t19 49q23 20 69 -42l9 -15t14 -18t27 -21q19 -14 36.5 -14t26.5 8t19.5 11.5t16.5 -4.5q1 -1 -6 -22t-1 -34q15 -30 26 -57z" />
<glyph unicode="Y" horiz-adv-x="487" d="M105 469l54 17q9 2 26 -3.5t22 -5.5q11 0 12 -3.5t-3.5 -16.5t-4.5 -25q-1 -29 -20 -51q-4 -5 -20 -23t-24.5 -28.5t-17 -27.5t-8.5 -32t9.5 -54.5t19.5 -57.5q3 -5 29.5 -23.5t30.5 -36.5q2 -11 -2 -36.5t1 -39.5t27 -14q10 -10 19 3t4 21q-3 6 -8.5 12.5t-6.5 10t1 14 t10 29.5q4 11 7 22t4.5 21.5t2.5 19.5t0.5 17t-0.5 13.5t-1 9.5v4q0 17 -18.5 57t-17.5 47v29.5t5 28.5q6 7 31 21.5t26 17.5q8 29 57 47q11 4 11 27l1 22q1 2 10 5t21 10.5t24 20t20.5 38t8.5 59.5q0 1 8 11t15.5 22t6 27t-17.5 25q-14 8 -45.5 -18.5t-41.5 -42.5 q-4 -7 9 -42t-1 -42l-85 -65q-17 -13 -35.5 0t-38.5 35t-32 26q-10 3 -37.5 5.5t-47 9t-23.5 21.5q-8 27 -4 46.5t13.5 27t18.5 15t11.5 10.5t-8.5 15q-7 7 -52.5 5.5t-40.5 -19.5q15 -52 8.5 -71.5t-13.5 -36t0 -32.5q18 -42 45.5 -72.5t45.5 -25.5z" />
<glyph unicode="Z" horiz-adv-x="631" d="M92 627l-26 -70q11 -8 35 7t54.5 41t46.5 34q8 4 17 -4t19 -21t34.5 -27.5t58.5 -19.5q15 -2 26.5 9.5t19.5 27.5t29 30t51 16q35 1 35.5 -7.5t-22.5 -26.5q-5 -6 -8 -8.5t-8 -8t-9 -9.5q-11 -13 -28 -49t-30.5 -66t-34.5 -49.5t-44 -10.5q-46 19 -94 -2.5t-48 -51.5 q0 -24 -15.5 -52.5t-40.5 -36.5q-20 -6 -30.5 -11t-24 -18.5t-22.5 -35.5q-10 -25 -17 -55.5t-5 -59t17 -34.5q19 -8 24.5 -18.5t1 -20.5t-11 -20t-9 -19t4 -16t31.5 -11t71 -5q21 -1 32 9t14 22.5t16.5 24.5t40.5 16t85 -4q18 -2 71 1t92 9q19 3 43 9t29 6.5t21 -1.5 q14 -4 21.5 11.5t-3.5 31.5q-1 2 -4 5.5t-4 5t-3 4t-3.5 3.5t-4 2.5t-5 2.5t-6 3t-9 3.5t-11 3.5t-13.5 5q-19 7 -36.5 20.5t-31.5 19t-37 0.5q-24 -6 -64 -27.5t-63 -24.5q-1 0 -27 1.5t-45 -8.5q-14 -5 -20 -6.5t-7.5 0.5t-1.5 5t-3.5 6.5t-12.5 5.5t-41.5 -8t-52 -5.5 t-14.5 37.5q3 13 8 16.5t18.5 4t24.5 4.5q10 3 18 32t33 28t75 34t56 37q11 4 31.5 39.5t39.5 67t30 28.5q22 -6 37 15.5t28.5 49t28.5 32.5q8 3 30 9t33 10.5t22 15t12 24.5q0 2 10 30t0.5 53t-47.5 57q-18 15 -37.5 20t-33 2.5t-42 -9.5t-46.5 -10q-34 -5 -85 -7.5t-84 -4 t-38 -5.5q-7 -4 -24 -25.5t-39 -39t-49 -18.5z" />
<glyph unicode="[" horiz-adv-x="302" d="M194 -48q11 -11 27 -13.5t28.5 -0.5t23 -3t12.5 -21q2 -10 -5 -13.5t-21 -2.5t-29.5 2t-35 -3t-33.5 -14q-10 -7 -40 2t-43 1q-28 -15 -45 -2t1 54q20 42 25 86t-8 68q-6 14 -15.5 68t-20.5 79q-11 26 8 62.5t16 55.5q-1 6 -6 31.5t-5.5 40.5t9 40.5t32.5 47.5 q24 27 22 57.5t-15.5 56t-12.5 48t31 33.5q41 6 48 -6q7 -9 31 -9t51 4.5t29 4.5q25 0 33.5 -6.5t6 -13t-10.5 -17.5q-16 -23 -44 -25.5t-55 13.5q-23 12 -52 -10q-7 -5 -8 -22.5t1.5 -40.5t2.5 -25q0 -104 7 -115q12 -25 17 -39t3 -36t-19 -38q-20 -18 -22 -65t18 -78 q6 -8 9.5 -17t4.5 -17t0.5 -17t-2 -16t-5.5 -15.5t-6.5 -14t-8 -13.5t-7.5 -11.5t-7 -10t-6 -7.5q-8 -13 -4 -51.5t15 -55.5q5 -7 38.5 5.5t41.5 4.5z" />
<glyph unicode="\" horiz-adv-x="407" d="M292 -15q11 89 -16 108q-58 36 -85 112q-5 14 -48.5 46.5t-51.5 47.5q-7 13 -7.5 36.5t3.5 59.5t4 43q1 11 -11 42.5t-27 65t-28 70t-15 58t12 27.5q30 1 40 -20t7.5 -48.5t8 -57.5t41.5 -44q29 -12 47 -32t23 -34t10.5 -40t6.5 -31q4 -16 21.5 -31.5t31.5 -31.5t14 -38 q-1 -27 12 -80t13 -68q-2 -27 19 -65.5t56 -70.5q44 -39 12 -56q-27 -14 -64 0q-31 10 -29 32z" />
<glyph unicode="]" horiz-adv-x="302" d="M108 628q-11 11 -27 13.5t-28.5 0.5t-23 3t-12.5 21q-2 10 5 13.5t21 2.5t29.5 -2t35 3t33.5 14q10 7 40 -2t43 -1q28 15 45 2t-1 -54q-20 -42 -25 -86t8 -68q6 -14 15.5 -68t20.5 -79q11 -26 -8 -62.5t-16 -55.5q1 -6 6 -31.5t5.5 -40.5t-9 -40.5t-32.5 -47.5 q-24 -27 -22 -57.5t15.5 -56t12.5 -48t-31 -33.5q-41 -6 -48 6q-7 9 -31 9t-51 -4.5t-29 -4.5q-25 0 -33.5 6.5t-6 13t10.5 17.5q16 23 44 25.5t55 -13.5q23 -12 52 10q7 5 8 22.5t-1.5 40.5t-2.5 25q0 104 -7 115q-12 25 -17 39t-3 36t19 38q20 18 22 65t-18 78 q-6 8 -9.5 17t-4.5 17t-0.5 17t2 16t5.5 15.5t6.5 14t8 13.5t7.5 11.5t7 10t6 7.5q8 13 4 51.5t-15 55.5q-5 7 -38.5 -5.5t-41.5 -4.5z" />
<glyph unicode="^" horiz-adv-x="293" d="M263 554q-10 -12 -5 -14t15 -7.5t10 -16.5q0 -8 -8.5 -13t-17 -4.5t-9.5 5.5q-4 18 -19.5 21.5t-19.5 9.5t-3.5 13.5t-2.5 10.5q-2 2 -13.5 11.5t-14.5 15.5q-5 10 -7.5 16t-3 9.5t-2 15.5t-3.5 24v7q-30 5 -50 -47q-3 -8 -12 -22.5t-10 -18.5q-4 -17 -25 -26.5t-38 -2 t-13 33.5q0 3 4 3t11.5 -1t12.5 -1q6 0 10.5 3t10.5 8t10 7q13 7 16 18.5t-9 18.5q-3 1 -3.5 5.5t2 16.5t3.5 18q1 11 0 17t1 10.5t10 10.5q17 12 43 10q6 0 28 -15q7 -4 18 -26q5 -5 11 -12l5 -7q1 -1 5 -2t4 -3l13 -8q13 -8 11 -16q-1 -6 3 -8.5t12.5 -3t10.5 -1.5 q5 -2 8 -5t4 -5.5t2.5 -5.5t1.5 -4q12 -25 -7 -43z" />
<glyph unicode="_" horiz-adv-x="469" d="M65 -103q-4 -21 -26 -24q-24 -5 -28 18q-3 15 8 39q15 32 39 34t48.5 -9.5t31.5 -8.5q10 3 24.5 12.5t31.5 15.5q18 7 43 -6.5t37 -12.5q1 0 20.5 2.5t28.5 2t26 -7.5t31 -22q13 -14 24 -16t18.5 3t13.5 9.5t12 1t11 -19.5q2 -10 -8.5 -14.5t-27.5 -4t-36 1.5t-35 2 t-24 -2t-28.5 -12.5t-36 -15t-25.5 -4.5q-41 5 -67 4q-20 0 -32 11t-18.5 27t-11.5 19q-12 9 -26 -0.5t-18 -22.5z" />
<glyph unicode="`" horiz-adv-x="195" d="M123 745q-64 31 -109 -52q-23 -41 81 -118q51 -39 67 -34q9 3 15 7.5t7 11.5t1 12.5t-3.5 14t-6 13.5t-7.5 13.5t-6 10.5q-13 26 -7 46.5t1 41t-33 33.5z" />
<glyph unicode="a" horiz-adv-x="379" d="M314 253l9 -21q4 -9 -0.5 -33.5t0.5 -29.5q5 -8 6.5 -17t0.5 -26.5t-1 -23.5q0 -21 21 -47.5t19 -32.5q-4 -10 -18 -14.5t-24 5.5q-6 6 -23.5 4.5t-25.5 -5.5q-48 -14 -72 -12q-92 3 -108 9q-19 7 -47.5 29t-35.5 43q-11 31 7 86q1 2 43 58q6 7 2 16.5t5 24.5t36 27 q17 8 53.5 0t67 -16.5t34.5 -3.5q9 7 5 37.5t-23 49.5q-6 5 -24 4.5t-36.5 -4.5t-40 9t-36.5 46q-7 16 -39 -36q-23 -37 -24 -50q0 -6 3.5 -16t-0.5 -14.5t-21 -9.5q-4 -1 -6 5q-1 5 -3 24q-2 15 -3 25q-6 46 1.5 77.5t23.5 46t41 19.5t46 2.5t46.5 -9.5t36 -11.5t20.5 -8.5 q2 -1 18.5 -8t29.5 -13t28 -13.5t21.5 -14t3.5 -11.5q-4 -6 -6.5 -20.5t-3 -27.5t-1 -30.5t-0.5 -20.5q0 -1 -7 -20t1 -27zM141 239q-15 -1 -24 -7t-18 -20.5t-13 -19.5q-7 -6 -4.5 -18t7.5 -21.5t12 -22.5t9 -20q2 -8 0.5 -14.5t-3 -12t-2.5 -9t1 -5.5t9 -1 q13 2 40.5 -12.5t34.5 -15.5q18 -2 41 4.5t30 21.5q5 11 -8 33.5t-13 29.5q0 5 -6 16t-10.5 21t-4 23.5t10.5 24.5q13 14 -39 21q-27 4 -50 4z" />
<glyph unicode="b" horiz-adv-x="437" d="M380 361q14 -8 35 -55.5t6 -58.5q-7 -5 -10 -8t-6 -7.5t-6 -15.5t-7.5 -25.5t-14.5 -44.5t-23 -66q-9 -24 -23.5 -28.5t-29.5 -0.5t-34 -8q-14 -9 -25 -20t-17 -15.5t-14 -4.5q-3 -2 -26 8t-29 16q-4 3 -8 20t-14 27q-7 7 -29 -13.5t-46 -40.5t-35 -12q-6 5 -10.5 15 t-2.5 26.5t15 32.5q14 17 18.5 47.5t3 57.5t-6 71.5t-5.5 66.5q-2 39 13 72t12 42q-51 141 -20 156q26 13 26.5 27t-11.5 35t-11 37q20 4 34.5 1t22 -3.5t12.5 -7.5t6.5 -10.5t3.5 -12.5t4 -14l9 -24t11 -29t11 -30t8.5 -30t3 -25.5t-4.5 -19.5t-14 -9q-20 -4 -43 -70 q37 21 66.5 29.5t43.5 5.5t27 -7t17 -7t15 5q23 10 42 -5.5t35.5 -40.5t24.5 -29zM273 107q26 2 40.5 67t10.5 85l-2 8q-2 8 -4.5 16.5t-7 21.5t-9.5 24.5t-11.5 24.5t-14.5 23t-17 18.5t-20 12t-23 1.5l-11 -1q-12 -2 -20.5 -4t-23 -7t-25.5 -11.5t-23 -19t-21 -27.5 q-12 -60 -6 -87q6 -26 28 -52t38 -28q13 -2 30 -22.5t22 -21.5q3 0 24.5 -11.5t45.5 -9.5z" />
<glyph unicode="c" horiz-adv-x="492" d="M444 213q14 34 28 23q13 -11 7 -29q-1 -4 -3 -7q-9 -8 -1 -39t6 -38q-27 -81 -37 -95q-16 -24 -64 -27q-7 -1 -16 -1q-22 -1 -66 19t-79 49q-16 12 -34 16t-30.5 4t-28 10.5t-29.5 35.5q-8 14 -17 30.5t-12.5 22.5t-8 13t-9.5 10.5t-11.5 7.5t-18.5 10q-23 12 0.5 51 t46.5 57q9 7 22.5 33t25.5 49.5t34.5 39.5t49.5 9q39 -24 88 -12t63 37q12 16 27 15.5t26 -15.5t5 -29q-10 -23 -27 -33.5t-29.5 -11t-33 2.5t-24.5 3q-31 0 -55.5 -15t-38.5 -36t-23.5 -45.5t-13 -39.5t-3.5 -23q-2 -27 11.5 -76.5t47.5 -66.5q37 -18 66.5 -25.5t47 -5.5 t29 10t16 17t5.5 18q1 16 8.5 29.5t12 18t22 16.5t18.5 13z" />
<glyph unicode="d" horiz-adv-x="436" d="M410 81q13 -16 15 -32.5t-2.5 -26.5t-10.5 -15q-10 -8 -34 11.5t-46.5 40.5t-29.5 14q-10 -9 -14 -26t-7 -21q-6 -6 -29 -16.5t-27 -8.5q-8 0 -14 5t-17 16t-25 20q-19 12 -33.5 8t-29 0.5t-23.5 28.5q-19 51 -31.5 89t-15 48.5t-6.5 16.5t-14 13q-15 11 6 58.5t35 55.5 q7 4 23.5 29t35.5 40.5t42 5.5q9 -9 32 4t50.5 20t76.5 -25q-17 42 -33 45q-13 2 -15.5 12.5t3.5 27t14 32.5l18 36t14 32q2 5 4 13.5t3.5 12.5t6.5 10.5t12.5 7.5t21.5 3.5t34 -1.5q1 -16 -10.5 -36.5t-11 -34.5t26.5 -27q10 -5 11 -18t-4.5 -29.5t-12 -31.5t-14 -30.5 t-9.5 -19.5q-3 -9 11.5 -42t12.5 -72q-1 -19 -7.5 -84.5t-3.5 -101.5t21 -57zM351 251q6 26 -6 89q-9 15 -21.5 26.5t-23 18.5t-25 11.5t-22.5 6.5t-19 3l-12 2q-12 2 -23 -1.5t-20 -11.5t-17.5 -18.5t-14.5 -23.5t-11.5 -24.5t-9.5 -24.5t-6.5 -21.5t-4.5 -16.5l-2 -8 q-5 -17 10 -83.5t41 -68.5q23 -2 44.5 9.5t25.5 11.5t21.5 21t29.5 23q17 2 38.5 28t27.5 52z" />
<glyph unicode="e" horiz-adv-x="489" d="M205 280q35 -31 57.5 -45.5t39.5 -9.5q19 6 54 35t32 46q-3 23 -16.5 33.5t-28.5 10.5t-32 5.5t-24 18.5q-4 8 -11.5 14t-20.5 8t-28.5 -3.5t-38 -23.5t-47.5 -49q-18 -20 -15 -54.5t10 -58.5t13 -35q3 -6 12.5 -18t27.5 -30t38.5 -28.5t47 -15t53.5 10.5q4 2 20.5 12.5 t28 15.5t30.5 2.5t36 -18.5q18 -17 1 -41t-40 -7q-16 8 -41.5 9.5t-55.5 -12t-43 -37.5q-19 -20 -46 -13.5t-46.5 20.5t-42 31.5t-32.5 19.5q-15 4 -37.5 15t-39.5 28.5t-6 31.5q9 12 13 17t7 15.5t3 15t1.5 26t2.5 38.5q2 27 11 42.5t20 20t25 15.5t22 28q18 39 47.5 73.5 t49.5 43.5q11 5 20 8t16.5 6t15 2t12 -0.5t12 -4.5t11.5 -7t13 -11t14 -13.5t17.5 -17.5t19.5 -20l17 -7q17 -8 34 -16.5t29.5 -21t8.5 -22.5q-3 -6 12 -53.5t10 -56.5q-4 -8 -69.5 -24t-70.5 -23q-21 -29 -101 1.5t-86 61.5q-2 17 16.5 24.5t37.5 -8.5z" />
<glyph unicode="f" horiz-adv-x="334" d="M136 224q-5 -11 0.5 -47t2.5 -56q-3 -17 -20.5 -46.5t-17.5 -39.5q1 -12 4 -19.5t9 -10t10 -3.5t12 0t9 1q14 0 42.5 17t33.5 43q2 15 -9 41t-11 37q1 10 5.5 34.5t4.5 49.5q0 7 -16.5 25t-18.5 26q-2 9 -4 49t-4 49q-6 27 36 37q21 5 21 8q0 1 -3 3q-8 6 -5.5 22 t-5.5 17q-11 4 -38.5 -7.5t-33.5 -8.5q-8 7 -7 15t6 18.5t5 11.5q-7 27 29 52q15 11 43.5 0.5t48.5 -25.5q21 -15 47 -13q20 2 10 18q-4 8 -0.5 21.5t-3.5 31.5t-28 26q-24 8 -56 32t-45 24q-28 0 -84 -30.5t-51 -61.5q2 -16 10 -43t12 -47t0 -30q-1 -4 -12.5 -8t-26 -8 t-19.5 -7q-13 -6 -2 -19.5t8 -17.5q-5 -5 -1.5 -10.5t13.5 -6.5q2 0 30 14q27 13 26 -8q0 -17 27 -72.5t18 -77.5z" />
<glyph unicode="g" horiz-adv-x="497" d="M198 107q-3 5 -18.5 18t-14.5 26q1 22 33 0q22 -16 32 -33q9 -14 55 3t55 29q5 7 30 21.5t40.5 32t7.5 39.5q-5 6 5.5 29.5t14.5 52t-26 74.5q-5 6 4 6q5 0 20 -4q50 -11 51 5q0 4 -1 8q-8 24 -27 57q-2 6 -45.5 -5t-46.5 -3q-6 19 -23.5 26.5t-66.5 8.5q-28 1 -47 -9 t-24 -19t-16.5 -11.5t-23.5 12.5q-14 13 -31.5 14t-28.5 -4t-16 -10q-10 -11 -18.5 -23.5t-16.5 -19.5q-9 -9 -11.5 -25t-6.5 -19q-6 -4 -17.5 -25.5t-9.5 -25.5q0 -7 4 -13t14 -17.5t18 -25.5q10 -19 5 -32.5t-1.5 -27.5t25.5 -24q4 -2 11 -4t11 -3.5t4 -5.5q-7 -40 14 -71 t53.5 -45t62.5 -20t43 -2q59 17 60 -24q1 -32 -27 -61q-7 -8 -15 -12q-30 -15 -54.5 -21.5t-38.5 -4.5t-23.5 8.5t-13 13.5t-4.5 15q-1 13 -7.5 24t-11 15.5t-17 13t-15.5 10.5q-12 31 -24 18q-10 -11 -4 -25q1 -2 2 -3q7 -7 0.5 -32t-4.5 -31q3 -8 8 -23t6.5 -20t5.5 -15.5 t6.5 -13t6.5 -9.5t8 -8t9.5 -4.5t12 -4.5t14.5 -2t19 -1q19 -1 55 15.5t65 39.5q13 10 27.5 13.5t24.5 3.5t23 8.5t25 28.5q5 9 16.5 17t21 13t16.5 10.5t5 13.5t-16 20q-8 6 -19 35t-27 44.5t-42 3.5q-31 -23 -85.5 -23t-64.5 19zM255 437q22 4 62 2q30 -2 54 -55.5 t25 -79.5q2 -17 -8 -31t-25 -23.5t-35 -17.5t-36 -12t-30 -7l-14 -3q-16 -4 -78.5 14.5t-63.5 43.5q-1 23 11 42.5t13 22.5q1 4 22 19.5t23 26.5q3 18 29 38.5t51 19.5z" />
<glyph unicode="h" horiz-adv-x="382" d="M154 355q-9 -15 -4.5 -39t-0.5 -33q-4 -6 -19 -9.5t-23 -11t-1 -25.5q25 -67 -12 -111q-11 -17 -6.5 -32.5t20.5 -24.5q14 -8 -1.5 -36.5t-36.5 -29.5q-16 -1 -26.5 3t-15 14.5t-6 19.5t-2.5 26q-1 25 8 44t16 30.5t3 22.5q-4 12 -15.5 31.5t-19.5 42.5q-7 23 10.5 53.5 t17.5 45.5q0 4 -2.5 28t-1.5 36t10.5 33.5t29.5 38.5q14 11 7 28.5t-21 32t-28.5 32.5t-14.5 29q-2 29 8 41t23.5 9.5t32.5 -6.5t28 -1q12 2 15 -21t-0.5 -57t-7.5 -68t-3.5 -57.5t9.5 -22.5l25 2q12 1 38.5 28.5t31.5 29.5q54 11 80 -4q15 -6 10 -23t-1 -22 q6 -7 17.5 -14.5t19.5 -12.5t17 -16.5t9.5 -26.5t-3.5 -42q-2 -7 -19 -53.5t-15 -72.5q1 -11 -2.5 -28t-3 -30.5t8.5 -24.5q14 -18 18.5 -45.5t-2.5 -35.5q-17 -24 -47.5 -13.5t-45.5 38.5q-4 7 7.5 31t9.5 31q-2 6 9.5 46t11.5 42q0 35 -10 62.5t-17.5 44t-3.5 31.5 q5 15 -1 21.5t-22.5 9.5t-23.5 7q-16 8 -27.5 8t-15.5 -1.5t-13 -11.5t-10 -11z" />
<glyph unicode="i" horiz-adv-x="182" d="M81 618q26 5 42 -19t7 -54q-11 -28 -58.5 -15t-73.5 45q-9 20 -3.5 23.5t33.5 6.5q7 1 11 1.5t11 1.5t11.5 2.5t10 3.5t9.5 4zM123 421q-14 -3 -23 -17.5t0 -28.5q4 -5 20.5 -11.5t28.5 -18.5t12 -33q0 -23 6 -71q2 -10 -3 -26t-15 -39t-12 -30q-4 -9 -2.5 -25.5 t3.5 -36.5t3 -37.5t-3.5 -29t-14.5 -9.5q-21 2 -26.5 9.5t-2 17.5t-1 27t-22.5 32q-21 18 -22 37t9 40.5t10 29.5q0 13 -14.5 38.5t-8.5 43.5q7 19 16.5 35t12.5 26q2 7 -5 24t-14 33.5t-1 36t32 31.5q47 22 59 -3q10 -18 -7 -36q-6 -7 -15 -9z" />
<glyph unicode="j" horiz-adv-x="309" d="M187 678q13 -4 17 -10.5t2 -12.5t2 -13q3 -4 24.5 5t32.5 -4q8 -7 4.5 -14t-9.5 -10.5t-17.5 -13t-19.5 -19.5q-17 -23 -49.5 9t-39.5 62q-4 14 1.5 17t19 1t32.5 3zM189 287q5 11 8 46t6 49q2 13 11 43t8 41q-1 12 -4 19t-8.5 9.5t-9.5 3t-11 -0.5t-9 -1 q-9 0 -20.5 -15.5t-17.5 -41.5q-2 -13 3 -38t4 -36q-1 -13 -16.5 -35t-15.5 -44q0 -8 13 -32t15 -31q2 -6 6.5 -38t7.5 -42q2 -8 2 -27t3 -28q17 -47 19 -55q7 -24 -29 -47q-17 -10 -47.5 -9t-44.5 11q-38 29 -50 25q-5 -1 1 -11q11 -22 38 -50q19 -20 72.5 -46.5 t73.5 -26.5q18 0 46.5 33t24.5 50q-7 40 11 81q2 4 4.5 31t12.5 41q4 5 1 10t-11 6q-5 1 -10 3.5t-17 11t-22 14.5q-24 15 -42 57.5t-6 69.5z" />
<glyph unicode="k" horiz-adv-x="395" d="M395 36q5 -15 -2 -17q-3 -1 -12 2t-17.5 2.5t-14.5 -8.5q-9 -12 -18.5 -12.5t-16.5 2.5q-11 3 -27.5 17t-18.5 20q-2 5 -2 14.5t-1 21.5q-1 8 -7 15t-15.5 15t-13.5 13q-10 12 -16 16t-21.5 7.5t-33.5 -6.5q-9 -3 -30 13q-7 -5 -25.5 -13t-23.5 -14q-12 -15 0 -34t29 -23 q26 -7 30 -35t-21 -34q-21 -4 -54 12q-26 12 -35.5 29.5t-6.5 35t10 33.5t13 31t3 22q-4 12 -15 31.5t-19 42.5t10 54t18 46q0 5 -2.5 28t-2 35.5t10 34t29.5 38.5q22 19 23 46.5t-8.5 49t-6.5 41.5t28 28q11 1 19.5 -12t12.5 -35.5t3 -48.5q-2 -23 -9 -55t-12 -53.5 t-2 -28.5t11.5 -27t14.5 -36.5t9 -29.5q18 56 60 61q16 2 17.5 17.5t-3 27.5t2.5 15q5 0 15 -1t18.5 0.5t19.5 8.5q27 17 31 13q7 -7 1 -17l-4 -8t-6.5 -10t-7.5 -8q-6 -5 -13 -14t-13 -13q-17 -7 -9.5 -28.5t2.5 -28.5t-13 -10.5t-9 -8.5q-1 -3 -3.5 -19.5t-7.5 -24.5 q-7 -11 -12 -15.5t-8 -6t-15 -3.5t-22 -5q-9 -1 -16 -14q-9 -17 16 -17q17 1 48 10q9 3 17.5 -12t15.5 -34t11 -22q1 -1 34.5 -17t45.5 -33q3 -6 20 -27t23 -30z" />
<glyph unicode="l" horiz-adv-x="207" d="M128 73q26 -7 32 -36q6 -30 -20 -38q-23 -8 -62 11q-28 14 -39 33t-7 38.5t11.5 37t14 34t3.5 24.5q-5 13 -17.5 34.5t-20.5 46.5t11.5 59.5t19.5 50.5q0 5 -3 30.5t-2 39.5t11.5 37.5t32.5 42.5q20 17 23.5 40.5t-2 44t-11 40.5t0 35t28.5 22q22 3 22.5 -52.5 t-6.5 -123.5t-2 -81q2 -4 16.5 -38t20 -55t3.5 -35q-8 -51 -8 -95q0 -29 -16.5 -44.5t-38.5 -24t-27 -15.5q-13 -17 0 -37.5t32 -25.5z" />
<glyph unicode="m" horiz-adv-x="699" d="M641 444q-10 9 -42 11.5t-47 -3.5q-9 -3 -37 10.5t-52 10.5q-23 -3 -52 -36t-44 -37q-11 -2 -15.5 7t-4.5 22t-3.5 27t-12.5 19q-26 15 -84 4q-8 -2 -22.5 -14t-23.5 -17q-38 -24 -71 -25q-20 1 -18 15q4 20 -32.5 32.5t-53.5 0.5q-16 -12 -16 -31.5t16 -33.5 q11 -9 15 -23t4.5 -38t1.5 -35q2 -18 17.5 -64t13.5 -57q-3 -13 -6 -27t-4 -18.5t-1 -11t1.5 -9.5t5.5 -9q8 -11 9 -55t24 -60q13 -10 43 0t26 31q-4 16 -32 50t-31 42q-2 6 0.5 50t2.5 48q-2 26 18 67.5t45 70.5q4 5 11 13.5t9 10.5t7 5t10 1t12 -5t20 -9q38 -21 22 -74 q-3 -12 4 -21t17.5 -15.5t20 -25.5t9.5 -49q0 -3 -5 -25.5t-8 -39t0 -24.5q5 -5 17 -41.5t18 -40.5q25 -18 50 7t29 60q1 4 -1.5 8t-8.5 7.5t-11.5 6t-16 7t-17.5 8.5q-14 7 -18.5 19.5t-1 22.5t11.5 14q16 7 28 19t16.5 20.5t10 23t6.5 17.5q3 7 -3 16.5t-10 20.5t7 39 l15 27q18 26 46 26t53 -17t43.5 -35t23.5 -27q3 -17 2 -28.5t-6 -42.5t-6 -48q-1 -11 1.5 -32t2 -37.5t-9.5 -28.5q-12 -25 -9.5 -44.5t11.5 -32.5q18 -25 54 -10.5t52 44.5q5 9 -6.5 39t-20.5 41q-9 16 -6 30.5t10.5 31.5t6.5 20q-10 53 -5.5 88.5t0.5 50.5q-5 20 -0.5 31 t0.5 27.5t-25 36.5z" />
<glyph unicode="n" horiz-adv-x="420" d="M39 16q9 -13 38.5 -15.5t33.5 17.5q2 20 2 35t-1.5 39t-1.5 30q0 8 14 44.5t7 64.5q-7 25 6 65.5t34 64.5q4 4 8.5 10t7 8.5t5.5 6t5.5 3.5t6 0.5t8.5 -1.5t10.5 -4.5t14.5 -6.5q36 -19 21 -71q-3 -11 3.5 -19.5t16.5 -14.5t19 -24.5t9 -46.5q0 -2 -11.5 -42t-9.5 -46 t-3 -42t-1 -43q16 -25 47 -14.5t49 38.5q1 5 1.5 8t-4 9.5t-8 10.5t-10 12.5t-11.5 14.5q-8 11 -8.5 24.5t3 30.5t2.5 28q-1 20 11.5 34.5t28 25t18.5 16.5q4 7 -2 16t-10 20t7 37q16 37 14.5 48t-25.5 41q-8 11 -68 45q-28 16 -80 3q-8 -2 -21.5 -13t-21.5 -16 q-41 -24 -71 -24q-17 0 -14 14q2 13 -14.5 24t-35.5 13t-32 -5q-16 -11 -16 -29.5t16 -31.5q10 -9 14 -22t4.5 -36.5t1.5 -33.5q2 -15 17.5 -59.5t11.5 -55.5q-5 -13 -10.5 -25t-8 -17t-4 -10.5t-1.5 -9.5t2 -10q3 -12 -14 -54t0 -59z" />
<glyph unicode="o" horiz-adv-x="452" d="M436 221q16 -11 -6.5 -63.5t-37.5 -61.5q-8 -5 -26 -32.5t-40 -44.5t-47 -6q-5 6 -14 6.5t-15.5 -5t-21.5 -8.5t-32 -3t-47.5 11.5t-68.5 34.5q-6 4 -41 27q-2 1 -4 5q-23 18 -22 54q1 31 9.5 61.5t16 47.5t6 36t-16.5 37q-15 17 -17 36t3 30t12 17q14 11 37.5 12 t32.5 10q11 11 28 24.5t21 17.5q7 7 32 18t29 9q9 0 15.5 -5t18.5 -17.5t28 -22.5q21 -13 37 -8.5t31.5 -0.5t25.5 -31q15 -40 26 -73t16 -49t8.5 -28t6.5 -17t6 -8.5t11 -9.5zM330 208q5 19 -11.5 92t-44.5 76q-26 2 -50 -10.5t-28 -12.5q-4 -1 -23 -24t-34 -25 q-16 -2 -33 -32t-23 -62q-1 -6 -1 -46v-2q1 -35 12.5 -57t29.5 -29t33.5 -8.5t32.5 0t20 1.5q28 -4 51.5 13.5t38.5 49.5t20.5 46.5t9.5 29.5z" />
<glyph unicode="p" horiz-adv-x="457" d="M441 207q15 -11 -6.5 -61t-35.5 -58q-8 -5 -25.5 -31.5t-38 -42t-43.5 -5.5q-12 9 -16.5 5.5t-18 -7.5t-28 -7.5t-45.5 5.5t-70 31q25 -69 45 -73q17 -3 25 -12.5t6 -27.5t-5.5 -31.5t-12.5 -38.5q-2 -5 -4 -14t-3.5 -13t-7 -11t-13.5 -8t-23 -3.5t-36 1.5q-1 16 11 38 t11.5 37t-27.5 29q-24 12 -25 46.5t8 50.5q4 10 -11.5 44t-13.5 75q1 20 8 88.5t3.5 106t-22.5 60.5q-14 16 -16 34t3 28.5t11 15.5q11 9 36 -12t48.5 -42.5t30.5 -14.5q11 10 15.5 28t7.5 21q7 7 31 17.5t27 8.5q8 0 14.5 -5t18 -16.5t26.5 -21.5q20 -13 35.5 -8.5t31 -0.5 t24.5 -29q14 -38 24.5 -69.5t15 -46.5t8 -27t6 -16.5t5.5 -7.5t11 -9zM339 194q5 19 -10 88t-43 72q-25 2 -47.5 -10t-25.5 -12q-5 -1 -23 -22.5t-31 -23.5q-17 -2 -40 -29.5t-30 -54.5q-6 -30 7 -94q8 -14 18.5 -24.5t21.5 -18t21.5 -12.5t22 -8t19 -4.5t16.5 -2.5t10 -1 q27 -4 49.5 17t36 55t20 53.5t8.5 31.5z" />
<glyph unicode="q" horiz-adv-x="457" d="M432 458q6 -5 11 -15.5t3 -28.5t-16 -34q-19 -23 -22.5 -60.5t3.5 -106t8 -88.5q2 -41 -13.5 -75t-11.5 -44q9 -15 7 -48.5t-24 -48.5q-15 -11 -15.5 -23.5t7.5 -23t15.5 -27t6.5 -30.5q-21 -4 -36 -1.5t-23 3.5t-13.5 8t-7 11t-3.5 13t-4 14q-4 11 -12 29.5t-12 29 t-6 23t4 19t20 9.5q20 4 45 73q-39 -22 -70 -31t-45.5 -5.5t-28 7.5t-18 7.5t-16.5 -5.5q-24 -10 -44 5.5t-37.5 42t-24.5 31.5q-14 8 -36 58t-7 61q7 5 9.5 7t5.5 7.5t4.5 10.5t5.5 18t8.5 28t14.5 43.5t22 61.5q9 24 24.5 29t31 0.5t35.5 8.5q15 10 26.5 21.5t18 16.5 t14.5 5q3 2 27 -8.5t31 -17.5q3 -3 8 -21t15 -28q7 -7 30.5 14.5t48.5 42.5t36 12zM232 37q1 0 10 1t16.5 2.5t19 4.5t22 8t21.5 12.5t21.5 18t18.5 24.5q13 64 7 94q-7 27 -29.5 54.5t-39.5 29.5q-13 2 -31.5 23.5t-23.5 22.5q-3 0 -25.5 12t-47.5 10q-28 -3 -43 -72 t-10 -88q2 -12 8.5 -31.5t20 -53.5t36 -55t49.5 -17z" />
<glyph unicode="r" horiz-adv-x="407" d="M102 9q8 -13 41 -10.5t33 23.5q0 15 -18 54.5t-18 50.5q0 5 31.5 52.5t29.5 55.5q-2 11 -11 23.5t-15 20t-8 19.5t9 23q6 8 13.5 20t12.5 19t12 13t16.5 5.5t23.5 -7.5q5 -3 15 -12.5t18.5 -14.5t31 -4t54.5 14q39 15 14 48q-8 11 -45 47q-14 14 -47 23t-47 6 q-7 -1 -13 -4t-15.5 -9.5t-17.5 -11.5q-45 -25 -76 -25q-17 0 -14 14q5 21 -31 33.5t-54 0.5q-17 -11 -17 -30.5t17 -33.5q41 -34 21 -97q-7 -21 11.5 -57.5t16.5 -45.5q-4 -32 -2 -41.5t13 -22.5t13 -19q5 -12 -1 -36.5t-9 -42.5t12 -41z" />
<glyph unicode="s" horiz-adv-x="363" d="M110 315q1 -36 10.5 -53t23 -16.5t30.5 5.5q20 6 24.5 14.5t8.5 9.5q53 21 74 19.5t46 -34.5q5 -7 6.5 -10t1.5 -6t-1 -14t-2 -24q0 -17 8.5 -33.5t11.5 -25.5t-7 -39q-5 -12 -12 -26.5t-8.5 -17.5t-3 -11t-1 -13t2.5 -16q2 -12 -15.5 -17.5t-36.5 -5t-30 3.5 q-8 2 -38.5 -3.5t-56 -2t-34.5 27.5q0 31 -32 51t-54 16q-18 -3 -19 18q-2 25 14 35q2 1 5 2q12 1 19.5 2.5t15.5 -2.5t12.5 -6.5t9.5 -9t7.5 -10t6.5 -9.5t5 -8q21 -28 56 -32.5t54.5 2t30.5 12.5q17 11 39.5 39.5t17.5 55.5q-6 36 -14.5 48.5t-15 9t-16.5 -14t-13 -12.5 q-16 -8 -24.5 -6.5t-20 6t-17.5 4.5l-81 -3q-29 -1 -42 12.5t1 39.5q7 12 2.5 36.5t3.5 33.5q6 8 7 27.5t1 46t2 41.5q5 30 64 42.5t85 5.5q12 -4 35 -34.5t42 -44.5q17 -12 19 -28.5t-4 -33t-6 -19.5q3 -14 -11 -14q-20 2 -40 23q-2 1 -3 3q-10 13 -33 18t-42 -2 q-5 -2 -14.5 -5t-13 -4t-10.5 -3.5t-9.5 -4t-7 -3.5t-6 -4.5t-4 -5.5t-3 -6t-1 -7.5t-0.5 -9.5z" />
<glyph unicode="t" horiz-adv-x="405" d="M127 460q9 -23 -19 -81.5t-28 -75.5q0 -21 -9 -46t-8 -29q4 -10 -1 -31.5t-13 -49.5t-10 -45q-5 -33 53.5 -65t88.5 -32q13 0 47 25t59 34q22 8 29.5 27t4 33.5t0.5 22.5q10 19 -15 19q-26 0 -45 -14q-15 -10 -41 -8.5t-43 14.5q-21 14 -35 25.5t-24.5 23.5t-10 21.5 t12.5 15.5q6 3 8 15.5t4.5 37t6.5 42.5q2 11 15 34t15 31q2 10 18.5 30t18.5 25q7 16 38.5 16t61 -5t49.5 7q10 8 28 16t25 12.5t6 15t-16 26.5q-9 9 -61 -4t-61 -5q-10 10 -22 11t-21 -3t-17 -8t-13.5 -2.5t-6.5 11.5q-2 12 10 39.5t10 41.5q-5 27 -34.5 45t-44.5 18 q-2 0 -10 1t-13 0.5t-11 -3t-9.5 -10.5t-3.5 -21q0 -10 19 -45.5t21 -53.5q1 -15 -20 -19t-45 -1.5t-41 -0.5q-13 -3 -13.5 -14t4 -19.5t8.5 -13.5q10 -9 29 -2.5t31 13.5t18 -2q4 -15 10 -23.5t11 -12t5 -4.5z" />
<glyph unicode="u" horiz-adv-x="374" d="M336 459q-9 12 -38.5 14t-34.5 -16q-3 -16 9.5 -56t11.5 -49q0 -5 -36.5 -45.5t-35.5 -48.5q1 -7 6.5 -32.5t3.5 -42t-15 -30.5q-7 -8 -14 -19.5t-11.5 -18t-11 -12.5t-15.5 -5.5t-22 7.5q-31 17 -16 63q3 11 -4 19.5t-17 14.5t-19 24.5t-9 46.5q0 3 20.5 42.5t18.5 45.5 q-2 7 3.5 42.5t1.5 42.5q-16 25 -47.5 14.5t-48.5 -38.5l-1.5 -7.5t3.5 -9.5t7.5 -11t10.5 -12.5t11 -14.5q5 -7 7.5 -14.5t-0.5 -18t-4.5 -14.5t-9 -18.5t-8.5 -17.5q-12 -24 -14.5 -47.5t-4.5 -28.5q-4 -13 -2.5 -18.5t5 -25.5t3.5 -43q0 -12 -1.5 -25t-1.5 -17.5 t2.5 -12.5t9 -15t20.5 -20t45 -22t45 -6q7 1 12.5 4t14.5 9t16 10q38 23 70 25q17 -2 16 -14q-4 -20 31 -32.5t51 0.5q15 11 15 29.5t-15 31.5q-40 33 -20 93q6 19 2.5 58t0.5 46q7 18 7.5 32t-3 20.5t-8.5 15t-7 14.5q-3 12 13.5 52t1.5 62z" />
<glyph unicode="v" horiz-adv-x="398" d="M388 363q2 -15 -5.5 -39t-15.5 -29q-4 -4 -17.5 -10t-21.5 -11q-20 -12 -37 -48q-20 -39 1 -109q3 -9 -3 -23t-18 -37q-5 -10 -9 -20t-5.5 -13.5t-7 -8t-17.5 -9.5q-9 -4 -17.5 -5.5t-17 -0.5t-13 2t-13.5 4t-11 4q-20 7 -35 41q-11 24 -15 49q-4 9 -8.5 22t-5.5 14 q-1 4 -4.5 7t-4.5 6l-3 3q-3 2 -6 5t-7.5 7t-7.5 8.5t-5 9.5t-1.5 9.5t3.5 8.5q4 6 3.5 9t-5 6.5t-9.5 5.5t-11.5 5t-9.5 6q-6 5 -9 11t-4 10.5t-2 10.5t-1 8q-2 13 6 33.5t29 29.5q14 6 13.5 14t-9.5 18t-19.5 18t-17 16t-3.5 12q5 6 16.5 14.5t19 18t11.5 27.5 q11 38 21 41q4 2 9.5 -3.5t4.5 -11.5q8 -26 7 -45q-2 -11 -0.5 -28t-0.5 -23q-4 -17 1 -27.5t13.5 -14t17.5 -10.5t12 -17q3 -11 -1.5 -21.5t-2.5 -17.5q2 -4 15 -24.5t15 -32.5q2 -31 2.5 -34t-5 -26.5t-9.5 -49.5q-1 -8 -4 -10q12 -10 21 -15.5t23 -9t23 2t16.5 25 t8.5 54.5v25.5t1 31.5t4 19q0 1 5.5 43t16.5 65q16 32 46 75q1 1 3 3.5t3 3t3 2t3.5 1.5t3.5 -1t4 -3q0 -1 3.5 -21t19.5 -24q7 -1 11.5 -3.5t7 -4.5t4.5 -6t2.5 -5.5t1 -6.5t0.5 -6z" />
<glyph unicode="w" horiz-adv-x="608" d="M598 384q2 -15 -6 -40.5t-16 -30.5q-5 -4 -18.5 -10t-22.5 -12q-11 -7 -9.5 -22t-2.5 -28q-22 -42 2 -115q-1 -8 0.5 -9t-2 -10t-5 -11.5t-7.5 -14.5l-9 -18q-5 -10 -10 -24.5t-10 -18t-21 -10.5q-15 -7 -23.5 -7.5t-19 5t-14.5 6.5q-23 9 -37 43q-11 24 -15 49 q-4 8 -7 16.5t-5 15.5t-3 8q0 1 -10 13l-7 7q-8 7 -14 14t-10 17t3 16q11 13 11.5 19.5t-8.5 14.5q-6 5 -9 9q-12 -10 -15 -16q-21 -40 2 -115q-1 -8 0.5 -9t-2 -10t-5 -11.5t-7.5 -14.5l-9 -18q-5 -10 -10 -24.5t-10 -18t-21 -10.5q-9 -4 -18 -6t-17.5 -1t-13.5 2.5 t-14 4.5l-12 4q-23 9 -37 43q-10 19 -16 52q-4 9 -8.5 22.5t-5.5 14.5q-2 4 -5.5 8t-4.5 6q-2 2 -5 10.5t-3 21t7 21.5q4 6 3.5 9.5t-5.5 7t-10 6t-12 5.5t-10 6q-6 5 -9.5 11.5t-4 11t-1.5 11t-1 8.5q-3 14 5.5 35.5t30.5 30.5q14 6 14 15t-9.5 18.5t-20.5 19t-18 17.5 t-4 12q6 6 18 15t19.5 19t12.5 29q11 39 22 43q4 2 9.5 -3.5t4.5 -11.5q10 -30 8 -47q-2 -12 -0.5 -30t-0.5 -25q-4 -18 1 -28.5t14 -14.5t18.5 -11t12.5 -17q3 -12 -1.5 -23.5t-2.5 -18.5q2 -5 15.5 -26t15.5 -34q3 -21 -1 -31.5t-14 -29.5t-17 -52q-3 -14 0 -21 q81 -58 85 68v26.5t1 33t4 20.5q33 77 24 114q-2 10 12 15t34.5 2.5t34.5 -11.5q21 -10 42 -73q2 -5 15.5 -26t15.5 -34q3 -20 -6 -36.5t-14 -28.5t7 -50q9 -22 12 -25l8 -6l4 -2l3 -2q11 -4 21.5 -1.5t18 24t8.5 61.5v26.5t1 33t4 19.5q1 3 6.5 47t17.5 68q2 4 6.5 34 t14.5 44q1 1 3.5 4t4 4t4 2t4.5 0t5 -4l4 -21q4 -22 20 -26q7 -1 12 -3.5t7.5 -4.5t4.5 -6.5t2 -6t1 -7t1 -6.5z" />
<glyph unicode="x" horiz-adv-x="446" d="M340 203q-9 9 -19.5 18t-14.5 12t-6.5 7.5t-1 8.5t7.5 11q5 6 26.5 23.5t31.5 33t3 29.5q-21 49 -14 67q4 11 17 17q56 26 38 60q-12 14 -34.5 13.5t-44.5 -20.5t-21 -46q2 -26 -2.5 -38t-21.5 -29q-6 -6 -9.5 -14.5t-4.5 -16.5t-2 -14.5t-2.5 -9.5t-5.5 -1q-11 5 -28 4 t-25 -2.5t-14 4.5q-9 20 -32.5 31.5t-30.5 22.5q-7 10 -15 34.5t-16 34.5q-16 20 -33.5 28t-25.5 5q-2 -1 -9 -3.5t-10.5 -5t-7.5 -7t-3 -12t6 -17.5q5 -11 27.5 -35.5t28.5 -32.5q9 -12 18 -36t17 -41.5t18 -19.5q13 -3 17 -6t3 -9.5t-5 -14t-10 -24t-9 -35.5 q-1 -8 -20 -21.5t-35 -26.5t-23 -37t14 -53q34 -52 63 -35q20 11 17 39q-2 14 -12 23q-13 12 -14 33.5t18 29.5q3 1 21.5 3.5t28 13t16.5 37.5q9 31 29 22q18 -8 19 -28q0 -6 -3 -12q-2 -8 -1 -14t9.5 -13.5t14.5 -11.5t15 -9.5t11 -7.5q9 -5 12 -15.5t3.5 -26.5t2.5 -24 q5 -15 31.5 -22.5t42.5 1.5q5 2 25 5.5t27 12.5t0 31l-3 9q-3 9 -3.5 11t-4 9t-6.5 9t-8.5 5t-11.5 4q-25 3 -34 9.5t-13 19.5q-1 1 -0.5 25.5t-8.5 30.5z" />
<glyph unicode="y" horiz-adv-x="484" d="M307 240q-10 -4 -14 -29t-5.5 -52t-13 -45.5t-33.5 -11.5q-24 7 -27 38t6 64.5t10.5 63.5t-12.5 36q-15 6 -23 22.5t-10 33t-8.5 29t-18.5 10.5q-27 -4 -39.5 7t-38.5 54q-14 19 -32 7t-22 -34q-18 -76 8.5 -96.5t84.5 3.5q15 5 20 -52t4.5 -123t2.5 -72l20 -48 q7 -17 95 -48q17 -6 -9 -45q-30 -47 -67 -58q-45 -13 -60 50q-5 20 -42.5 32t-54.5 3q-11 -6 -15 -14.5t-2 -20t4.5 -19t9 -21t7.5 -16.5q10 -23 86.5 -43t107.5 -20q10 0 17.5 21t21 42.5t36.5 23.5q2 0 12.5 -3t19 -3t15.5 4.5t4.5 23t-16.5 48.5q-1 3 -6 10t-6.5 11 t2 8.5t14.5 7.5q12 2 21 23t6.5 43t-19.5 27q-39 10 30 78q9 9 19 18q8 7 6 59.5t11 72.5q7 10 20.5 25t22 26.5t12.5 19.5q5 11 5.5 19t-3.5 13t-7.5 7t-10.5 4.5t-9 3.5q-10 4 -28 -5.5t-34 -32.5q-5 -7 -11.5 -49t-21.5 -82t-42 -49z" />
<glyph unicode="z" horiz-adv-x="475" d="M325 398q12 2 34 -16q42 -33 -11 -63q-18 -10 -45 -18q-63 -16 -71 -22q-1 -1 -32.5 -12.5t-51.5 -28.5q-4 -3 -12.5 -7.5t-16.5 -11.5t-14 -18q-9 -16 -26.5 -27t-28.5 -27q-6 -8 9 -39q6 -14 1 -14q-3 -1 -7 1q-19 6 -34.5 -26.5t-5.5 -49.5q7 -17 26 -19.5t34 11.5 q38 36 76 9q17 -11 55 5t46 13q29 -8 38 -7.5t23 9t21 9.5q11 3 52 -11t59 1q14 9 15.5 38.5t-19.5 33.5q-14 2 -53 -11.5t-48 -12.5q-3 1 -20.5 16.5t-38.5 25.5t-39 2q-21 -9 -49 -1q-17 5 -4 11q16 7 23.5 21t17.5 44q9 30 36 39q7 3 21.5 9t23.5 9.5t26 6t37 1.5 q10 -1 19 5.5t32 28.5q7 6 15 11.5t11 7.5t6.5 6t5 9.5t3.5 16.5q0 13 1 18.5t-3 15t-5.5 13t-6.5 11l-7 10.5q-6 11 -48 25l-20 6q-20 3 -30 -3q-11 -8 -31.5 -9.5t-23.5 1.5l-8 6q-8 5 -16 9t-18.5 5.5t-14.5 -6.5q-4 -5 -8 -5.5t-7.5 3.5t-7 8.5t-8 9.5t-7.5 7 q-27 16 -51.5 0.5t-26.5 -44.5q-2 -17 -11.5 -30t-19.5 -18.5t-17 -10t-6 -8.5q10 -24 77 -26q7 0 10 2.5t2.5 5.5t1.5 5t7 1t27 -8.5t35 -6.5q10 0 48.5 26t53.5 29z" />
<glyph unicode="{" horiz-adv-x="368" d="M269 650q-4 -7 -13.5 -16.5t-14 -15t-6.5 -17.5t8 -24q13 -18 4 -64t-36 -54q-16 -5 -21 -47t-23 -50q-8 -4 -12.5 -6t-2.5 -4.5t3 -3t9 -2.5q10 -3 16 -5.5t12.5 -9.5t6.5 -17q0 -45 14 -59q7 -7 10.5 -15t4.5 -14t-2 -15.5t-5.5 -14.5t-9 -17.5t-9.5 -17.5 q-23 -29 20 -87q9 -10 11 -25.5t0 -30t-7 -39.5q-5 -29 25.5 -51.5t50.5 -14.5q16 6 26 2.5t14 -12t1 -14.5q-4 -8 -27 -12t-38 -16q-15 -11 -37.5 4t-27.5 37q-1 4 -31.5 15.5t-41.5 33.5q-11 24 -11 44t7 31t14 22.5t9 19.5t-8 21q-23 25 -32 52.5t-7 43t8.5 41.5t7.5 33 q4 20 -11 55q-10 23 -57.5 15t-49.5 18q-2 12 12 17t32.5 4.5t37 3t22.5 12.5q11 26 8 55t-1.5 58.5t14.5 38.5q29 20 42 53.5t13.5 60.5t10 46t32.5 18q21 -1 34 10.5t19 11.5q61 0 70 -21q6 -17 -6 -26t-35 0q-11 4 -24 -7.5t-22 -31.5z" />
<glyph unicode="|" horiz-adv-x="190" d="M120 -73q13 -23 -23 -48q-35 -25 -58.5 -16t-2.5 54q19 43 23 87.5t-8 67.5q-6 14 -15.5 67.5t-20.5 78.5q-11 26 7 63.5t15 55.5q-1 5 -6.5 31t-6 41t8 40.5t29.5 47.5q23 26 21 56.5t-15.5 56t-12.5 48.5t29 34q14 3 21.5 -20t9.5 -60t2 -75t1.5 -71t6.5 -43 q4 -9 16 -30t19.5 -35.5t14 -32.5t5.5 -30q-1 -17 -28.5 -64t-26.5 -62q6 -80 -33 -136q-17 -27 28 -106z" />
<glyph unicode="}" horiz-adv-x="368" d="M99 650q-9 20 -22 31.5t-24 7.5q-23 -9 -35 0t-6 26q9 21 70 21q6 0 19 -11.5t34 -10.5q23 1 32.5 -18t10 -46t13.5 -60.5t42 -53.5q13 -9 14.5 -38.5t-1.5 -58.5t8 -55q4 -9 22.5 -12.5t37 -3t32.5 -4.5t12 -17q-4 -21 -27.5 -20.5t-44.5 5.5t-35 -18q-15 -35 -11 -55 q1 -7 7.5 -33t8.5 -41.5t-7 -43t-32 -52.5q-11 -13 -7 -26t15 -25t14 -34t-11 -53q-11 -22 -41.5 -33.5t-31.5 -15.5q-5 -22 -27.5 -37t-37.5 -4q-15 12 -38 16t-27 12q-3 6 1 14.5t14 12t26 -2.5q20 -8 50.5 14.5t25.5 51.5q-5 25 -7 39.5t0 30t11 25.5q43 58 20 87 q-3 5 -9.5 17.5t-9 17.5t-5.5 14.5t-2 15.5t4.5 14t10.5 15q14 14 14 59q0 10 6.5 17t13.5 9.5t15 5.5q7 2 9 3t3 2.5t-3 4t-12 6.5q-18 8 -23 50t-21 47q-27 8 -36 54t4 64q10 12 8 24t-6.5 17.5t-14 15t-13.5 16.5z" />
<glyph unicode="~" horiz-adv-x="491" d="M362 293q21 15 23 31t-17 51q-18 30 15 38q28 6 44 -6q5 -4 5 -8q0 -25 28 -54t17 -55q-6 -14 -25.5 -15.5t-37.5 -20.5q-9 -10 -46 -6t-49 -2q-18 -7 -21.5 -3t-12.5 14.5t-22 12.5q-14 2 -18.5 7t-3.5 10.5t-5 13.5t-22 15q-10 5 -7.5 11.5t6 15t6 16.5t-8 15.5 t-36.5 11.5q-17 3 -31.5 -8t-24 -27t-11.5 -17q-10 -8 -8 -19.5t9 -22.5t2 -20.5t-30 -13.5q-13 -2 -18.5 3t-5.5 14t-5 20.5t-17 19.5q-23 15 -24 38.5t12.5 39.5t26.5 13q10 -2 14.5 -2.5t11.5 1t10 3.5t16 8t24 11q26 9 30.5 6t13.5 -10.5t25 -7.5q9 0 16.5 1t11 1 t6.5 0.5t5 -0.5t4 -2.5t7 -4.5q9 -7 21.5 -14.5t16 -10.5t7.5 -11t3 -19.5t-5 -33.5t23 -33.5t52 5.5z" />
<glyph unicode="&#xa1;" horiz-adv-x="253" d="M178 519l8 6q2 0 8.5 1.5t11 1.5t7.5 -4q2 -4 -0.5 -10t-7 -13t-5.5 -11q0 -1 -2.5 -11t-5 -17t-8 -17t-12.5 -16q-5 -4 -11 -10l-9 -9t-8 -6.5t-7.5 -2.5t-7.5 2q-9 5 -15.5 20.5t-5.5 27.5q1 9 -1.5 19.5t-2.5 12.5q-1 10 9.5 19t25.5 9q26 0 39 8zM205 331 q-8 -10 -4.5 -20.5t11 -16.5t17 -18t13.5 -25q3 -11 -18 -75.5t-22 -86.5q-2 -35 -20.5 -49.5t-39.5 -13.5t-40.5 -6.5t-24.5 -29.5q-3 -16 15 -25.5t42 -13.5t42.5 -15.5t15.5 -30.5q-4 -24 -17 -34.5t-26.5 -11.5t-23 -9.5t-7.5 -28.5t16 -49.5t25.5 -51t11 -43.5 t-21.5 -34l-45 -25q-3 1 -8 -0.5t-8.5 -2.5t-6.5 1t-3 9q0 4 0.5 18t-1 24t-6.5 18q-7 11 -8.5 36.5t2.5 42.5q3 15 4.5 27t0 24.5t-2 18.5t-6.5 18t-7 14.5t-9.5 17t-9.5 16.5q-10 16 -18.5 49.5t-5.5 70t24 46.5t24.5 45t-1.5 70t4 66q7 24 21 34t26.5 12t14.5 7 q5 11 25.5 26.5t37.5 22.5q15 6 18.5 -3.5t-0.5 -14.5z" />
<glyph unicode="&#xa8;" horiz-adv-x="342" d="M241 731q15 -4 19 -11.5t2 -14.5t2 -14q3 -5 27 5t36 -4q9 -7 5 -15t-10.5 -12t-19 -14t-21.5 -22q-18 -25 -54 10t-44 68q-4 16 1.5 19t20.5 1t36 4zM105 704q27 5 44.5 -20.5t7.5 -56.5q-11 -29 -61 -16t-78 47q-8 9 -9 15t5.5 9.5t13.5 4.5l21 3l12 1.5t11.5 1.5 t12 2.5l10.5 3.5t10 5z" />
<glyph unicode="&#xa9;" horiz-adv-x="727" d="M703 405q21 -22 10 -72t-36.5 -101.5t-41.5 -59.5q-16 -10 -25.5 -47t-15 -71.5t-26.5 -54t-59 -2.5q-13 12 -25 12t-26 -6.5t-32 -15t-48.5 -10t-70 5t-102.5 33.5t-140 73q-11 6 -19 12q-10 7 -14 15q-23 35 -16 92q7 62 20 105t20.5 55t4.5 25t-24 38 q-22 26 -26.5 49.5t8.5 41.5t22 26t24 18q28 23 60 19t46 13q20 20 27.5 52t16.5 39q12 15 59 37.5t61 18.5q17 -4 32.5 -16t43 -35.5t58.5 -44.5q24 -16 49.5 -18t39.5 1.5t29.5 -11.5t27.5 -57q3 -9 8 -28t7 -25l6.5 -19.5t7 -18.5l7.5 -15t9 -14.5t11 -12t14.5 -13.5 t17.5 -13zM610 330q2 16 -7.5 77t-37.5 128t-68 71q-31 2 -57 2t-36.5 -1t-32 -4t-26.5 -4q-9 -1 -27.5 -16.5t-41 -29t-44.5 -11.5q-38 4 -71 -29t-48 -75.5t-8 -69.5q5 -18 4 -68.5t6.5 -96.5t34.5 -73q20 -16 44 -28.5t43.5 -20t44 -13t37.5 -7.5t32 -4t20 -2 q57 -8 102.5 18t72.5 73t42.5 93t21.5 91zM509 292q-7 -6 -1 -30.5t5 -30.5q-2 -5 -5 -15q-18 -53 -31 -66.5t-56 -14.5q-18 0 -52 15.5t-62 37.5q-15 12 -33 13.5t-33 7.5t-29 31q-7 12 -15.5 27.5t-10.5 19t-8 10t-11 9t-16 8.5q-18 9 0 39t37 46q7 6 22 37t34.5 51.5 t46.5 13.5q32 -19 70 -9.5t49 28.5q11 22 32 9.5t13 -31.5q-7 -18 -20 -26.5t-23 -8.5t-26 2t-20 2q-29 0 -51.5 -17t-33 -41.5t-15 -41t-5.5 -25.5q-2 -20 9 -59t38 -52q29 -14 52 -20t36.5 -4.5t22.5 8t12.5 13.5t4.5 14q1 10 3.5 18t8.5 14.5t10 9.5t13.5 9.5t12.5 8.5 q12 30 24 16q9 -13 1 -26z" />
<glyph unicode="&#xab;" horiz-adv-x="547" d="M78 350q8 0 14 2.5t8 4.5t5 8.5t5 8.5v8q0 9 5.5 16.5t18.5 7.5q15 0 26 14.5t18.5 22.5t34.5 0q17 -7 32 2t28 19.5t26 5.5q24 -9 25.5 -10.5t1.5 -12.5q0 -27 -58 -35q-19 -3 -26.5 -30t-10.5 -30q-12 -12 -33 -14t-23 -10q-4 -11 -19 -11.5t-32 3t-20 2.5 q-18 -9 -23.5 -29.5t5 -37t32.5 -16.5q11 0 28 -19.5t31 -16.5q15 4 31.5 -7.5t29.5 -11.5q19 0 40 -19t11 -38q-2 -4 -6.5 -5.5t-8.5 -1t-8 -3t-5 -11.5q-1 -7 -3 -11t-4.5 -6.5t-3.5 -3t-5 -1.5l-4 -1q-10 -1 -25 5.5t-19 13.5q-1 1 -14 35q-6 16 -31 31q-2 1 -9.5 8 t-11.5 9.5t-11.5 6t-16.5 3t-19 -4.5q-4 0 -5 -1t-6 2t-6.5 4t-8.5 6t-11 8q-5 4 -10.5 6.5t-8 3.5t-5 4t-4.5 7t-4 12q-8 23 2 64q3 17 25 30q20 14 36 14zM278 200q-10 0 -34 12q-23 19 -26 31q-13 46 20 49q9 1 10.5 5.5t-1.5 11t-3.5 15t4.5 17.5q11 16 25 24t25 2 q46 -24 56 14q10 40 27 40q9 0 23 -5.5t21 -1t15 25.5q7 13 25.5 4t23.5 -22q10 -20 -13.5 -44t-37.5 -13q-26 16 -43.5 7t-17.5 -26q0 -16 -19 -25.5t-40 -9.5q-34 0 -43.5 -20t18.5 -34q2 -1 11 -7.5t15.5 -10t17.5 -5t17 6.5q10 10 37.5 -1.5t30.5 -30.5q2 -11 4.5 -22 t8.5 -26.5t14.5 -22.5t18.5 0q22 15 52 -1q27 -13 12 -30q-2 -3 -5 -5q-28 -18 -44.5 -12.5t-36.5 15t-32 4.5q-38 -14 -55 -4t-17 34q0 11 -3.5 15.5t-8.5 5t-10.5 4t-8.5 12.5l-4.5 12t-9 8t-19.5 4z" />
<glyph unicode="&#xad;" horiz-adv-x="369" d="M50 281q8 24 40 12q5 -2 8 1.5t5.5 9t10.5 10t20 4.5q22 -1 53 -16q7 -3 24.5 4t29.5 12t20 -4q9 -14 31 -6.5t44.5 2t22.5 -37.5q1 -15 -4.5 -17.5t-14 2.5t-20 5.5t-22.5 -7.5q-13 -11 -26.5 -16t-20 -6t-21.5 1l-16 1q-15 1 -62 20q-30 10 -69 -26q-10 -9 -30 -14 t-34.5 4t-4.5 36q6 16 19.5 14t16.5 12z" />
<glyph unicode="&#xb0;" horiz-adv-x="249" d="M230 512q11 -17 9.5 -28t-8.5 -16q-7 -6 -19.5 -6.5t-17.5 -4.5q-6 -6 -15.5 -14t-10.5 -9q-4 -4 -17 -9.5t-15 -4.5q-5 0 -8.5 2.5t-10 9.5t-14.5 12q-11 7 -19.5 4.5t-17 0t-13.5 16.5q-8 21 -14 38.5t-8.5 26t-4.5 15t-3.5 9t-3.5 4.5t-6 5q-8 6 4 34t20 32 q4 3 14 17.5t21.5 23.5t24.5 3q5 -5 17 0t26 10t39 -7t53 -47q0 -1 0.5 -1t0.5 -1q5 -7 5 -18q-1 -17 -5.5 -33t-8 -25t-3 -19.5t8.5 -19.5zM197 563l-4 42q-2 8 -5.5 15t-9 11t-11 7t-12.5 4.5t-11 2t-10 1.5h-5q-17 3 -32 -18t-19.5 -36t-6.5 -25q-3 -9 5 -44.5t22 -36.5 q12 -1 23.5 5t13.5 6t11 11t16 12q9 2 20.5 15.5t14.5 27.5zM190 643v-1v1z" />
<glyph unicode="&#xb1;" horiz-adv-x="502" d="M438 338q54 14 54 -9q1 -17 -22 -30q-9 -5 -19 -5q-7 -1 -28.5 7.5t-32.5 3.5q-4 -2 -12 -9t-20 -11t-34 -4h-8q-3 -8 0.5 -16.5t0.5 -14.5t-4 -25.5t-13 -49.5q-13 -35 -44 -28q-19 5 -20 19q0 6 3 10q1 1 6.5 8.5t8.5 12t7.5 13t3.5 12t-4 9.5q-2 2 -10 6.5t-10.5 11 t-2.5 20.5q0 2 1 6q2 2 2 4q-14 2 -45 11t-37 11q-18 3 -44 1t-56 -0.5t-39 10.5q-23 20 4 36q29 15 58 3q10 -5 16 -13q6 -11 38.5 -9.5t52.5 15.5q14 11 42 14q-6 13 -1 21q3 6 -0.5 29t-1.5 41t19 19q15 -1 22 -2t10 -2.5t2 -6t-3 -9t-4.5 -14t-3.5 -19.5q-1 -8 2 -17 t5.5 -14t9 -14.5t7.5 -11.5q1 0 3 -0.5t3 -0.5q18 -4 33.5 -10.5t26.5 -8.5q4 -1 11.5 -3.5t11.5 -3t12 -1t18 1.5t25 6zM462 69q21 -19 -4 -31q-20 -10 -40 -1l-8 4t-8 3.5t-6.5 1t-8.5 -1t-9 -5.5q-3 -2 -11 -12.5t-19 -16t-31 -5.5q-25 1 -64 -4q-9 -1 -23.5 4t-35 14.5 t-26.5 12.5q-8 3 -23 2t-33.5 -2t-34.5 -1.5t-26 3.5t-8 14q6 18 13 19.5t14.5 -6.5t19.5 -8t28 16q13 14 29.5 21t24.5 7.5t28 -1.5l19 -3q12 -1 35.5 11.5t40.5 6.5t30.5 -15t23.5 -12q7 -3 25 4t41 5t47 -24z" />
<glyph unicode="&#xb4;" horiz-adv-x="195" d="M72 737q-28 -13 -33 -33.5t1 -41t-7 -46.5q-1 -2 -6 -10.5t-7.5 -13.5t-6 -13.5t-3.5 -14t1 -12.5t7 -11.5t15 -7.5q16 -5 67 34q104 77 81 118q-45 83 -109 52z" />
<glyph unicode="&#xb7;" horiz-adv-x="200" d="M162 301l12 -6q1 -2 6 -7.5t8 -11t1 -9.5t-10.5 -5.5t-18 -1t-16.5 -0.5q-1 0 -19 -5.5t-28.5 -6t-32.5 4.5q-10 4 -27 8.5t-22 8.5t-5 13q1 13 13 29.5t25 21.5q11 4 18.5 13t12.5 11q10 6 26 0.5t25 -21.5q16 -27 32 -36z" />
<glyph unicode="&#xb8;" horiz-adv-x="169" d="M42 -106q4 -5 5 -20.5t9 -23.5q32 -32 52 -10q17 19 5 48q-11 25 -41 32q-10 2 -11.5 28.5t5.5 51.5q2 9 10.5 11.5t15 -3t4.5 -16.5q-1 -9 -1 -26t7 -32.5t20 -11.5q17 -2 24.5 -18t8.5 -37.5t3 -25.5q6 -13 -5 -36.5t-35 -14.5q-16 6 -44 0.5t-32 -4.5q-13 4 -16.5 12 t-1.5 16.5t0 21.5t-13 25q-4 4 5.5 16t8.5 17q-2 9 7 15q8 -1 10 -15z" />
<glyph unicode="&#xbb;" horiz-adv-x="547" d="M469 350q16 0 36 -14q22 -13 25 -30q10 -41 2 -64q-4 -13 -6 -16.5t-11 -8t-15 -8.5q-4 -3 -11 -8t-8.5 -6t-6.5 -4t-6 -2t-5 1q-10 4 -19 4.5t-16.5 -3t-11.5 -6t-11.5 -9.5t-9.5 -8q-25 -15 -31 -31q-13 -34 -14 -35q-4 -7 -19 -13.5t-25 -5.5q-1 0 -3.5 0.5t-3.5 1 t-3.5 2t-4 3.5t-3 6t-2.5 10q-1 8 -5 11.5t-8 3t-8.5 1t-6.5 5.5q-10 19 11 38t40 19q13 0 29.5 11.5t31.5 7.5q14 -3 31 16.5t28 19.5q22 0 32.5 16.5t5 37t-23.5 29.5q-3 1 -20 -2.5t-32 -3t-19 11.5q-2 8 -23 10t-33 14q-3 3 -10.5 30t-26.5 30q-58 8 -58 35 q0 11 1.5 12.5t25.5 10.5q13 5 26 -5.5t28 -19.5t32 -2q27 8 34.5 0t18.5 -22.5t26 -14.5q13 0 18.5 -7.5t5.5 -16.5v-8q1 -2 4.5 -8.5t5.5 -8.5t7.5 -4.5t14.5 -2.5zM269 200q-12 0 -19.5 -4t-9 -8l-4.5 -12q-3 -9 -8.5 -12.5t-10.5 -4t-8.5 -5t-3.5 -15.5q0 -24 -17.5 -34 t-54.5 4q-12 5 -32 -4.5t-36.5 -15t-44.5 12.5q-22 17 2 33q25 16 51 6q3 -1 6 -3q10 -7 18.5 0t14.5 22.5t8.5 26.5t4.5 22q3 19 30.5 30.5t37.5 1.5q6 -8 17 -6.5t17.5 5t15.5 10t11 7.5q28 14 18.5 34t-43.5 20q-21 0 -40 9.5t-19 25.5q0 17 -18 26t-43 -7 q-14 -11 -37.5 13t-13.5 44q5 13 23.5 22t25.5 -4q8 -21 15 -25.5t21 1t23 5.5q17 0 27 -40q10 -38 56 -14q11 6 25 -2t25 -24q5 -9 4.5 -17.5t-3.5 -15t-1.5 -11t10.5 -5.5q33 -3 20 -49q-3 -12 -26 -31q-24 -12 -34 -12z" />
<glyph unicode="&#xbf;" horiz-adv-x="448" d="M221 519l5 -6q8 -9 27 -13q12 -4 18 -12.5t4 -15.5q-10 -22 -10 -24q-1 -10 -9 -20t-16 -12q-4 0 -6 -0.5t-5 3.5t-4.5 6.5t-5 9t-6.5 10.5q-10 14 -10 51q0 2 -2 9t-2.5 11t2.5 8q4 2 6.5 1.5t7 -3t6.5 -3.5zM65 -133q0 -15 3.5 -25t8 -15t14 -8t15.5 -3h19h18 q16 -1 33 1t31 5t15 3q10 0 26 -9.5t36.5 -24t33.5 -20.5q26 -13 68 26.5t51 63.5q3 11 -8.5 45.5t-11.5 57.5q0 20 -12.5 30.5t-28.5 14t-18 5.5q-15 16 -21 -12q-4 -20 1 -35t-3.5 -35.5t-23.5 -33.5q-18 -13 -31 -21t-26 -13.5t-20.5 -2.5t-9.5 14q-1 6 -10.5 11.5 t-29 14t-32.5 16.5q-6 4 -21.5 22.5t-24.5 20.5l-11 2q-21 4 -17 42q5 37 24 43q6 2 13 -2q40 -20 91.5 -10t67.5 38q14 25 -26 67q-13 12 2 36t36 49t21 34q-1 19 -9.5 29t-17.5 14t-10 9q-1 9 -13.5 24.5t-25.5 24.5q-11 5 -14 1t-3 -11q6 -16 -15.5 -28.5t-27.5 -24.5 q-7 -13 -8.5 -58.5t6.5 -72.5q17 -53 4 -62t-72 18q-24 10 -55.5 -48.5t-35.5 -98.5q-3 -30 26 -58t29 -50z" />
<glyph unicode="&#xc0;" d="M445 780q-13 7 -30 31.5t-23 28.5q-1 1 -31 33.5t-54 45.5q-30 16 -86 32q-19 5 -20 -6q0 -4 6 -14t7.5 -17.5t-6.5 -21.5q-5 -6 -8 -11t-2 -10.5t1 -7t3 -7.5l4 -7q7 -14 29 -30t31 -15q4 0 18.5 3t28.5 4q22 2 60 -16q15 -7 35 -48.5t32 -45.5q17 -6 29 16 q17 30 -11 54q-5 5 -13 9zM529 281q-5 -12 -1.5 -29t9.5 -55t4 -64q-2 -19 -40 -59.5t-65 -50.5q-40 -16 -65 -18q-14 -2 -10 6q7 15 40 35q1 1 3 2q16 10 29 40.5t7 50.5q-10 32 -4 53.5t19 32.5t21 21.5t1 20.5q-5 7 -20 18.5t-20.5 25.5t0.5 40q1 2 6 14t6 19.5t-5.5 21 t-24.5 27.5q-12 12 -2 20q17 14 16.5 23.5t3.5 31.5q5 15 -1.5 35.5t-26.5 55.5t-24 43q-16 31 -29.5 40t-38.5 11q-19 1 -37 -20.5t-23 -39.5q-1 -8 -20 -32t-25 -40q-1 -4 -3.5 -10.5t-3.5 -9t-2.5 -8t-2 -10.5t-1 -14t-0.5 -21q1 -28 19 -51.5t41 -25.5q42 -4 116 14 q5 3 9 4t7 -1t2 -9q-1 -11 -43 -43t-58 -37q-10 -2 -35.5 15.5t-42.5 10.5q-32 -17 -42 -58q-1 -12 3.5 -39t4.5 -33q0 -5 -2.5 -21.5t-0.5 -25.5q1 -7 19 -29t24 -35q11 -21 27 -65q8 -21 2 -60q-1 -7 -5.5 -13.5t-9.5 -6.5q-13 0 -34 47q-9 22 -21 33t-28.5 19t-24.5 15 q-6 6 -22.5 54t-34.5 56q-26 11 -41.5 33.5t-16.5 37.5q0 2 -0.5 11.5t0 14.5t3 13.5t8.5 16.5t37.5 22.5t41.5 22.5q11 8 16.5 24.5t6.5 30.5l2 13q1 5 4.5 10t4.5 9l3 18q4 17 8.5 36t10.5 32q3 6 23.5 55.5t32.5 63.5q20 19 57 41t62 20q45 -2 94 -47q1 -1 7 -6.5t10 -10 t9 -11t8 -14.5t3 -16q0 -16 10 -29.5t21.5 -25t14.5 -18.5q4 -10 7.5 -42.5t12 -58t26.5 -35.5q17 -12 6.5 -62.5t-32.5 -70.5z" />
<glyph unicode="&#xc2;" d="M282 776q-4 -14 -24 -19.5t-37 3t-13 29.5q0 2 3.5 2t9.5 -0.5t10 -0.5q6 1 8.5 7t7.5 8q10 6 13 15t-7 15q-4 2 1 33q2 14 5 18.5t14 12.5q15 11 36 9q4 0 23 -13q9 -6 14 -21q4 -4 9 -10l5 -6q1 -1 4 -1.5t3 -2.5q0 -1 5.5 -3.5t10.5 -7t4 -9.5t2.5 -7t10.5 -2.5 t8 -0.5q5 -2 7.5 -5.5t4 -7t1.5 -4.5q4 -4 3.5 -16t-8.5 -19q-8 -10 -4 -11.5t12 -6t8 -13.5q0 -7 -7 -11t-14 -3.5t-8 4.5q-3 14 -16 17t-16 8t-3 11.5t-2 8.5t-11 9.5t-12 12.5t-4 7.5t-2.5 5t-2 5t-1.5 4.5t-1.5 5.5t-1 6.5t-1 9.5t-1.5 11.5q-2 8 -10 2q-14 -11 -6 -51 q1 -6 -14 -15.5t-16 -12.5zM529 281q-5 -12 -1.5 -29t9.5 -55t4 -64q-2 -19 -40 -59.5t-65 -50.5q-40 -16 -65 -18q-14 -2 -10 6q7 15 40 35q1 1 3 2q16 10 29 40.5t7 50.5q-10 32 -4 53.5t19 32.5t21 21.5t1 20.5q-5 7 -20 18.5t-20.5 25.5t0.5 40q1 2 6 14t6 19.5t-5.5 21 t-24.5 27.5q-12 12 -2 20q17 14 16.5 23.5t3.5 31.5q5 15 -1.5 35.5t-26.5 55.5t-24 43q-16 31 -29.5 40t-38.5 11q-19 1 -37 -20.5t-23 -39.5q-1 -8 -20 -32t-25 -40q-1 -4 -3.5 -10.5t-3.5 -9t-2.5 -8t-2 -10.5t-1 -14t-0.5 -21q1 -28 19 -51.5t41 -25.5q42 -4 116 14 q5 3 9 4t7 -1t2 -9q-1 -11 -43 -43t-58 -37q-10 -2 -35.5 15.5t-42.5 10.5q-32 -17 -42 -58q-1 -12 3.5 -39t4.5 -33q0 -5 -2.5 -21.5t-0.5 -25.5q1 -7 19 -29t24 -35q11 -21 27 -65q8 -21 2 -60q-1 -7 -5.5 -13.5t-9.5 -6.5q-13 0 -34 47q-9 22 -21 33t-28.5 19t-24.5 15 q-6 6 -22.5 54t-34.5 56q-26 11 -41.5 33.5t-16.5 37.5q0 2 -0.5 11.5t0 14.5t3 13.5t8.5 16.5t37.5 22.5t41.5 22.5q11 8 16.5 24.5t6.5 30.5l2 13q1 5 4.5 10t4.5 9l3 18q4 17 8.5 36t10.5 32q3 6 23.5 55.5t32.5 63.5q20 19 57 41t62 20q45 -2 94 -47q1 -1 7 -6.5t10 -10 t9 -11t8 -14.5t3 -16q0 -16 10 -29.5t21.5 -25t14.5 -18.5q4 -10 7.5 -42.5t12 -58t26.5 -35.5q17 -12 6.5 -62.5t-32.5 -70.5z" />
<glyph unicode="&#xc4;" d="M364 901q15 -4 19 -11.5t2 -14.5t2 -14q3 -5 27 5t36 -4q9 -7 5 -15t-10.5 -12t-19 -14t-21.5 -22q-18 -25 -54 10t-44 68q-4 16 1.5 19t20.5 1t36 4zM228 874q27 5 44.5 -20.5t7.5 -56.5q-11 -29 -61 -16t-78 47q-8 9 -9 15t5.5 9.5t13.5 4.5l21 3l12 1.5t11.5 1.5 t12 2.5l10.5 3.5t10 5zM529 281q-5 -12 -1.5 -29t9.5 -55t4 -64q-2 -19 -40 -59.5t-65 -50.5q-40 -16 -65 -18q-14 -2 -10 6q7 15 40 35q1 1 3 2q16 10 29 40.5t7 50.5q-10 32 -4 53.5t19 32.5t21 21.5t1 20.5q-5 7 -20 18.5t-20.5 25.5t0.5 40q1 2 6 14t6 19.5t-5.5 21 t-24.5 27.5q-12 12 -2 20q17 14 16.5 23.5t3.5 31.5q5 15 -1.5 35.5t-26.5 55.5t-24 43q-16 31 -29.5 40t-38.5 11q-19 1 -37 -20.5t-23 -39.5q-1 -8 -20 -32t-25 -40q-1 -4 -3.5 -10.5t-3.5 -9t-2.5 -8t-2 -10.5t-1 -14t-0.5 -21q1 -28 19 -51.5t41 -25.5q42 -4 116 14 q5 3 9 4t7 -1t2 -9q-1 -11 -43 -43t-58 -37q-10 -2 -35.5 15.5t-42.5 10.5q-32 -17 -42 -58q-1 -12 3.5 -39t4.5 -33q0 -5 -2.5 -21.5t-0.5 -25.5q1 -7 19 -29t24 -35q11 -21 27 -65q8 -21 2 -60q-1 -7 -5.5 -13.5t-9.5 -6.5q-13 0 -34 47q-9 22 -21 33t-28.5 19t-24.5 15 q-6 6 -22.5 54t-34.5 56q-26 11 -41.5 33.5t-16.5 37.5q0 2 -0.5 11.5t0 14.5t3 13.5t8.5 16.5t37.5 22.5t41.5 22.5q11 8 16.5 24.5t6.5 30.5l2 13q1 5 4.5 10t4.5 9l3 18q4 17 8.5 36t10.5 32q3 6 23.5 55.5t32.5 63.5q20 19 57 41t62 20q45 -2 94 -47q1 -1 7 -6.5t10 -10 t9 -11t8 -14.5t3 -16q0 -16 10 -29.5t21.5 -25t14.5 -18.5q4 -10 7.5 -42.5t12 -58t26.5 -35.5q17 -12 6.5 -62.5t-32.5 -70.5z" />
<glyph unicode="&#xc6;" horiz-adv-x="1195" d="M1163 744q12 5 19 -9t-2 -29q-6 -9 -13 -10.5t-23 -3t-34 -7.5t-45.5 -32.5t-53.5 -20.5q-25 5 -52.5 23.5t-46.5 20.5l-24 6q-23 6 -41 9t-42.5 -0.5t-37.5 -16.5q-8 -10 -17.5 -29t-16.5 -27q-20 -27 -15.5 -39t15.5 -31t6 -34q-5 -14 -20 -25q81 2 107 30q41 42 76 -7 q17 -29 -33 -57.5t-78 -22.5q-21 6 -51 6.5t-38 4.5v-1l-1 -2q-6 -29 3 -49q17 -38 19 -110q0 -12 -9 -30t-16 -34.5t-8.5 -35t16 -37.5t55.5 -36q15 -6 28 -14t17 -11t14.5 -5t20.5 5q5 2 30 28t56 49.5t55 23.5q69 0 112 -6q1 0 6 -1.5t6 -2.5t5.5 -3.5t3 -4.5t-1.5 -7 q-2 -4 -14 -11.5t-20 -17.5t-3 -25q5 -17 -14 -41t-44.5 -33.5t-47.5 6.5q-17 10 -26.5 7t-25.5 -13t-26 -10q-12 -1 -36 -11t-45 -9.5t-44 21.5q-18 13 -33.5 10t-25.5 -14l-10 -10q-20 -27 -32 -31t-44 2q-20 2 -36.5 11t-22.5 16t-17 22q-39 50 12 94q3 8 12.5 19.5 t16 19.5t10 18.5t-5.5 15.5q-8 7 -14 15.5t-10 17.5t-6.5 18t-3.5 18.5t-1.5 17t0.5 16t1 13t1 9.5l1 6q1 5 -0.5 11t-1.5 9l-2 7q-9 5 -12 9q-23 34 -66 54q-2 1 -24.5 20.5t-41.5 21.5q-7 1 -8 6.5t5 13.5q4 4 5.5 10t4 19.5t6.5 26.5q3 12 -2 29.5t-13 31.5t-22.5 37 t-19.5 33q-17 30 -31.5 39t-39.5 9q-18 0 -34.5 -21.5t-21.5 -41.5q-1 -8 -19 -33t-23 -41q-1 -5 -4.5 -15t-4 -12.5t-2 -17t0.5 -28.5q2 -29 21.5 -51t42.5 -24q19 -1 62.5 8t53.5 13q5 3 8.5 4t6.5 -1t3 -9q-1 -11 -41.5 -45.5t-55.5 -38.5q-10 -3 -36.5 13t-42.5 8 q-34 -19 -39 -60q-1 -12 5 -38.5t6 -32.5q0 -3 -2 -24t1 -23q1 -7 20.5 -27.5t25.5 -33.5q24 -48 30 -64q7 -20 5 -60q0 -7 -4.5 -14t-9.5 -7q-14 0 -36 47q-10 20 -22.5 30.5t-29.5 17.5t-26 14q-6 5 -24.5 52t-37.5 54q-27 11 -43 32.5t-17 37.5q0 1 -1.5 10.5t-1 14.5 t2.5 14t8 17t36 23t40 24q8 7 13 19.5t6 23t1 19.5l1 9q1 4 4.5 9t4.5 10q8 64 18 87q3 7 21 57t30 64q15 18 52 42.5t63 24.5q43 0 96 -43q15 -12 40 -56q2 -3 23 -31.5t26 -39.5q4 -9 8.5 -30.5t9.5 -30.5q7 -16 28 -44q17 -20 72 -10q22 3 48 33q2 14 -4.5 48t-0.5 65 t36 61l1 1l5 5q17 17 22.5 29t4 16.5t-9.5 13t-11 12.5q-11 19 2.5 25t35 6.5t23.5 5.5q10 22 37 15.5t52.5 -24t55.5 -34.5t45 -15q7 1 29.5 10t47.5 15t46 3q18 -3 40 -8t26.5 -5.5t18.5 2.5z" />
<glyph unicode="&#xc7;" horiz-adv-x="634" d="M616 166q11 -13 7.5 -37.5t-19.5 -22.5l-27 14q-27 14 -55 10q-7 -1 -30.5 -19.5t-50.5 -41t-36 -28.5q-12 -8 -29 -14v-2q-2 -6 -1 -22.5t3 -33t8.5 -28t16.5 -8.5q16 -2 23 -19.5t8.5 -41t3.5 -28.5q5 -15 -5.5 -40.5t-33.5 -15.5q-15 7 -43 0.5t-31 -5.5 q-16 6 -17 17.5t-0.5 30t-12.5 35.5q-4 5 5 17.5t8 18.5q-2 12 9 16q7 -2 8 -12q0 -41 14 -52q30 -34 49 -12q17 21 6 53q-11 28 -40 36q-9 2 -10.5 30.5t4.5 55.5q-43 -12 -88 -12q-7 0 -22 -17.5t-37 -21.5t-46 6t-31 25q-4 8 2 17t17 18t13 13q1 11 0 19t-5 26.5t-5 25.5 q-3 17 -27 44.5t-47 37.5q-13 6 -28 54t-19 102q0 7 -8 57t-7 91.5t17 70.5q27 49 38 58q16 14 50 18q30 3 48 -2.5t23 -4.5q6 1 12 7.5t13 13.5t29 14.5t56 10.5q51 9 96 8t69 -27q15 -15 34.5 -28t30 -21.5t13.5 -20.5q2 -13 -5 -27t-3 -22q9 -19 -2 -31q-4 -4 -7 0 q-4 4 -5.5 7.5t-2 9t-2.5 11.5q-16 27 -27 44t-35 38.5t-47 24.5q-10 2 -22 -6.5t-30 -24t-35 -24.5q-8 -4 -17.5 -39.5t-13.5 -39.5q-20 -19 -53 -19.5t-42 -3.5q-12 -5 -18.5 -20t-2.5 -31q17 -62 -5 -136q-4 -12 -10 -24.5t-8 -17.5t-2.5 -12t3.5 -15q5 -9 13 -40.5 t9 -34.5q0 -1 14.5 -33t17.5 -40q13 -32 41 -36t51 12q25 14 36.5 41.5t15.5 50.5t12 27q12 7 63 17t63 10q21 0 38 34.5t3 49.5q-15 16 -1 32q6 7 18.5 -3t8.5 -18q-6 -9 23 -68.5t43 -75.5z" />
<glyph unicode="&#xc8;" horiz-adv-x="616" d="M147 849q-1 2 -3 5t-2.5 5t-1.5 5t-1 5.5t0.5 6t3 7.5t6.5 9q8 14 6.5 21.5t-7.5 17.5t-6 14q1 11 20 6q56 -16 86 -32q24 -13 54 -45.5t31 -33.5q6 -4 23 -28.5t30 -31.5q39 -21 27 -56q-8 -22 -25 -24q-4 0 -7 1q-12 4 -32 45.5t-35 48.5q-38 18 -60 16 q-14 -1 -28.5 -4t-18.5 -3q-9 -1 -31 15t-29 30zM586 679q7 3 13 -2t6.5 -13.5t-4.5 -18.5q-5 -8 -11 -9.5t-20.5 -2.5t-31.5 -7q-16 -5 -41 -29t-49 -19q-22 5 -47 21.5t-43 18.5q-1 0 -21 5t-37.5 8t-39 0t-33.5 -15q-7 -9 -15.5 -26.5t-15.5 -24.5q-18 -25 -14 -36 t13.5 -27.5t5.5 -30.5q-5 -14 -18 -23q74 2 97 27q38 39 69 -6q16 -26 -29 -52.5t-71 -20.5q-19 6 -46.5 6.5t-34.5 4.5q-6 -30 2 -48q15 -33 17 -100q0 -12 -11 -34.5t-18 -39.5t6.5 -40.5t56.5 -42.5q14 -6 26 -13t15.5 -9.5t13 -4t18.5 4.5q4 2 27 25.5t51 44.5t50 21 q61 0 101 -5q1 0 4 -1l4.5 -1.5t4 -1.5t3.5 -2t2 -2.5t1 -4t-1 -4.5q0 -1 -20 -16t-14 -33q5 -15 -12.5 -37t-40.5 -30.5t-43 5.5q-16 10 -24.5 7t-23 -12.5t-23.5 -9.5q-11 -1 -32.5 -10t-40.5 -8t-40 19q-17 12 -31 9.5t-23 -11.5l-9 -10q-18 -25 -29 -28.5t-40 1.5 q-18 2 -33 11t-20 14t-16 20q-36 46 11 84q3 7 11.5 18t14.5 18t9 16.5t-5 14.5q-39 35 -29 119q1 4 -0.5 9.5t-1.5 8.5l-4 10q-3 11 -5.5 22t0 21.5t11.5 13.5q51 15 72.5 34.5t21 41t-5.5 44t1 52t32 56.5l1 1l5 5q15 16 20 26.5t4 14.5t-9 11.5t-10 11.5q-6 12 -3.5 17.5 t11.5 8t18.5 2.5t18 1t10.5 4q9 20 33.5 14t48 -21.5t50.5 -31t40 -13.5q7 1 27 9t43 13.5t42 2.5q17 -2 36.5 -6.5t23.5 -5t17 1.5z" />
<glyph unicode="&#xc9;" horiz-adv-x="639" d="M619 894q5 -6 8 -11t2 -10.5t-1 -7t-4 -7.5l-3 -7q-7 -14 -29 -30t-31 -15q-4 0 -18.5 3t-28.5 4q-22 2 -60 -16q-15 -7 -35 -48.5t-32 -45.5q-17 -6 -29 16q-17 30 11 54q5 5 13 9q13 7 30 31.5t23 28.5q1 1 31 33.5t54 45.5q30 16 86 32q19 5 20 -6q0 -4 -6 -14 t-7.5 -17.5t6.5 -21.5zM586 671q7 3 13 -2t6.5 -13.5t-4.5 -18.5q-5 -8 -11 -9.5t-20.5 -2.5t-31.5 -7q-16 -5 -41 -29t-49 -19q-22 5 -47 21.5t-43 18.5q-2 0 -21.5 5t-37 8.5t-39 0t-33.5 -15.5q-7 -9 -15.5 -26.5t-15.5 -24.5q-18 -25 -14 -36t13.5 -27.5t5.5 -30.5 q-5 -14 -18 -23q74 2 97 27q38 39 69 -6q16 -26 -29 -52.5t-71 -20.5q-19 6 -46 6.5t-35 5.5q-6 -30 2 -49q15 -33 17 -100q0 -11 -8 -27t-14.5 -30.5t-8 -31t14.5 -34.5t50 -34q14 -6 26 -13t15.5 -9.5t13 -4t18.5 4.5q4 2 27 25.5t51 44.5t50 21q61 0 101 -5q1 0 4 -1 l4.5 -1.5t4 -1.5t3.5 -2t2 -2.5t1 -4t-1 -4.5q0 -1 -20 -16t-14 -33q5 -15 -12 -37t-40 -30.5t-44 5.5q-16 10 -24.5 7t-23 -12.5t-23.5 -9.5q-11 -1 -32.5 -10t-40.5 -8t-40 19q-17 12 -31 9.5t-23 -11.5l-9 -10q-18 -25 -29 -28.5t-40 1.5q-18 2 -33 11t-20 14t-16 20 q-36 46 11 84q3 7 11.5 18t14.5 18t9 16.5t-5 14.5q-39 35 -29 119q1 4 -0.5 9.5t-1.5 8.5l-4 10q-3 11 -5.5 22t0 21.5t11.5 13.5q51 16 72.5 35t21 41t-5.5 44t1 51.5t32 56.5l1 1v1l1 1q16 17 22 28t5.5 15t-8.5 12t-10 12q-6 12 -3.5 17.5t11.5 8t18.5 2.5t18 1t10.5 4 q9 20 33.5 14t47.5 -21.5t50.5 -31t40.5 -13.5q7 1 27 9t43 13.5t42 2.5q17 -2 36.5 -6.5t23.5 -5t17 1.5z" />
<glyph unicode="&#xca;" horiz-adv-x="616" d="M263 776q-4 -14 -24 -19.5t-37 3t-13 29.5q0 2 3.5 2t9.5 -0.5t10 -0.5q6 1 8.5 7t7.5 8q10 6 13 15t-7 15q-4 2 1 33q2 14 5 18.5t14 12.5q15 11 36 9q4 0 23 -13q9 -6 14 -21q4 -4 9 -10l5 -6q1 -1 4 -1.5t3 -2.5q0 -1 5.5 -3.5t10.5 -7t4 -9.5t2.5 -7t10.5 -2.5 t8 -0.5q5 -2 7.5 -5.5t4 -7t1.5 -4.5q4 -4 3.5 -16t-8.5 -19q-8 -10 -4 -11.5t12 -6t8 -13.5q0 -7 -7 -11t-14 -3.5t-8 4.5q-3 14 -16 17t-16 8t-3 11.5t-2 8.5t-11 9.5t-12 12.5t-4 7.5t-2.5 5t-2 5t-1.5 4.5t-1.5 5.5t-1 6.5t-1 9.5t-1.5 11.5q-2 8 -10 2q-14 -11 -6 -51 q1 -6 -14 -15.5t-16 -12.5zM586 679q7 3 13 -2t6.5 -13.5t-4.5 -18.5q-5 -8 -11 -9.5t-20.5 -2.5t-31.5 -7q-16 -5 -41 -29t-49 -19q-22 5 -47 21.5t-43 18.5q-2 0 -21.5 5t-37 8.5t-39 0t-33.5 -15.5q-7 -9 -15.5 -26.5t-15.5 -24.5q-18 -25 -14 -36t13.5 -27.5t5.5 -30.5 q-5 -14 -18 -23q74 2 97 27q38 39 69 -6q16 -26 -29 -52.5t-71 -20.5q-19 6 -46 6.5t-35 5.5q-6 -30 2 -49q15 -33 17 -100q0 -11 -8 -27t-14.5 -30.5t-8 -31t14.5 -34.5t50 -34q14 -6 26 -13t15.5 -9.5t13 -4t18.5 4.5q4 2 27 25.5t51 44.5t50 21q61 0 101 -5q1 0 4 -1 l4.5 -1.5t4 -1.5t3.5 -2t2 -2.5t1 -4t-1 -4.5q0 -1 -20 -16t-14 -33q5 -15 -12 -37t-40 -30.5t-44 5.5q-16 10 -24.5 7t-23 -12.5t-23.5 -9.5q-11 -1 -32.5 -10t-40.5 -8t-40 19q-17 12 -31 9.5t-23 -11.5l-9 -10q-18 -25 -29 -28.5t-40 1.5q-18 2 -33 11t-20 14t-16 20 q-36 46 11 84q3 7 11.5 18t14.5 18t9 16.5t-5 14.5q-39 35 -29 119q1 4 -0.5 9.5t-1.5 8.5l-4 10q-3 11 -5.5 22t0 21.5t11.5 13.5q51 16 72.5 35t21 41t-5.5 44t1 51.5t32 56.5l1 1v1l1 1q16 17 22 28t5.5 15t-8.5 12t-10 12q-6 12 -3.5 17.5t11.5 8t18.5 2.5t18 1t10.5 4 q9 20 33.5 14t47.5 -21.5t50.5 -31t40.5 -13.5q7 1 27 9t43 13.5t42 2.5q17 -2 36.5 -6.5t23.5 -5t17 1.5z" />
<glyph unicode="&#xcb;" horiz-adv-x="616" d="M525 749q-18 -25 -54 10t-44 68q-4 16 1.5 19t20.5 1t36 4q15 -4 19 -11.5t2 -14.5t2 -14q3 -5 27 5t36 -4q9 -7 5 -15t-10.5 -12t-19 -14t-21.5 -22zM401 747q-11 -29 -61 -16t-78 47q-8 9 -9 15t5.5 9.5t13.5 4.5l21 3l12 1.5t11.5 1.5t12 2.5l10.5 3.5t10 5 q27 5 44.5 -20.5t7.5 -56.5zM586 679q7 3 13 -2t6.5 -13.5t-4.5 -18.5q-5 -8 -11 -9.5t-20.5 -2.5t-31.5 -7q-16 -5 -41 -29t-49 -19q-22 5 -47 21.5t-43 18.5q-1 0 -21 5t-37.5 8t-39 0t-33.5 -15q-7 -9 -15.5 -26.5t-15.5 -24.5q-18 -25 -14 -36t13.5 -27.5t5.5 -30.5 q-5 -14 -18 -23q74 2 97 27q38 39 69 -6q16 -26 -29 -52.5t-71 -20.5q-19 6 -46.5 6.5t-34.5 4.5q-6 -30 2 -48q15 -33 17 -100q0 -12 -11 -34.5t-18 -39.5t6.5 -40.5t56.5 -42.5q14 -6 26 -13t15.5 -9.5t13 -4t18.5 4.5q4 2 27 25.5t51 44.5t50 21q61 0 101 -5q1 0 4 -1 l4.5 -1.5t4 -1.5t3.5 -2t2 -2.5t1 -4t-1 -4.5q0 -1 -20 -16t-14 -33q5 -15 -12.5 -37t-40.5 -30.5t-43 5.5q-16 10 -24.5 7t-23 -12.5t-23.5 -9.5q-11 -1 -32.5 -10t-40.5 -8t-40 19q-17 12 -31 9.5t-23 -11.5l-9 -10q-18 -25 -29 -28.5t-40 1.5q-18 2 -33 11t-20 14t-16 20 q-36 46 11 84q3 7 11.5 18t14.5 18t9 16.5t-5 14.5q-39 35 -29 119q1 4 -0.5 9.5t-1.5 8.5l-4 10q-3 11 -5.5 22t0 21.5t11.5 13.5q51 15 72.5 34.5t21 41t-5.5 44t1 52t32 56.5l1 1l5 5q15 16 20 26.5t4 14.5t-9 11.5t-10 11.5q-6 12 -3.5 17.5t11.5 8t18.5 2.5t18 1 t10.5 4q9 20 33.5 14t48 -21.5t50.5 -31t40 -13.5q7 1 27 9t43 13.5t42 2.5q17 -2 36.5 -6.5t23.5 -5t17 1.5z" />
<glyph unicode="&#xce;" horiz-adv-x="315" d="M89 740q-4 -14 -25.5 -20t-39 3t-13.5 31q0 2 3.5 2t10 -0.5t10.5 -0.5q6 1 9 7t8 9q11 6 14 15.5t-8 15.5q-4 2 1 35q2 14 5.5 19t14.5 13q16 12 38 10q5 0 10 -3t9 -7l5 -4q9 -7 15 -22q4 -4 9 -10t6 -7t4 -1.5t3 -2.5q0 -1 6 -3.5t11 -7.5t4 -10t2.5 -7t11 -2.5 t8.5 -0.5q5 -2 8 -5.5t5 -7.5l1 -5q4 -4 3.5 -16.5t-9.5 -20.5q-8 -10 -4 -11.5t12.5 -6.5t8.5 -14q0 -7 -7.5 -11.5t-14.5 -4t-8 4.5q-4 15 -17.5 18.5t-16.5 7.5q-3 5 -3 12t-2 9q-2 3 -11.5 10.5t-12.5 12.5q-3 6 -4.5 8.5t-3.5 6.5l-2.5 5t-1.5 6.5t-1 7.5t-1 10.5 t-2 13.5v1q-2 8 -10 1q-15 -12 -7 -53q1 -7 -14.5 -16.5t-16.5 -13.5zM305 388q1 -11 -6 -38.5t-20 -68t-16 -50.5q-8 -27 -37.5 -70t-49.5 -65q-44 -49 -64 -53q-10 -2 -18.5 -7.5t-19.5 -17t-14 -13.5q-8 -5 -10.5 -3.5t-6 9t-6.5 9.5l59 175q6 18 6.5 34.5t-1 25.5 t-9.5 20t-9.5 12.5t-10.5 9.5q-29 29 -25 43q1 4 3 6t7.5 3t9 1.5t13.5 0.5h15q8 0 12 0.5t7 2.5t4 2.5t4.5 5.5t5.5 8q7 9 -2.5 27t-17.5 21q-4 1 -52 28q-13 9 10 19l7 2q36 12 54 27q7 6 9 25t1.5 37.5t0.5 32.5q1 11 -3 30.5t-11.5 49t-10.5 40.5q0 5 2 9.5t7 7.5t15 -7 q14 -13 28 -35.5t16 -34.5q1 -12 0.5 -13.5t-2.5 -19.5t-3 -42q-2 -43 12.5 -63.5t54.5 -40.5q56 -27 62 -82z" />
<glyph unicode="&#xcf;" horiz-adv-x="393" d="M253 977q15 -5 19.5 -13t2 -15t2.5 -14q3 -5 28 5t38 -4q5 -9 6 -13.5t-5.5 -10.5t-13.5 -10.5t-17.5 -13.5t-17.5 -19q-20 -26 -57.5 11t-45.5 71q-5 17 1 20.5t22 1t38 4.5zM110 948q29 5 46.5 -22t7.5 -59q-12 -31 -64 -16.5t-81 49.5q-10 22 -4 26t36 7q10 2 16 2.5 t15 2t15.5 4.5t12.5 6zM191 709q0 5 2 9.5t7 7.5t15 -7q14 -13 28 -35.5t16 -34.5q1 -12 0.5 -13.5t-2.5 -19.5t-3 -42q-2 -43 12.5 -63.5t54.5 -40.5q56 -27 62 -82q1 -11 -6.5 -39.5t-19.5 -66.5t-16 -51q-8 -27 -37.5 -70t-49.5 -65q-44 -49 -64 -53q-10 -2 -18.5 -7.5 t-19.5 -17t-14 -13.5q-9 -5 -11 -3.5t-5.5 9t-6.5 9.5l59 175q4 11 5.5 20.5t1.5 17.5t-0.5 14.5t-3.5 12.5t-4.5 10t-5.5 9t-6 7l-6 6l-5 5q-30 30 -25 43q1 4 3 6t7.5 3t9 1.5t13.5 0.5h15q8 0 12 0.5t7 2.5t4 2.5t4 5.5t5 8q8 10 -1.5 27.5t-18.5 20.5q-15 5 -51 28 q-13 9 10 19q3 1 7 2q36 12 53 27q7 6 9.5 23t2.5 42v30q1 11 -3 30.5t-11.5 49t-10.5 40.5z" />
<glyph unicode="&#xd4;" horiz-adv-x="593" d="M249 876q-6 -20 -33 -27q-30 -6 -34 16q-2 7 0 15q0 2 3.5 2t10 -0.5t11.5 -0.5q6 1 15 7.5t12 8.5q11 6 14 15.5t-8 15.5q-4 2 1 35q1 10 0.5 15t1 8.5t8.5 8.5q16 12 38 10q4 0 24 -14q5 -4 15 -21q4 -5 8.5 -11t5.5 -7t4.5 -1.5t3.5 -2.5q0 -1 6 -3.5t11 -7.5t4 -10 t2.5 -7t10.5 -2.5t9 -0.5q5 -2 7.5 -5.5t4 -7.5t1.5 -5q5 -4 4.5 -17t-9.5 -20q-11 -10 3 -16.5t14 -16.5q0 -7 -7.5 -11.5t-15 -3.5t-8.5 5q-3 15 -16.5 18t-16.5 8t-3 12t-2 9q-1 1 -11 9.5t-14 13.5q-5 9 -6.5 14t-2.5 8t-2 14t-2 21v6q-27 2 -43 -41q-3 -6 -10.5 -18.5 t-8.5 -16.5zM561 535q11 -12 17.5 -37.5t4.5 -43.5q-2 -24 -33 -33q-15 -4 -44.5 -19.5t-43.5 -27.5q-2 -2 -10 -8.5t-13 -10.5t-13.5 -12t-12.5 -12t-9.5 -11.5t-4.5 -10.5t2 -8l10 -10t12 -12.5t9 -16t9 -27.5q1 -4 8 -22t11 -36t2 -32q-1 -4 -2 -11t-1 -9.5t-2 -8t-4 -9 t-6.5 -10t-10.5 -14.5t-15 -19q-19 -23 -27.5 -29.5t-22 -10t-28.5 -11.5q-51 -27 -83 -26q-4 -2 -29 11t-33 21q-3 4 -6.5 24.5t-14.5 31.5q-9 10 -39 19.5t-44 21.5q-19 16 -38.5 59t-24.5 69q-4 23 -12 92t-9 90q-1 22 7 65t18 72q4 12 7.5 20t10 18t8.5 13.5t13.5 19 t15.5 20.5q17 23 37.5 48.5t27.5 34.5q16 20 55.5 35.5t65.5 11.5q20 -3 47.5 -23t34.5 -22q29 -10 85 -51q14 -10 36 -46t23 -38q6 -5 29 -33t30 -36zM455 515q-1 10 1 14.5t-2 12.5t-4 10.5t-6.5 9.5t-9 9.5t-10 9.5t-10.5 10q-7 6 -11.5 22t-9.5 31.5t-16 30.5 t-36.5 23.5t-64.5 6.5q-18 -1 -42.5 -43t-29.5 -62q-3 -13 10.5 -45.5t9.5 -50.5q-2 -9 -7.5 -20.5t-16.5 -25.5t-18.5 -23t-22 -25.5t-17.5 -19.5q-20 -25 -36.5 -76.5t-12.5 -81.5q5 -32 27.5 -68t40.5 -40q13 -2 31.5 12.5t31.5 13.5q6 -1 22.5 -15.5t44.5 -14.5 q31 0 50.5 28.5t17.5 43.5q-4 33 -55 45q-4 1 -15 1.5t-16 2.5t-11.5 12t-10.5 29q-3 15 6 31.5t28 32t34.5 26.5t37.5 23.5t25 14.5q22 13 44.5 45t28.5 60z" />
<glyph unicode="&#xd6;" horiz-adv-x="593" d="M336 998q16 -5 20 -13t2 -15t2 -15q3 -5 28.5 6t37.5 -4q5 -9 6 -13.5t-5.5 -10.5t-13.5 -10.5t-17.5 -13.5t-17.5 -19q-19 -27 -57 10t-46 72q-5 17 1 20.5t22 1t38 4.5zM193 969q29 5 47 -22t8 -59q-12 -31 -64.5 -16.5t-82.5 49.5q-10 22 -3.5 26t36.5 7q10 2 16 2.5 t15 2t15.5 4.5t12.5 6zM260 -13q-4 -2 -29 11t-33 21q-3 4 -6.5 24.5t-14.5 31.5q-9 10 -39 19.5t-44 21.5q-19 16 -38.5 59t-24.5 69q-4 23 -12 92t-9 90q-1 22 7 65t18 72q4 12 7.5 20t10 18t8.5 13.5t13.5 19t15.5 20.5q17 23 37.5 48.5t27.5 34.5q16 20 55.5 35.5 t65.5 11.5q20 -3 47.5 -23t34.5 -22q29 -10 85 -51q14 -10 36 -46t23 -38q6 -5 29 -33t30 -36q11 -12 17.5 -37.5t4.5 -43.5q-2 -24 -33 -33q-15 -4 -44.5 -19.5t-43.5 -27.5q-2 -2 -10 -8.5t-13 -10.5t-13.5 -12t-12.5 -12t-9.5 -11.5t-4.5 -10.5t2 -8l10 -10t12 -12.5 t9 -16t9 -27.5q1 -4 8 -22t11 -36t2 -32q-1 -4 -2 -11t-1 -9.5t-2 -8t-4 -9t-6.5 -10t-10.5 -14.5t-15 -19q-19 -23 -27.5 -29.5t-22 -10t-28.5 -11.5q-51 -27 -83 -26zM224 150q6 -1 22.5 -15.5t44.5 -14.5q31 0 50.5 28.5t17.5 43.5q-4 33 -55 45q-4 1 -15 1.5t-16 2.5 t-11.5 12t-10.5 29q-3 15 6 31.5t28 32t34.5 26.5t37.5 23.5t25 14.5q22 13 44.5 45t28.5 60q-1 10 1 14.5t-2 12.5t-4 10.5t-6.5 9.5t-9 9.5t-10 9.5t-10.5 10q-7 6 -11.5 22t-9.5 31.5t-16 30.5t-36.5 23.5t-64.5 6.5q-18 -1 -42.5 -43t-29.5 -62q-3 -13 10.5 -45.5 t9.5 -50.5q-2 -9 -7.5 -20.5t-16.5 -25.5t-18.5 -23t-22 -25.5t-17.5 -19.5q-20 -25 -36.5 -76.5t-12.5 -81.5q5 -32 27.5 -68t40.5 -40q13 -2 31.5 12.5t31.5 13.5z" />
<glyph unicode="&#xd7;" horiz-adv-x="372" d="M312 346q-13 -20 -45.5 -32t-34.5 -23q-2 -10 -9 -19q14 -14 31 -15q12 -1 16 -6t5 -17.5t3 -18.5q1 -4 3 -11.5t3.5 -10.5t5.5 -9t11.5 -11.5t20.5 -12.5q45 -24 22 -45q-18 -17 -46 -12q-11 3 -17 9q-3 4 -5 28t-14 27q-34 10 -61 45q-5 8 -17 11q-3 -5 -5 -10 q-4 -10 -5.5 -19t-2 -13t-3.5 -7t-11 -6q-7 -2 -29 -19.5t-62 -35.5q-43 -20 -54 5q-8 19 9 34q5 4 12 6q1 0 16.5 3.5t24.5 6t19.5 9t12.5 13.5q1 4 -3 27.5t0 38.5t24 11q10 -1 20 12q-4 22 -23 44q-2 2 -14 15.5t-20 23t-17.5 23t-13 25.5t-0.5 21q8 32 39 28 q26 -3 35 -27q7 -16 -3 -33q-4 -7 9 -14t30 -17.5t20 -26.5l3 -12q29 26 53 27q15 0 30.5 16t24.5 31t24.5 20.5t32.5 -14.5q9 -11 4.5 -20t-11.5 -12.5t-19 -12t-19 -18.5z" />
<glyph unicode="&#xd9;" d="M510 843q-15 8 -33 34.5t-25 31.5q-1 0 -34.5 37t-59.5 51q-41 19 -95 35q-21 5 -23 -7q0 -4 6.5 -15t8.5 -19.5t-7 -23.5q-5 -6 -7.5 -11.5t-3.5 -9t0 -8t2 -6.5l3.5 -7t3.5 -6q8 -16 32 -33.5t34 -16.5q5 0 21 3.5t31 4.5q25 2 67 -18q17 -8 38.5 -53.5t35.5 -50.5 q18 -6 32 17q18 31 -9 58q-7 7 -18 13zM556 612q-11 16 -47 19t-42 -21q-3 -19 12 -67.5t14 -59.5q0 -4 -13.5 -63.5t-12.5 -69.5q3 -30 -20.5 -78t-52.5 -81q-26 -30 -92 -45t-108 5q-22 11 -34 39t-3 58q4 13 16 25.5t22.5 22t17.5 33t5 58.5q-1 15 15.5 38.5t34.5 46 t28 59.5t-5 81q-5 15 -13.5 73t-13.5 81l-4.5 9t-5 9.5t-6 7.5t-7.5 3t-9 -3q-3 -2 -12.5 -6t-14 -7t-11.5 -10.5t-5 -15.5t5 -23q2 -6 -5.5 -16t-19.5 -23t-16 -20q-13 -22 -15 -68.5t6 -58.5q4 -9 22 -27t30 -34q10 -18 4 -26.5t-16.5 -25t-9.5 -31.5q2 -24 -21.5 -50.5 t-51.5 -47.5t-31 -28q-2 -5 -44 -99q-18 -42 -15.5 -56.5t27.5 -44.5q5 -6 8 -9q9 -12 83 -55q31 -18 97 -4q32 7 97 46q17 10 61.5 9t46.5 5q11 12 35 -2t37 -5q7 5 12.5 13t9.5 21.5t6 19.5t5.5 25t3.5 21q8 36 8.5 39.5t-1.5 47.5q-2 17 -13.5 48.5t-18.5 56.5t-3 36 q6 16 12.5 30.5t9.5 20.5t5 12.5t1.5 11t-2.5 12.5q-4 15 16 63.5t2 74.5z" />
<glyph unicode="&#xdb;" horiz-adv-x="583" d="M555 712q-9 -11 -4.5 -12.5t13.5 -7t9 -14.5q0 -8 -8 -12.5t-15.5 -3.5t-8.5 5q-4 15 -17.5 18.5t-17.5 8.5t-3.5 12.5t-2.5 10.5q-1 2 -11.5 10t-13.5 14q-5 8 -7 11.5t-3.5 9.5l-2 8t-2 13t-2.5 19q-2 8 -10 2q-17 -11 -8 -56q2 -7 -15 -17.5t-18 -13.5 q-4 -15 -26.5 -21.5t-41.5 2.5t-14 33q0 2 4 2t10.5 -0.5t11.5 -0.5q6 1 9 7.5t8 9.5q12 6 15 16.5t-8 16.5q-2 1 -3 3t-0.5 5.5l1 7t1.5 9.5t2 11q2 15 5.5 20.5t15.5 14.5q17 12 40 10q4 -1 8.5 -3t7 -4.5t5.5 -5t4 -2.5q10 -6 16 -23q9 -9 15 -18q1 -1 4 -1q3 -2 4 -3 l7 -3q6 -4 11.5 -9t3.5 -10q-1 -5 3 -7.5t12 -3t9 -0.5q5 -2 8 -6t5 -8l1 -5q4 -4 3.5 -17.5t-9.5 -21.5zM555 612q21 -21 0 -72t-17 -66q2 -8 2 -12.5t-2 -11t-4.5 -12.5t-9.5 -20.5t-13 -30.5q-6 -14 14 -69t22 -72q2 -41 1.5 -47.5t-8.5 -39.5q-1 -4 -5.5 -26.5t-7 -31 t-9.5 -22t-16 -20.5q-12 -9 -36.5 5t-35.5 2q-5 -6 -46 -5t-61 -9q-64 -38 -97 -46q-66 -14 -98 4q-72 42 -83 55q-3 3 -8 10q-24 31 -26.5 44t14.5 56q14 30 27 58.5t18 40.5q3 7 31 28t51.5 47.5t21.5 50.5q-2 15 9 31.5t17 25t-4 26.5q-12 16 -30 34t-22 27 q-8 12 -6 58.5t15 68.5q4 7 16 20t19.5 23t5.5 16q-3 15 -5 23t5 15.5t11.5 10.5t13.5 7t12 6q4 2 7 2.5t6 -0.5t5 -3t4 -5.5t3.5 -6t3.5 -7t3 -6.5q5 -22 14 -80.5t14 -73.5q15 -44 5 -81t-28 -59.5t-34.5 -46t-15.5 -38.5q2 -35 -5.5 -58.5t-18 -33t-22 -21.5t-15.5 -26 q-9 -30 3 -58t34 -39q42 -20 108 -5t92 45q28 33 51.5 81.5t21.5 77.5q-1 10 12 69.5t13 63.5q1 11 -13.5 60t-11.5 67q5 24 41 21t47 -19z" />
<glyph unicode="&#xdc;" horiz-adv-x="617" d="M373 936q30 -5 40.5 -37.5t-10.5 -61.5q-20 -29 -69 2t-68 76q-11 23 2.5 26.5t39.5 -2.5q6 -1 9.5 -2t9.5 -1.5t10 -1t9.5 -1t9.5 0t8.5 1t8.5 1.5zM526 920q14 -9 16 -17.5t-2 -17.5t-3 -15t30 -3.5t38 -16.5q6 -14 -2 -19.5t-30 -12t-38 -18.5q-27 -21 -54 27.5 t-25 86.5q1 12 3 16t8 3t13 -4t20 -6t26 -3zM556 612q-11 16 -47 19t-42 -21q-3 -19 12 -67.5t14 -59.5q0 -4 -13.5 -63.5t-12.5 -69.5q3 -30 -20.5 -78t-52.5 -81q-26 -30 -92 -45t-108 5q-22 11 -34 39t-3 58q4 13 16 25.5t22.5 22t17.5 33t5 58.5q-1 15 15.5 38.5 t34.5 46t28 59.5t-5 81q-5 15 -13.5 73t-13.5 81q-2 4 -6 19q-6 27 -12 27q-5 -1 -13 -18q-1 -1 -1 -2q-3 -6 -18 -14t-20.5 -15.5t0.5 -32.5q2 -6 -5.5 -16t-19.5 -23t-16 -20q-13 -22 -15 -68.5t6 -58.5q4 -9 22 -27t30 -34q10 -18 4 -26.5t-16.5 -25t-9.5 -31.5 q2 -24 -21.5 -50.5t-51.5 -47.5t-31 -28q-2 -5 -44 -99q-18 -42 -15.5 -56.5t27.5 -44.5q5 -6 8 -9q9 -12 83 -55q31 -18 97 -4q32 7 97 46q17 10 61.5 9t46.5 5q11 12 35 -2t37 -5q7 5 12.5 13t9.5 21.5t6 19.5t5.5 25t3.5 21q8 36 8.5 39.5t-1.5 47.5q-2 17 -13.5 48.5 t-18.5 56.5t-3 36q6 16 12.5 30.5t9.5 20.5t5 12.5t1.5 11t-2.5 12.5q-4 15 16 63.5t2 74.5z" />
<glyph unicode="&#xdf;" horiz-adv-x="527" d="M179 85q-7 15 10.5 27.5t30.5 3.5q16 -11 31.5 -13t29 3.5t23.5 12.5t22 17.5t18 14.5q3 2 8.5 5.5t8.5 5.5t7.5 5.5t7 5.5t6 6t5 7t3.5 7.5t2.5 9t0.5 10.5q-1 27 -24 85.5t-40 73.5q-21 19 -71 18t-58 -17q-8 -12 -18.5 -11t-18 11t-2.5 21q6 16 17.5 21.5t21 3.5 t22 -6t17.5 -4q27 -1 46.5 13t28.5 35.5t12.5 35.5t4.5 23t-0.5 22.5t-12 30t-29.5 20.5q-23 5 -33.5 0t-16.5 -4q-9 2 -12.5 10.5t-15.5 9.5q-19 0 -54 -21.5t-44 -46.5q-9 -29 -1 -83t23 -79q4 -7 15.5 -27t18.5 -32.5t13.5 -29t6.5 -26.5q0 -23 -9.5 -46.5t-23.5 -35.5 q-1 -1 -6 -23t-18 -34q-13 -11 -21 -42.5t1 -51.5q5 -10 -1.5 -18.5t-16 -10t-12.5 0.5l-14 18q-11 14 -8.5 47.5t-3.5 48.5q-6 12 -4 30t-9 41q-12 17 -6.5 44t3.5 41q-3 17 -17.5 49.5t-12.5 44.5q23 90 49 159q9 23 33.5 57.5t43.5 46.5q15 9 24 8t17 6q11 8 17.5 25.5 t10.5 20.5q19 15 42 12q3 -1 6 -5.5t12.5 -14.5t24.5 -22q13 -10 41.5 -14.5t44.5 -34.5q6 -11 14 -24.5t9.5 -16.5t7 -9t9.5 -8.5t14 -8.5q16 -8 0 -34t-33 -42q-12 -10 -15 -31.5t-10 -26.5q-7 -4 3.5 -15t29 -25.5t23.5 -20.5q3 -3 12.5 -19.5t21.5 -28t30 -17.5 q28 -7 25 -34q-2 -16 -11.5 -38t-20.5 -30q-10 -8 -36 -29.5t-28 -23.5q-4 -2 -28.5 -30.5t-38.5 -34.5q-60 -29 -84 -31q-16 -2 -49 17t-42 39z" />
<glyph unicode="&#xe0;" horiz-adv-x="379" d="M293 590q-13 7 -30 31.5t-23 28.5q-1 1 -31 33.5t-54 45.5q-30 16 -86 32q-19 5 -20 -6q0 -4 6 -14t7.5 -17.5t-6.5 -21.5q-5 -6 -8 -11t-2 -10.5t1 -7t3 -7.5l4 -7q7 -14 29 -30t31 -15q4 0 18.5 3t28.5 4q22 2 60 -16q15 -7 35 -48.5t32 -45.5q17 -6 29 16 q17 30 -11 54q-5 5 -13 9zM314 253l9 -21q4 -9 -0.5 -33.5t0.5 -29.5q5 -8 6.5 -17t0 -26t-1.5 -24q0 -16 11.5 -33t21 -29t7.5 -18q-3 -10 -17.5 -14.5t-23.5 5.5q-7 6 -24 4.5t-25 -5.5q-44 -11 -72 -9h-33t-45 1t-30 5q-19 7 -47.5 29t-35.5 43q-14 36 7 86q1 4 42 58 q6 7 2 16.5t5.5 24.5t36.5 27q17 8 53.5 0t66.5 -16.5t34 -3.5q10 8 5.5 37.5t-22.5 49.5q-6 5 -24 4.5t-36.5 -4.5t-40 9t-36.5 46q-7 16 -40 -36q-23 -37 -24 -50q0 -5 4 -15.5t-0.5 -15t-21.5 -9.5q-4 -1 -5.5 4t-2.5 21q0 5 -0.5 8.5t-1 9.5t-1.5 11q-6 46 1.5 77.5 t23.5 46t40.5 19.5t46.5 2.5t46.5 -9.5t36 -11.5t19.5 -8.5q3 -1 19 -8t29.5 -13t28 -13.5t21.5 -14t4 -11.5q-5 -6 -7.5 -20.5t-3 -27t-1 -30.5t-0.5 -21q0 -5 -4 -13.5t-5 -14t4 -19.5zM141 239q-15 -1 -24 -7t-18.5 -21t-13.5 -19q-7 -6 -4.5 -18.5t7.5 -21.5t12.5 -22 t9.5 -20q2 -8 0.5 -16t-3 -15.5t-3 -13t1 -9t8.5 -2.5q13 2 41 -12.5t35 -15.5q16 -2 41 8.5t33 26.5q5 11 -10 36t-15 32q0 6 -9 23t-11.5 29.5t10.5 32.5q10 11 -16 17q-30 8 -72 8z" />
<glyph unicode="&#xe2;" horiz-adv-x="379" d="M135 566q-4 -14 -24 -19.5t-37 3t-13 29.5q0 2 3.5 2t9.5 -0.5t10 -0.5q6 1 8.5 7t7.5 8q10 6 13 15t-7 15q-4 2 1 33q2 14 5 18.5t14 12.5q15 11 36 9q4 0 23 -13q9 -6 14 -21q4 -4 9 -10l5 -6q1 -1 4 -1.5t3 -2.5q0 -1 5.5 -3.5t10.5 -7t4 -9.5t2.5 -7t10.5 -2.5 t8 -0.5q5 -2 7.5 -5.5t4 -7t1.5 -4.5q4 -4 3.5 -16t-8.5 -19q-8 -10 -4 -11.5t12 -6t8 -13.5q0 -7 -7 -11t-14 -3.5t-8 4.5q-3 14 -16 17t-16 8t-3 11.5t-2 8.5t-11 9.5t-12 12.5t-4 7.5t-2.5 5t-2 5t-1.5 4.5t-1.5 5.5t-1 6.5t-1 9.5t-1.5 11.5q-2 8 -10 2q-14 -11 -6 -51 q1 -6 -14 -15.5t-16 -12.5zM329 100q0 -21 21 -47.5t19 -31.5q-4 -10 -18 -15t-24 6q-6 5 -23.5 3.5t-25.5 -5.5q-40 -11 -72 -9q-17 1 -35.5 0.5t-40 0.5t-32.5 5q-19 7 -47.5 29t-35.5 43q-11 31 7 86q1 2 43 58q6 7 2 16.5t5.5 24.5t35.5 27q22 10 86 -7.5t69 -12.5 q9 7 5 37.5t-23 49.5q-6 5 -24 4.5t-36 -4.5t-40 9t-37 46q-7 16 -39 -36q-23 -37 -24 -50q0 -6 2 -13.5t2.5 -11t-4.5 -8t-18 -7.5q-5 -1 -7 9q-1 5 -2 20l-3 25q-6 46 1.5 78t23.5 46.5t41 19t46 2.5t46.5 -9.5t36 -11.5t20.5 -9q2 -1 18.5 -8t29.5 -13t28 -13.5t22 -14 t4 -11.5q-5 -6 -7.5 -20.5t-3 -27t-1 -30.5t-0.5 -21q0 -4 -4.5 -12.5t-5.5 -14.5t4 -20l9 -21q5 -9 0.5 -33t-0.5 -30q5 -8 6.5 -17t0.5 -26.5t-1 -23.5zM264 60q5 10 -9.5 35t-14.5 32q0 5 -6 16t-10.5 21t-4 23.5t10.5 24.5q13 14 -39 21q-27 4 -50 4q-15 0 -24 -6 t-18 -21t-13 -20q-7 -6 -4.5 -18t7.5 -21.5t12 -22.5t9 -20q2 -8 1 -16t-3 -15.5t-3 -13t1 -9t9 -2.5q13 2 40.5 -12.5t34.5 -15.5q16 -2 41 9t33 27z" />
<glyph unicode="&#xe4;" horiz-adv-x="388" d="M241 701q15 -4 19 -11.5t2 -14.5t2 -14q3 -5 27 5t36 -4q9 -7 5 -15t-10.5 -12t-19 -14t-21.5 -22q-18 -25 -54 10t-44 68q-4 16 1.5 19t20.5 1t36 4zM105 674q27 5 44.5 -20.5t7.5 -56.5q-11 -29 -61 -16t-78 47q-8 9 -9 15t5.5 9.5t13.5 4.5l21 3l12 1.5t11.5 1.5 t12 2.5l10.5 3.5t10 5zM323 253l9 -21q4 -9 -0.5 -33.5t0.5 -29.5q5 -8 6.5 -17t0 -26t-1.5 -24q0 -16 11.5 -33t21 -29t7.5 -18q-3 -10 -17.5 -14.5t-23.5 5.5q-7 6 -24 4.5t-25 -5.5q-44 -11 -72 -9h-33t-45 1t-30 5q-19 7 -47.5 29t-35.5 43q-14 36 7 86q1 4 42 58 q6 7 2 16.5t5.5 24.5t36.5 27q17 8 53.5 0t66.5 -16.5t34 -3.5q10 8 5.5 37.5t-22.5 49.5q-6 5 -24 4.5t-36.5 -4.5t-40 9t-36.5 46q-7 16 -40 -36q-23 -36 -24 -50q0 -5 4 -15.5t-0.5 -15t-21.5 -9.5q-2 -1 -3.5 0.5t-2 6t-1 10l-1.5 16.5t-3 21q-9 55 8.5 87.5t47.5 41 t66 6.5t59.5 -8.5t32.5 -10.5q3 -1 19 -8t29.5 -13t28 -13.5t21.5 -14t4 -11.5q-5 -6 -7.5 -20.5t-3 -27t-1 -30.5t-0.5 -21l-6 -20q-7 -19 1 -27zM150 239q-15 -1 -24 -7t-18.5 -21t-13.5 -19q-7 -6 -4.5 -18.5t7.5 -21.5t12.5 -22t9.5 -20q2 -8 0.5 -16t-3 -15.5t-3 -13 t1 -9t8.5 -2.5q13 2 41 -12.5t35 -15.5q16 -2 41 8.5t33 26.5q5 11 -10 36t-15 32q0 6 -9 23t-11.5 29.5t10.5 32.5q10 11 -16 17q-30 8 -72 8z" />
<glyph unicode="&#xe6;" horiz-adv-x="686" d="M654 346q-3 -7 11.5 -54t9.5 -56q-4 -8 -69 -24t-70 -23q-20 -18 -60.5 -10.5t-82 31t-44.5 42.5q-3 17 16 24.5t37 -8.5q25 -22 37.5 -32t30 -18.5t29.5 -4.5q19 6 54 35t33 46q-3 23 -16.5 33.5t-28.5 10.5t-31.5 5.5t-24.5 18.5q-4 8 -11.5 14t-20.5 8t-29 -3.5 t-38.5 -23.5t-46.5 -49q-18 -19 -15 -55t9.5 -58t12.5 -35q3 -6 12.5 -18t27.5 -30t38.5 -28.5t47.5 -15t54 10.5q3 2 20 12.5t28 15.5t30 2.5t36 -18.5q19 -17 2 -41t-40 -7q-16 8 -41.5 9.5t-56 -12t-43.5 -37.5q-33 -24 -127 9l-7 3q-2 0 -3 1q-9 2 -24.5 0t-21.5 -6 q-40 -11 -71 -9h-33.5t-45 1t-29.5 5q-19 7 -48 29t-36 43q-11 31 7 86q1 2 43 58q6 7 2 16.5t5.5 24.5t36.5 27q22 10 85.5 -7.5t68.5 -12.5q10 8 5.5 37.5t-22.5 49.5q-6 5 -24 4.5t-36.5 -4.5t-40 9t-36.5 46q-8 15 -40 -36q-23 -37 -24 -50q0 -6 3.5 -16.5t-0.5 -15 t-21 -8.5h-2t-2 1.5t-1.5 3t-1 4t-1 5.5t-0.5 7.5t-0.5 9t-1.5 11t-2 12.5q-6 46 1.5 77.5t23.5 46t41 19.5t46 2.5t46.5 -9.5t36 -11.5t20.5 -8.5q2 -1 16.5 -7t26 -11t26 -12t23.5 -13.5t11 -11.5q34 47 80 69q13 6 22 9.5t18.5 4.5t15 2t14 -3t12.5 -5.5t14.5 -10.5 t15 -13.5t18.5 -19t22 -22.5l17 -7q16 -8 33.5 -16.5t30 -21t8.5 -22.5zM190 24q16 -2 41.5 8.5t33.5 26.5v1q-9 22 -13 40q-12 20 -12 27q0 5 -6 16t-10.5 21t-4 23.5t10.5 24.5q13 14 -39 21q-27 4 -50 4q-15 -1 -23.5 -7t-18 -20.5t-13.5 -19.5q-7 -6 -4.5 -18t7.5 -21.5 t12 -22.5t9 -20q2 -8 1 -16t-3 -15.5t-3 -13t1 -9t9 -2.5q13 2 40.5 -12.5t34.5 -15.5z" />
<glyph unicode="&#xe7;" horiz-adv-x="492" d="M476 201q-9 -8 -1 -39t6 -38q-27 -81 -37 -95q-16 -24 -64 -27q-7 -1 -16 -1q-22 0 -61 17q2 -16 7.5 -25t15.5 -6q15 -2 21 -16t7 -32.5t3 -21.5q5 -12 -5 -32.5t-30 -11.5q-14 5 -38 0t-27 -4q-11 4 -14 10.5t-1 14t-0.5 18.5t-11.5 22q-3 4 5 14t7 14q-2 8 6 13 q7 -1 9 -13q3 -4 4 -17.5t8 -20.5q28 -28 45 -8q15 18 3 44q-10 19 -34 25q-14 3 -10 48q-25 14 -54 36q-16 12 -34 16t-30.5 4t-28 10.5t-29.5 35.5q-8 14 -17 30.5t-12.5 22.5t-8 13t-9.5 10.5t-11.5 7.5t-18.5 10q-23 12 0.5 51t46.5 57q9 7 22.5 33t25.5 49.5t34.5 39.5 t49.5 9q39 -24 88 -12t63 37q12 16 27 15.5t26 -15.5t5 -29q-10 -23 -27 -33.5t-29.5 -11t-33 2.5t-24.5 3q-31 0 -55.5 -15t-38.5 -36t-23.5 -45.5t-13 -39.5t-3.5 -23q-2 -27 11.5 -76.5t47.5 -66.5q37 -18 66.5 -25.5t47 -5.5t29 10t16 17t5.5 18q1 16 8.5 29.5t12 18 t22 16.5t18.5 13q14 34 28 23q13 -11 7 -29q-1 -4 -3 -7z" />
<glyph unicode="&#xe8;" horiz-adv-x="490" d="M388 620q-13 7 -30 31.5t-23 28.5q-1 1 -31 33.5t-54 45.5q-30 16 -86 32q-19 5 -20 -6q0 -4 6 -14t7.5 -17.5t-6.5 -21.5q-5 -6 -8 -11t-2 -10.5t1 -7t4 -7.5l3 -7q7 -14 29 -30t31 -15q4 0 18.5 3t28.5 4q22 2 60 -16q15 -7 35 -48.5t32 -45.5q17 -6 29 16 q17 30 -11 54q-5 5 -13 9zM206 280q24 -21 37 -31.5t30.5 -19t29.5 -4.5q19 6 54 35t32 46q-3 23 -16.5 33.5t-28.5 10.5t-32 5.5t-24 18.5q-4 8 -11.5 14t-20.5 8t-29 -3.5t-38.5 -23.5t-46.5 -49q-18 -20 -15 -54.5t10 -58.5t13 -35q3 -6 12.5 -18t27.5 -30t38.5 -28.5 t47 -15t53.5 10.5q4 2 20.5 12.5t28 15.5t30 2.5t35.5 -18.5q19 -17 2 -41t-40 -7q-16 8 -41.5 9.5t-55.5 -12t-43 -37.5q-19 -20 -46 -13.5t-46.5 20.5t-42 31.5t-32.5 19.5q-28 7 -63.5 31t-20.5 44q10 12 13.5 17t7 15.5t3.5 14.5t1.5 26.5t2.5 38.5q2 27 11 42.5t20 20 t25 15.5t22 28q18 39 47.5 73.5t49.5 43.5q22 10 34.5 13.5t22 6t20 -5.5t16.5 -12.5t25 -25t33 -34.5l17 -7q17 -8 34 -16.5t29.5 -21t8.5 -22.5q-3 -6 12 -53.5t10 -56.5q-4 -8 -69.5 -24t-70.5 -23q-21 -29 -101 1.5t-86 61.5q-2 17 16.5 24.5t37.5 -8.5z" />
<glyph unicode="&#xe9;" horiz-adv-x="489" d="M114 620q-33 -18 -25 -64q5 -29 18 -31q8 -2 12 16q4 21 25 52.5t42 41.5q38 18 60 16q14 -1 28.5 -4t18.5 -3q9 -1 31 15t29 30q1 2 3 5t2.5 5t1.5 5t1 5.5t-0.5 6t-3 7.5t-6.5 9q-8 14 -6.5 21.5t7.5 17.5t6 14q-1 11 -20 6q-56 -16 -86 -32q-24 -13 -54 -45.5 t-31 -33.5q-6 -4 -23 -28.5t-30 -31.5zM205 278q25 -22 37.5 -32t30 -18.5t29.5 -4.5q19 6 54 35t33 46q-3 23 -16.5 33.5t-28.5 11t-31.5 5.5t-24.5 19q-9 14 -24.5 20.5t-49 -10t-72.5 -65.5q-18 -19 -15 -55t9.5 -58t12.5 -35q4 -7 12.5 -18t27 -29.5t39 -29t48 -15.5 t53.5 11q3 2 20 12.5t28 15.5t30 2.5t36 -18.5q19 -16 2 -40t-40 -8q-16 8 -41.5 9.5t-56 -12t-43.5 -37.5q-19 -19 -46 -13t-46 20t-41.5 31.5t-32.5 19.5q-15 4 -37.5 15t-40 28.5t-6.5 31.5q8 10 11.5 16t6.5 10.5t4 13.5t2 14.5t1.5 24.5t1.5 33q2 27 11.5 42.5t20.5 20 t24.5 15.5t21.5 28q19 39 48.5 74t48.5 43t29.5 12.5t22 5.5t16.5 0.5t16 -8.5t16.5 -14t22 -23.5t29.5 -30.5l16 -7q17 -8 34.5 -16.5t30 -21t8.5 -22.5q-3 -7 11.5 -54t9.5 -55q-4 -9 -69 -25.5t-70 -22.5q-11 -16 -41 -13t-61.5 14.5t-57 29.5t-27.5 32q-3 18 16 25 t37 -9z" />
<glyph unicode="&#xea;" horiz-adv-x="490" d="M207 596q-4 -14 -24 -19.5t-37 3t-13 29.5q0 2 3.5 2t9.5 -0.5t10 -0.5q6 1 8.5 7t7.5 8q10 6 13 15t-7 15q-4 2 1 33q2 14 5 18.5t14 12.5q15 11 36 9q4 0 23 -13q9 -6 14 -21q4 -4 9 -10l5 -6q1 -1 4 -1.5t3 -2.5q0 -1 5.5 -3.5t10.5 -7t4 -9.5t2.5 -7t10.5 -2.5 t8 -0.5q5 -2 7.5 -5.5t4 -7t1.5 -4.5q4 -4 3.5 -16t-8.5 -19q-8 -10 -4 -11.5t12 -6t8 -13.5q0 -7 -7 -11t-14 -3.5t-8 4.5q-3 14 -16 17t-16 8t-3 11.5t-2 8.5t-11 9.5t-12 12.5t-4 7.5t-2.5 5t-2 5t-1.5 4.5t-1.5 5.5t-1 6.5t-1 9.5t-1.5 11.5q-2 8 -10 2q-14 -11 -6 -51 q1 -6 -14 -15.5t-16 -12.5zM457 358q-3 -6 12 -53.5t10 -56.5q-4 -8 -69.5 -24t-70.5 -23q-21 -29 -101 1.5t-86 61.5q-2 17 16.5 24.5t37.5 -8.5q24 -21 37 -31.5t30.5 -19t29.5 -4.5q19 6 54 35t32 46q-3 23 -16.5 33.5t-28.5 10.5t-32 5.5t-24 18.5q-4 8 -11.5 14 t-20.5 8t-29 -3.5t-38.5 -23.5t-46.5 -49q-18 -20 -15 -54.5t10 -58.5t13 -35q3 -6 12.5 -18t27.5 -30t38.5 -28.5t47 -15t53.5 10.5q4 2 20.5 12.5t28 15.5t30 2.5t35.5 -18.5q19 -17 2 -41t-40 -7q-16 8 -41.5 9.5t-55.5 -12t-43 -37.5q-19 -20 -46 -13.5t-46.5 20.5 t-42 31.5t-32.5 19.5q-28 7 -63.5 31t-20.5 44q10 12 13.5 17t7 15.5t3.5 14.5t1.5 26.5t2.5 38.5q2 27 11 42.5t20 20t25 15.5t22 28q18 39 47.5 73.5t49.5 43.5q22 10 34.5 13.5t22 6t20 -5.5t16.5 -12.5t25 -25t33 -34.5l17 -7q17 -8 34 -16.5t29.5 -21t8.5 -22.5z" />
<glyph unicode="&#xeb;" horiz-adv-x="490" d="M299 731q15 -4 19 -11.5t2 -14.5t2 -14q3 -5 27 5t36 -4q9 -7 5 -15t-10.5 -12t-19 -14t-21.5 -22q-18 -25 -54 10t-44 68q-4 16 1.5 19t20.5 1t36 4zM163 704q27 5 44.5 -20.5t7.5 -56.5q-11 -29 -61 -16t-78 47q-8 9 -9 15t5.5 9.5t13.5 4.5l21 3l12 1.5t11.5 1.5 t12 2.5l10.5 3.5t10 5zM206 280q24 -21 37 -31.5t30.5 -19t29.5 -4.5q19 6 54 35t32 46q-3 23 -16.5 33.5t-28.5 10.5t-32 5.5t-24 18.5q-4 8 -11.5 14t-20.5 8t-29 -3.5t-38.5 -23.5t-46.5 -49q-18 -20 -15 -54.5t10 -58.5t13 -35q3 -6 12.5 -18t27.5 -30t38.5 -28.5 t47 -15t53.5 10.5q4 2 20.5 12.5t28 15.5t30 2.5t35.5 -18.5q19 -17 2 -41t-40 -7q-16 8 -41.5 9.5t-55.5 -12t-43 -37.5q-19 -20 -46 -13.5t-46.5 20.5t-42 31.5t-32.5 19.5q-28 7 -63.5 31t-20.5 44q10 12 13.5 17t7 15.5t3.5 14.5t1.5 26.5t2.5 38.5q2 27 11 42.5t20 20 t25 15.5t22 28q18 39 47.5 73.5t49.5 43.5q11 5 20 8t16.5 6t15 2t12 -0.5t12 -4.5t11.5 -7t13 -11t14 -13.5t17.5 -17.5t19.5 -20l17 -7q17 -8 34 -16.5t29.5 -21t8.5 -22.5q-3 -6 12 -53.5t10 -56.5q-4 -8 -69.5 -24t-70.5 -23q-21 -29 -101 1.5t-86 61.5q-2 17 16.5 24.5 t37.5 -8.5z" />
<glyph unicode="&#xee;" horiz-adv-x="245" d="M219 562q-8 -10 -4 -11.5t12 -6t8 -13.5q0 -7 -7 -11t-14 -3.5t-8 4.5q-3 14 -16 17t-16 8t-3 11.5t-2 8.5t-11 9.5t-12 12.5q-4 7 -5.5 10.5t-2.5 8t-1.5 7t-1.5 11t-2 17.5v6q-25 2 -41 -39q-3 -7 -10 -19t-8 -15q-6 -20 -33 -25q-27 -6 -31 16q0 6 1 13q0 2 3.5 2 t9.5 -0.5t10 -0.5q6 1 14.5 7.5t11.5 7.5q10 6 13 15t-7 15q-4 2 1 33q1 9 0.5 14t1 8.5t7.5 8.5q15 11 36 9q4 0 23 -13q9 -6 14 -21q4 -4 9 -10l5 -6q1 -1 4 -1.5t3 -2.5q0 -1 5.5 -3.5t10.5 -7t4 -9.5t2.5 -7t10.5 -2.5t8 -0.5q5 -2 7.5 -5.5t4 -7t1.5 -4.5q4 -4 3.5 -16 t-8.5 -19zM191 247q2 -11 -3 -27t-16 -41.5t-13 -30.5q-4 -9 -2 -26.5t3.5 -38.5t3 -39.5t-3 -30.5t-15.5 -10q-22 6 -23.5 14.5t7 17t8.5 23.5t-19 31q-17 15 -25.5 33t-9 28.5t1.5 31.5t2 24q0 13 -15.5 40t-8.5 46q7 20 17 36.5t13 26.5q2 7 -5.5 25.5t-15 35.5 t-0.5 37.5t34 33.5q54 26 66 -1q8 -20 -11 -40q-7 -7 -16 -9q-15 -4 -25 -20t0 -29q4 -5 21.5 -11.5t30.5 -19t13 -35.5q0 -36 6 -75z" />
<glyph unicode="&#xef;" horiz-adv-x="342" d="M241 701q15 -4 19 -11.5t2 -14.5t2 -14q3 -5 27 5t36 -4q9 -7 5 -15t-10.5 -12t-19 -14t-21.5 -22q-18 -25 -54 10t-44 68q-4 16 1.5 19t20.5 1t36 4zM105 674q27 5 44.5 -20.5t7.5 -56.5q-11 -29 -61 -16t-78 47q-8 9 -9 15t5.5 9.5t13.5 4.5l21 3l12 1.5t11.5 1.5 t12 2.5l10.5 3.5t10 5zM207 437q-15 -4 -24.5 -19t0.5 -30q4 -5 21 -11.5t30 -19t13 -35.5q0 -30 7 -75q1 -11 -3.5 -27t-15.5 -42t-13 -30q-6 -18 -0.5 -51.5t4 -65t-18.5 -28.5q-21 6 -23 14.5t7 17t8.5 23.5t-19.5 31q-17 15 -25.5 33t-9 28.5t1.5 31.5t2 24q0 13 -15 40 t-8 46q6 20 16.5 37.5t13.5 25.5q2 6 -3.5 19t-11.5 27.5t-9 29.5t5.5 30t30.5 26q54 26 66 -1q8 -20 -11 -40q-7 -7 -16 -9z" />
<glyph unicode="&#xf1;" horiz-adv-x="420" d="M302 591q15 12 16.5 24t-12.5 38q-14 24 14 28q24 4 32 -7q2 -2 2 -4q0 -18 20.5 -39t12.5 -41q-4 -11 -19 -12t-28 -15q-7 -7 -34.5 -4.5t-35.5 -1.5q-13 -8 -22.5 4t-19.5 13q-10 2 -13.5 6t-2.5 8t-4 10t-17 12q-7 3 -5.5 10.5t7 15t-1 15t-30.5 11.5q-12 2 -22.5 -6 t-18 -20.5t-9.5 -13.5q-8 -6 -6.5 -14.5t7 -16.5t1.5 -15.5t-22 -9.5q-12 -2 -15 4t-5.5 18.5t-13.5 20.5q-17 11 -17.5 28.5t9 29t19.5 9.5q9 -2 14 -1.5t8 1.5t14 6.5t21 9.5q19 7 22 4.5t10 -8t19 -5.5q7 0 14 1t8.5 1t5 -0.5t4.5 -1.5t6 -4q7 -5 16 -10.5t11.5 -8 t5.5 -8.5t2.5 -14.5t-3.5 -24.5q-3 -17 17.5 -26t38.5 4zM39 13q9 -13 38.5 -15.5t33.5 17.5q3 15 -9.5 55t-11.5 49q0 3 11 52t10 57q-2 24 17.5 64t42.5 66q4 4 8.5 10t7 8.5t5.5 6t5.5 3.5t6 0.5t8.5 -1.5t10.5 -4.5t14.5 -6.5q36 -19 21 -71q-3 -11 3.5 -19.5 t16.5 -14.5t19 -24.5t9 -46.5q0 -2 -11.5 -42t-9.5 -46t-3 -42t-1 -43q16 -25 47 -14.5t49 38.5q1 5 1.5 8t-4 9.5t-8 10.5t-10 12.5t-11.5 14.5q-8 11 -8.5 24.5t3 30.5t2.5 28q-1 20 11.5 34.5t28 25t18.5 16.5q4 7 -2 16t-10 20t7 37q16 37 14.5 48t-25.5 41 q-8 11 -68 45q-28 16 -80 3q-8 -2 -21.5 -13t-21.5 -16q-41 -24 -71 -24q-17 0 -14 14q2 13 -14.5 24t-35.5 13t-32 -5q-16 -11 -16 -29.5t16 -31.5q10 -9 14 -22t4.5 -36.5t1.5 -33.5q2 -15 17.5 -59.5t11.5 -55.5q-5 -13 -10.5 -25t-8 -17t-4 -10.5t-1.5 -9.5t2 -10 q3 -12 -14 -54t0 -59z" />
<glyph unicode="&#xf4;" horiz-adv-x="452" d="M186 596q-4 -14 -24 -19.5t-37 3t-13 29.5q0 2 3.5 2t9.5 -0.5t10 -0.5q6 1 8.5 7t7.5 8q10 6 13 15t-7 15q-4 2 1 33q2 14 5 18.5t14 12.5q15 11 36 9q4 0 23 -13q9 -6 14 -21q4 -4 9 -10l5 -6q1 -1 4 -1.5t3 -2.5q0 -1 5.5 -3.5t10.5 -7t4 -9.5t2.5 -7t10.5 -2.5 t8 -0.5q5 -2 7.5 -5.5t4 -7t1.5 -4.5q4 -4 3.5 -16t-8.5 -19q-8 -10 -4 -11.5t12 -6t8 -13.5q0 -7 -7 -11t-14 -3.5t-8 4.5q-3 14 -16 17t-16 8t-3 11.5t-2 8.5t-11 9.5t-12 12.5t-4 7.5t-2.5 5t-2 5t-1.5 4.5t-1.5 5.5t-1 6.5t-1 9.5t-1.5 11.5q-2 8 -10 2q-14 -11 -6 -51 q1 -6 -14 -15.5t-16 -12.5zM436 221q16 -11 -6.5 -63.5t-37.5 -61.5q-8 -5 -26 -32.5t-40 -44.5t-47 -6q-5 6 -14 6.5t-15.5 -5t-21.5 -8.5t-32 -3t-47.5 11.5t-68.5 34.5q-6 4 -41 27q-5 4 -5 6q-22 19 -21 53q1 31 9.5 61.5t16 47.5t6 36t-16.5 37q-15 17 -17 36t3 30 t12 17q14 11 37.5 12t32.5 10q11 11 28 24.5t21 17.5q7 7 32 18t29 9q9 0 15.5 -5t18.5 -17.5t28 -22.5q21 -13 37 -8.5t31.5 -0.5t25.5 -31q15 -40 26 -73t16 -49t8.5 -28t6.5 -17t6 -8.5t11 -9.5zM330 208q5 19 -11.5 92t-44.5 76q-26 2 -50 -10.5t-28 -12.5 q-4 -1 -23 -24t-34 -25q-18 -2 -41.5 -30.5t-30.5 -57.5q0 -1 1.5 -16.5t4 -43t4.5 -45.5q10 -15 24 -26.5t25.5 -18.5t27 -11.5t24 -6.5t20.5 -4l12 -1q72 -11 120 165z" />
<glyph unicode="&#xf6;" horiz-adv-x="452" d="M308 629q-18 -25 -54 10t-44 68q-4 16 1.5 19t20.5 1t36 4q15 -4 19 -11.5t2 -14.5t2 -14q3 -5 27 5t36 -4q9 -7 5 -15t-10.5 -12t-19 -14t-21.5 -22zM184 627q-11 -29 -61 -16t-78 47q-8 9 -9 15t5.5 9.5t13.5 4.5l21 3l12 1.5t11.5 1.5t12 2.5l10.5 3.5t10 5 q27 5 44.5 -20.5t7.5 -56.5zM436 215q16 -11 -6.5 -63t-37.5 -62q-8 -5 -26 -32.5t-40 -44.5t-47 -6q-12 10 -17 6t-20 -8.5t-31.5 -8t-51.5 7.5t-79 39q2 7 -2 9l2 -9q-6 4 -41 27q-3 2 -5 5q-22 19 -21 54q1 31 9.5 61.5t16 47.5t6 36t-16.5 37q-15 17 -17 36t3 30t12 17 q14 11 37.5 12t32.5 10q10 10 27.5 23.5t21.5 18.5q7 7 32 18t29 9q9 0 15.5 -5.5t18.5 -17.5t28 -22q21 -13 37 -8.5t31.5 -0.5t25.5 -31q15 -40 26 -73t16 -49t8.5 -28t6 -17t6 -8.5t11.5 -9.5zM330 202q6 17 -11 91t-45 77q-26 2 -50 -10.5t-28 -12.5q-4 -1 -23 -24 t-34 -25q-18 -2 -42 -31t-30 -57q-1 -2 6 -98q9 -14 20 -26t23 -19.5t22.5 -12.5t23.5 -8t20 -4.5t17 -3t11 -1.5q72 -11 120 165zM80 43z" />
<glyph unicode="&#xf7;" horiz-adv-x="463" d="M269 415q5 -16 -17 -22.5t-49 -3.5q-24 3 -35.5 16.5t-9.5 29.5q1 7 11.5 16t11.5 18q1 8 14.5 15.5t22.5 4.5q3 -1 14.5 -2t20 -5t13.5 -13t1 -18.5t2 -35.5zM61 291q9 25 50 12q7 -2 11.5 4t15 13.5t29.5 7.5q29 -2 67 -16q9 -3 48.5 10t46.5 2q6 -8 26 -7.5t41.5 4.5 t39 -5t17.5 -34q1 -15 -5.5 -17.5t-18 2.5t-25.5 5.5t-28 -7.5q-13 -9 -25.5 -14t-25 -6.5t-20.5 -1.5t-20 1t-16 1q-19 1 -79 20q-39 10 -87 -26q-22 -15 -59 -15q-45 1 -31 37l2 4q8 16 24.5 14t21.5 12zM203 79q-8 3 -17.5 6t-15 4.5t-11 4t-7.5 6t-1 8.5q2 12 13.5 27.5 t23.5 20.5q10 4 18 12t12 11q9 6 24 0.5t24 -20.5q5 -10 5.5 -16.5t-2.5 -16.5t-4 -13q-2 -14 -4.5 -21t-8.5 -14.5t-18 -7t-31 8.5z" />
<glyph unicode="&#xf9;" horiz-adv-x="390" d="M257 620q-13 7 -30 31.5t-23 28.5q-1 1 -31 33.5t-54 45.5q-30 16 -86 32q-19 5 -20 -6q0 -4 6 -14t7.5 -17.5t-6.5 -21.5q-5 -6 -8 -11t-2 -10.5t1 -7t3 -7.5l4 -7q7 -14 29 -30t31 -15q4 0 18.5 3t28.5 4q22 2 60 -16q15 -7 35 -48.5t32 -45.5q17 -6 29 16 q17 30 -11 54q-5 5 -13 9zM352 458q-9 13 -38 16t-35 -18q-2 -15 10 -55t11 -49q0 -5 -36.5 -46t-36.5 -49q1 -7 6.5 -32t4 -41.5t-14.5 -31.5q-6 -7 -13.5 -18.5t-12 -18t-11 -12.5t-15.5 -5.5t-22 7.5q-17 9 -21 23t4 40q3 11 -3.5 19.5t-16.5 14.5t-19 24.5t-9 46.5 q0 3 20.5 42.5t18.5 45.5t3.5 41.5t1.5 43.5q-18 26 -48 15.5t-48 -39.5q-1 -5 -1.5 -8t3.5 -9.5t7.5 -10.5t10 -12.5t11.5 -15.5t7.5 -14t-0.5 -17.5t-4.5 -15t-9 -18.5t-8.5 -17q-12 -24 -14.5 -47.5t-4.5 -28.5q-5 -10 0.5 -35t5.5 -52q0 -12 -1.5 -25t-1.5 -17.5 t2.5 -12.5t9.5 -15l20 -20q14 -13 46 -22t44 -6q10 2 44 23q35 22 67 24q19 0 18 -14q-4 -19 30.5 -31.5t50.5 -0.5t16 30.5t-16 31.5q-38 33 -20 92q7 20 3.5 58.5t0.5 46.5q7 18 7.5 32t-3 20.5t-8.5 15t-7 13.5q-3 12 13.5 52t1.5 62z" />
<glyph unicode="&#xfb;" horiz-adv-x="374" d="M148 596q-4 -14 -24 -19.5t-37 3t-13 29.5q0 2 3.5 2t9.5 -0.5t10 -0.5q6 1 8.5 7t7.5 8q10 6 13 15t-7 15q-4 2 1 33q2 14 5 18.5t14 12.5q15 11 36 9q4 0 23 -13q9 -6 14 -21q4 -4 9 -10l5 -6q1 -1 4 -1.5t3 -2.5q0 -1 5.5 -3.5t10.5 -7t4 -9.5t2.5 -7t10.5 -2.5 t8 -0.5q5 -2 7.5 -5.5t4 -7t1.5 -4.5q4 -4 3.5 -16t-8.5 -19q-8 -10 -4 -11.5t12 -6t8 -13.5q0 -7 -7 -11t-14 -3.5t-8 4.5q-3 14 -16 17t-16 8t-3 11.5t-2 8.5t-11 9.5t-12 12.5t-4 7.5t-2.5 5t-2 5t-1.5 4.5t-1.5 5.5t-1 6.5t-1 9.5t-1.5 11.5q-2 8 -10 2q-14 -11 -6 -51 q1 -6 -14 -15.5t-16 -12.5zM349 67q15 -13 15 -31.5t-15 -29.5q-16 -13 -51 -1t-31 32q3 14 -14 14q-31 0 -72 -24q-34 -21 -43 -23q-13 -3 -44.5 5.5t-45.5 21.5l-20 20t-9.5 15.5t-2.5 13t1.5 17.5t1.5 25q0 27 -5.5 52t-0.5 35q2 5 4.5 28.5t14.5 47.5q1 3 7 14.5t8 15 t5 13t3 14.5t-1.5 12.5t-6.5 13.5q-4 6 -11 14l-10.5 12t-7.5 11t-3.5 9.5t1.5 8.5q18 29 48 39.5t48 -15.5q4 -7 -1.5 -43t-3.5 -42q2 -7 -18.5 -46.5t-20.5 -42.5q0 -28 9 -46t19 -24t17 -14.5t4 -19.5q-8 -26 -4.5 -40t20.5 -23q13 -7 22 -7.5t15.5 5t11 12.5t11.5 18 t14 19q13 15 15 31.5t-3.5 42t-6.5 31.5q-1 8 35.5 49t36.5 45q1 9 -11.5 49.5t-9.5 55.5q6 21 35 18t38 -16q15 -22 -1.5 -61.5t-13.5 -51.5q1 -5 10 -19.5t9 -23.5t-8 -39q-4 -9 -0.5 -46.5t-2.5 -58.5q-20 -59 20 -92z" />
<glyph unicode="&#xfc;" horiz-adv-x="375" d="M241 731q15 -4 19 -11.5t2 -14.5t2 -14q3 -5 27 5t36 -4q9 -7 5 -15t-10.5 -12t-19 -14t-21.5 -22q-18 -25 -54 10t-44 68q-4 16 1.5 19t20.5 1t36 4zM105 704q27 5 44.5 -20.5t7.5 -56.5q-11 -29 -61 -16t-78 47q-8 9 -9 15t5.5 9.5t13.5 4.5l21 3l12 1.5t11.5 1.5 t12 2.5l10.5 3.5t10 5zM337 458q-9 13 -38.5 15t-34.5 -17q-2 -15 10 -55t11 -49q0 -5 -36.5 -46t-36.5 -49q1 -7 6.5 -32t4 -41.5t-14.5 -31.5q-6 -7 -13.5 -18.5t-12 -18t-11 -12.5t-15.5 -5.5t-22 7.5q-17 9 -21 23t4 40q3 11 -3.5 19.5t-16.5 14.5t-19 24.5t-9 46.5 q0 3 20.5 42.5t18.5 45.5t3.5 41.5t1.5 43.5q-16 24 -47.5 14t-48.5 -38q-1 -5 -1.5 -8t3.5 -9.5t7.5 -10.5t10 -12.5t11.5 -15.5t7.5 -14t-0.5 -17.5t-4.5 -15t-9 -18.5t-8.5 -17q-12 -24 -14.5 -47.5t-4.5 -28.5q-5 -10 0.5 -35t5.5 -52q0 -12 -1.5 -25t-1.5 -17.5 t2.5 -12.5t9.5 -15l20 -20q14 -13 46 -22t44 -6q10 2 44 23q35 22 67 24q19 0 18 -14q-4 -19 30.5 -31.5t50.5 -0.5t16 30.5t-16 31.5q-38 33 -20 92q7 20 3.5 58.5t0.5 46.5q7 18 7.5 32t-3 20.5t-8.5 15t-7 13.5q-3 12 13.5 52t1.5 62z" />
<glyph unicode="&#x152;" horiz-adv-x="957" d="M926 717q12 5 18.5 -8.5t-2.5 -27.5q-6 -8 -12 -9.5t-21.5 -3t-32.5 -7.5t-43.5 -31t-51.5 -20q-23 5 -49.5 22.5t-45.5 19.5q-1 0 -16 4.5t-29 7t-32 4t-34 -3t-26 -14.5q-8 -10 -17 -28t-16 -25q-19 -26 -14.5 -38t14.5 -29.5t5 -31.5q-5 -15 -19 -25q80 5 102 29 q40 41 73 -6q16 -28 -31 -55.5t-74 -21.5q-20 6 -47.5 7t-34.5 3q-2 -1 -4 -3q-6 -27 3 -46q15 -35 17 -105q1 -12 -11 -36t-19.5 -42t7 -42.5t59.5 -44.5q15 -6 27.5 -13.5t16 -10.5t13.5 -4.5t20 4.5q5 2 29 27t53.5 47t52.5 22q64 0 106 -5q1 0 6 -1.5t6 -2t5 -3 t2.5 -4.5t-0.5 -7q-2 -4 -13.5 -11t-19 -16.5t-3.5 -23.5q5 -16 -13 -39.5t-42.5 -32.5t-45.5 6q-16 10 -25 7t-24.5 -12.5t-25.5 -9.5q-11 -1 -34 -11t-42.5 -9t-41.5 21q-18 12 -32.5 9.5t-24.5 -12.5l-10 -10q-19 -27 -30.5 -30.5t-41.5 2.5q-19 2 -35 11t-21 15t-17 21 l-7 9q-43 -21 -70 -20q-4 -2 -29.5 11.5t-32.5 21.5q-3 4 -6.5 24.5t-14.5 31.5q-9 10 -39 19.5t-44 21.5q-19 16 -38.5 59t-24.5 69q-4 23 -12 92t-9 90q-1 20 7 64t18 73q4 11 7.5 19.5t9.5 18t9.5 14t13.5 17.5t15 21q17 24 40 52.5t25 30.5q16 21 55.5 36.5t65.5 11.5 q20 -3 47.5 -23t34.5 -22q29 -10 85 -51q12 -8 47 -65q12 14 15.5 24t2 14t-8.5 11.5t-10 11.5q-11 18 1.5 24t33 6.5t22.5 4.5q10 21 36 14.5t50 -23t52.5 -32.5t42.5 -14q1 0 46 15t72 11q18 -2 38.5 -7t25 -5.5t17.5 2.5zM225 186q6 -1 22 -15t44 -14q27 0 45.5 22 t22.5 43q-5 8 -9 28q-13 16 -45 24q-5 1 -13 1.5t-13 1.5t-11 4.5t-10 13t-7 24.5t6 31.5t28 32t35 26t37.5 23t24.5 14.5q37 23 63 76q-8 47 0 74q-3 4 -31 32q-7 7 -13.5 29t-13.5 40t-35 32.5t-76 12.5q-18 -1 -42.5 -44t-28.5 -61q-3 -14 10 -46t10 -50 q-2 -12 -12.5 -28.5t-20.5 -29t-26.5 -31.5t-22.5 -26q-21 -24 -37.5 -75.5t-12.5 -82.5q5 -32 27.5 -68t40.5 -39q13 -2 31.5 12.5t32.5 12.5z" />
<glyph unicode="&#x153;" horiz-adv-x="774" d="M741 359q-3 -7 11.5 -54t10.5 -56q-4 -8 -69.5 -24t-70.5 -23q-20 -18 -60 -10.5t-81.5 31t-44.5 42.5q-3 17 16 24.5t37 -8.5q69 -64 97 -55q19 6 54 34.5t32 45.5q-3 23 -16.5 34t-28.5 11t-31.5 5.5t-23.5 18.5q-4 8 -11.5 14t-20.5 8t-29 -3.5t-38.5 -23.5t-46.5 -49 q-27 -35 -8 -107q2 -4 2 -7q2 -6 13 -34q3 -6 12.5 -18t27.5 -30t38.5 -29t47 -15.5t53.5 10.5q3 2 20.5 13t28.5 16t30 2.5t36 -18.5q18 -17 1.5 -41t-39.5 -7q-16 8 -42 9.5t-56 -12t-43 -37.5q-19 -20 -46 -13.5t-46.5 20.5t-41.5 31.5t-33 19.5q-3 1 -24 9 q-3 -4 -9.5 -13.5t-10.5 -15t-11 -14t-13 -13t-14 -8t-16.5 -3.5t-17.5 4q-5 6 -14 6t-15 -5.5t-20 -8t-30 -2.5t-45 11t-65 33q1 4 -2 8q1 -4 1 -8q-5 4 -18 12.5t-20 13.5l-3 3q-24 17 -23 53q1 29 9.5 58t15 45t5.5 34.5t-15 35.5q-20 30 -17 49.5t15 29.5q13 11 35.5 12 t30.5 9q10 10 26.5 22.5t20.5 17.5q6 7 30 17.5t28 8.5q8 0 14.5 -5t18 -16.5t26.5 -21.5q20 -13 35 -8.5t30.5 -0.5t24.5 -30l23 -63q25 13 36 37q18 38 48 73t49 44q11 5 20 8t16.5 6t15 2t12 -0.5t12 -4.5t11.5 -7t13 -11t14 -13.5t17.5 -17.5t19.5 -20l17 -8 q17 -7 34 -15.5t29.5 -21t8.5 -22.5zM200 48q12 -2 24 2t21.5 12.5t18 19t15 24t12 26t10 26t7 22.5t4.5 17l2 8q6 17 -10 87.5t-43 72.5q-25 2 -47.5 -9.5t-26.5 -11.5q-4 -1 -22 -23.5t-32 -24.5q-18 -2 -41 -29t-28 -54q-1 -2 6 -95q10 -15 23 -27.5t24.5 -19t27 -11.5 t23 -7t20.5 -3zM77 53l-1 1h1v-1z" />
<glyph unicode="&#x2c6;" horiz-adv-x="293" d="M263 604q-10 -12 -5 -14t15 -7.5t10 -16.5q0 -8 -8.5 -13t-17 -4.5t-9.5 5.5q-4 18 -19.5 21.5t-19.5 9.5t-3.5 13.5t-2.5 10.5q-2 2 -13.5 11.5t-14.5 15.5q-5 10 -7.5 16t-3 9.5t-2 15.5t-3.5 24q-1 2 0 5v2q-30 5 -50 -47q-3 -8 -12 -22.5t-10 -18.5q-4 -17 -25 -26.5 t-38 -2t-13 33.5q0 3 4 3t11.5 -1t12.5 -1q6 0 10.5 3t10.5 8t10 7q13 7 16 18.5t-9 18.5q-3 1 -3.5 5.5t2 16.5t3.5 18q1 11 0 17t1 10.5t10 10.5q17 12 43 10q6 0 28 -15q7 -4 18 -26q5 -5 11 -12l5 -7q1 -1 5 -2t4 -3l13 -8q13 -8 11 -16q-1 -6 3 -8.5t12.5 -3t10.5 -1.5 q5 -2 8 -5t4 -5.5t2.5 -5.5t1.5 -4q12 -25 -7 -43z" />
<glyph unicode="&#x2dc;" horiz-adv-x="295" d="M216 677q12 9 13 18t-10 30q-11 20 13 22q21 2 25 -8q0 -15 16 -32t10 -32q-3 -8 -14.5 -8.5t-22.5 -12.5q-5 -6 -26.5 -3.5t-28.5 -1.5q-10 -6 -17.5 3.5t-15.5 10.5t-11 4t-2 6.5t-2.5 8t-13.5 8.5q-9 5 -2 12t5 16t-26 13q-10 2 -18.5 -5t-14 -15.5t-6.5 -9.5 q-6 -5 -5 -11.5t5.5 -13t1 -12.5t-17.5 -8q-8 -1 -11 2t-3 8.5t-3 12t-10 11.5q-13 9 -13.5 22.5t7 23t15.5 7.5q6 -1 8.5 -1.5t6.5 0.5t6 2t9.5 4.5t13.5 6.5q13 9 22 1t19 -8q5 0 9.5 0.5t6.5 0.5t3.5 0.5t3 0t2.5 -1.5t4 -3q5 -4 12 -8.5t9.5 -6t5 -6t1.5 -11.5t-3 -20 t14 -19.5t30 3.5z" />
<glyph unicode="&#x2000;" horiz-adv-x="516" />
<glyph unicode="&#x2001;" horiz-adv-x="1033" />
<glyph unicode="&#x2002;" horiz-adv-x="516" />
<glyph unicode="&#x2003;" horiz-adv-x="1033" />
<glyph unicode="&#x2004;" horiz-adv-x="344" />
<glyph unicode="&#x2005;" horiz-adv-x="258" />
<glyph unicode="&#x2006;" horiz-adv-x="172" />
<glyph unicode="&#x2007;" horiz-adv-x="172" />
<glyph unicode="&#x2008;" horiz-adv-x="129" />
<glyph unicode="&#x2009;" horiz-adv-x="206" />
<glyph unicode="&#x200a;" horiz-adv-x="57" />
<glyph unicode="&#x2010;" horiz-adv-x="369" d="M50 281q8 24 40 12q5 -2 8 1.5t5.5 9t10.5 10t20 4.5q22 -1 53 -16q7 -3 24.5 4t29.5 12t20 -4q9 -14 31 -6.5t44.5 2t22.5 -37.5q1 -15 -4.5 -17.5t-14 2.5t-20 5.5t-22.5 -7.5q-13 -11 -26.5 -16t-20 -6t-21.5 1l-16 1q-15 1 -62 20q-30 10 -69 -26q-10 -9 -30 -14 t-34.5 4t-4.5 36q6 16 19.5 14t16.5 12z" />
<glyph unicode="&#x2011;" horiz-adv-x="369" d="M50 281q8 24 40 12q5 -2 8 1.5t5.5 9t10.5 10t20 4.5q22 -1 53 -16q7 -3 24.5 4t29.5 12t20 -4q9 -14 31 -6.5t44.5 2t22.5 -37.5q1 -15 -4.5 -17.5t-14 2.5t-20 5.5t-22.5 -7.5q-13 -11 -26.5 -16t-20 -6t-21.5 1l-16 1q-15 1 -62 20q-30 10 -69 -26q-10 -9 -30 -14 t-34.5 4t-4.5 36q6 16 19.5 14t16.5 12z" />
<glyph unicode="&#x2012;" horiz-adv-x="369" d="M50 281q8 24 40 12q5 -2 8 1.5t5.5 9t10.5 10t20 4.5q22 -1 53 -16q7 -3 24.5 4t29.5 12t20 -4q9 -14 31 -6.5t44.5 2t22.5 -37.5q1 -15 -4.5 -17.5t-14 2.5t-20 5.5t-22.5 -7.5q-13 -11 -26.5 -16t-20 -6t-21.5 1l-16 1q-15 1 -62 20q-30 10 -69 -26q-10 -9 -30 -14 t-34.5 4t-4.5 36q6 16 19.5 14t16.5 12z" />
<glyph unicode="&#x2013;" horiz-adv-x="499" d="M65 281q11 25 54 12q8 -2 13 4t15.5 13.5t31.5 7.5q31 -1 73 -16q10 -3 52 10t50 2q6 -8 28 -7.5t45.5 4.5t42.5 -5t19 -34q1 -12 -3.5 -15.5t-13 -1.5t-18.5 5t-24 2.5t-25 -7.5q-18 -11 -37 -16t-27.5 -6t-30.5 1l-21 1q-23 1 -84 20q-44 10 -95 -26q-23 -15 -63 -15 t-37 25q1 7 5 16q8 16 26.5 14t23.5 12z" />
<glyph unicode="&#x2014;" horiz-adv-x="946" d="M117 281q19 25 103 12q13 -2 22 1.5t16 9t27.5 10t51.5 4.5q59 -1 141 -16q19 -3 100 10t96 2q23 -14 81.5 -6.5t119.5 2t61 -37.5q1 -12 -7 -15.5t-25 -1.5t-37 5t-46 2.5t-48 -7.5q-34 -11 -71 -16t-53 -6t-58 1l-42 1q-46 2 -162 20q-87 10 -183 -26q-46 -15 -124 -15 q-76 1 -70 26q3 7 10 15q16 16 51 14t46 12z" />
<glyph unicode="&#x2018;" horiz-adv-x="167" d="M148 664q-40 60 -120 12q-42 -24 8 -143q24 -60 40 -63q13 -3 19 0t5 12t-3.5 18.5t-5.5 21t-3 17.5q1 18 16.5 34.5t29.5 26.5t21.5 27.5t-7.5 36.5z" />
<glyph unicode="&#x2019;" horiz-adv-x="167" d="M19 664q-15 -19 -7.5 -36.5t21.5 -27.5t29.5 -26.5t16.5 -34.5q0 -6 -3 -17.5t-5.5 -21t-3.5 -18.5t5 -12t19 0q16 3 40 63q50 119 8 143q-80 48 -120 -12z" />
<glyph unicode="&#x201a;" horiz-adv-x="174" d="M20 70q-16 -20 -8.5 -38t22 -29t30 -29t16.5 -36q0 -7 -3.5 -19t-6.5 -21.5t-3.5 -18.5t5.5 -13t20 -1q11 2 19.5 15.5t23.5 49.5q53 125 11 150q-85 53 -126 -10z" />
<glyph unicode="&#x201c;" horiz-adv-x="350" d="M331 669q-38 60 -120 12q-41 -24 9 -143q13 -34 21.5 -47.5t18.5 -15.5q13 -3 19 0t5 12t-3.5 18.5t-5.5 21t-3 17.5q1 18 16 34.5t29.5 26.5t21.5 27.5t-8 36.5zM148 664q-40 60 -120 12q-42 -24 8 -143q24 -60 40 -63q13 -3 19 0t5 12t-3.5 18.5t-5.5 21t-3 17.5 q1 18 16.5 34.5t29.5 26.5t21.5 27.5t-7.5 36.5z" />
<glyph unicode="&#x201d;" horiz-adv-x="350" d="M19 669q-15 -19 -8 -36.5t21.5 -27.5t29.5 -26.5t16 -34.5q0 -6 -3 -17.5t-5.5 -21t-3.5 -18.5t5 -12t19 0q10 2 18.5 15.5t21.5 47.5q50 119 9 143q-82 48 -120 -12zM202 664q-15 -19 -7.5 -36.5t21.5 -27.5t29.5 -26.5t16.5 -34.5q0 -6 -3 -17.5t-5.5 -21t-3.5 -18.5 t5 -12t19 0q16 3 40 63q50 119 8 143q-80 48 -120 -12z" />
<glyph unicode="&#x201e;" horiz-adv-x="174" d="M146 80q42 -25 -11 -150q-15 -36 -23.5 -49.5t-19.5 -15.5q-14 -3 -20 1t-5.5 13t3.5 18.5t6.5 21.5t3.5 19q-1 18 -16.5 36t-30 29t-22 29t8.5 38q41 63 126 10z" />
<glyph unicode="&#x2022;" horiz-adv-x="297" d="M63 247l-20 5q-2 2 -12 8.5t-16 13t-5 14.5t12.5 12.5t29 8t23.5 6.5l24 15q24 14 47.5 21.5t46.5 3.5q17 -3 44.5 -3.5t37 -4.5t11.5 -17q3 -20 -9 -49t-30 -42q-14 -10 -22.5 -26t-15.5 -22q-12 -12 -38.5 -9.5t-45.5 22.5q-34 36 -62 43z" />
<glyph unicode="&#x2026;" horiz-adv-x="610" d="M597 47q-1 -7 1.5 -20t0.5 -18q-2 -4 -12.5 -6t-25.5 -2t-19 -1q-1 0 -11 -2.5t-17 -3.5t-19 0t-23 6q-14 6 -16.5 14t3 21t5.5 18q0 8 13.5 13.5t10.5 14.5q-3 8 8.5 16t22.5 8q6 0 18.5 3.5t26.5 3.5q13 0 25 -22.5t8 -42.5zM162 48l12 -6q1 -2 6 -7.5t8 -11t1 -9.5 t-10.5 -5.5t-18 -1t-16.5 -0.5q-1 0 -19 -5.5t-28.5 -6t-32.5 4.5q-10 4 -27 8.5t-22 8.5t-5 13q1 13 13 29.5t25 21.5q11 4 18.5 13t12.5 11q10 6 26 0.5t25 -21.5q16 -27 32 -36zM386 36q-1 -4 2 -13t1 -14q-3 -8 -15 -9t-20 8q-10 15 -56 -7q-22 -11 -33.5 6.5 t-10.5 36.5q1 10 12.5 21t14.5 17q15 29 33 24q8 -2 22.5 -2.5t21.5 -4t10 -14.5q2 -8 12.5 -21t5.5 -28z" />
<glyph unicode="&#x202f;" horiz-adv-x="206" />
<glyph unicode="&#x2039;" horiz-adv-x="342" d="M73 340q12 0 19.5 4t9 8l4.5 12q3 9 8.5 12.5t10.5 4t8.5 5t3.5 15.5q0 24 17.5 34t54.5 -4q12 -5 32 4.5t36.5 15t44.5 -12.5q22 -17 -2 -33q-25 -16 -51 -6l-6 3q-10 7 -18.5 0t-14.5 -22.5t-8.5 -26.5t-4.5 -22q-3 -19 -30.5 -30.5t-37.5 -1.5q-6 8 -17 6.5t-17.5 -5 t-15.5 -10t-11 -7.5q-28 -14 -18.5 -34t43.5 -20q21 0 40 -9.5t19 -25.5q0 -17 18 -26t43 7q14 11 37.5 -13t13.5 -44q-5 -13 -23.5 -22t-25.5 4q-8 21 -15 25.5t-21 -1t-23 -5.5q-17 0 -27 40q-10 38 -56 14q-11 -6 -25 2t-25 24q-5 9 -4.5 17.5t3.5 15t1.5 11t-10.5 5.5 q-33 3 -20 49q3 12 26 31q24 12 34 12z" />
<glyph unicode="&#x203a;" horiz-adv-x="342" d="M269 220q-12 0 -19.5 -4t-9 -8l-4.5 -12q-3 -9 -8.5 -12.5t-10.5 -4t-8.5 -5t-3.5 -15.5q0 -24 -17.5 -34t-54.5 4q-12 5 -32 -4.5t-36.5 -15t-44.5 12.5q-22 17 2 33q25 16 51 6q3 -1 6 -3q10 -7 18.5 0t14.5 22.5t8.5 26.5t4.5 22q3 19 30.5 30.5t37.5 1.5 q6 -8 17 -6.5t17.5 5t15.5 10t11 7.5q28 14 18.5 34t-43.5 20q-21 0 -40 9.5t-19 25.5q0 17 -18 26t-43 -7q-14 -11 -37.5 13t-13.5 44q5 13 23.5 22t25.5 -4q8 -21 15 -25.5t21 1t23 5.5q17 0 27 -40q10 -38 56 -14q11 6 25 -2t25 -24q5 -9 4.5 -17.5t-3.5 -15t-1.5 -11 t10.5 -5.5q33 -3 20 -49q-3 -12 -26 -31q-24 -12 -34 -12z" />
<glyph unicode="&#x205f;" horiz-adv-x="258" />
<glyph unicode="&#x20ac;" horiz-adv-x="576" d="M551 131q17 4 14 -7q-1 -7 -39 -57q-6 -8 -11 -14q-7 -10 -13.5 -21t-8 -14t-9.5 -7.5t-18 -6t-34 -4.5q-53 -5 -72 -1t-30.5 11.5t-17.5 7.5q-4 0 -33.5 9.5t-61.5 6.5q-19 -2 -22.5 11t1.5 30.5t2.5 37t-18.5 27.5q-63 33 -77 71q-31 -12 -36 0q-2 5 -5 7.5t-8.5 4 t-9 2t-11 0.5h-10.5q-20 1 -11 17t23 15l25 -1q14 -1 18.5 7t15.5 13v29q-42 -15 -59 -14q-9 0 -10.5 4t1 11.5t1.5 10.5l10 20q3 7 7.5 7.5t20 0.5t34.5 5q5 32 16 38q13 9 14.5 23t-3 31.5t-4.5 22.5t0.5 17t1 20.5t-1 17t-4.5 11.5q-6 7 11 26.5t31 26.5q132 65 180 56 q22 -4 37 -20.5t22 -16.5q88 -4 148 -37q14 -8 -9 -30q-33 -30 -68 -22q-25 5 -39 31q-8 13 -27.5 7.5t-39 -14.5t-40.5 2q-27 14 -50.5 4.5t-36 -32.5t-0.5 -38q6 -8 9.5 -15.5t3.5 -14.5t-0.5 -11.5t-6 -12t-7.5 -10.5t-10 -11.5t-10 -10.5q15 -2 37.5 -12.5t39.5 -18.5 t37 -8t35 14q24 23 37.5 16.5t13 -25.5t-1.5 -26q-7 -17 -27.5 -23.5t-31.5 0.5q-6 3 -17.5 9.5t-15 7.5t-15.5 1.5t-27.5 -4t-41.5 -13.5q-2 -1 -8 -1l6 -12q63 0 89 -28q3 -2 9 -2.5t12 0.5t12 1.5t9.5 -0.5t2.5 -5q-7 -25 -15.5 -31.5t-16.5 -1.5t-19.5 10t-20.5 0 q-7 -4 -12.5 -5t-8.5 -1t-10 1.5t-11 2.5q4 -24 3 -45q-1 -15 8 -27t22 -14q11 -1 16 -13.5t6 -26t10 -21.5t27 -3q38 12 87 0q23 -6 39.5 -0.5t23 14t20.5 19t33 14.5z" />
<glyph unicode="&#x25fc;" horiz-adv-x="505" d="M0 505h505v-505h-505v505z" />
</font>
</defs>
</svg>
